<?xml version="1.0" standalone="no"?>
<!DOCTYPE svg PUBLIC "-//W3C//DTD SVG 1.1//EN" "http://www.w3.org/Graphics/SVG/1.1/DTD/svg11.dtd" >
<svg>
<metadata>
Created by FontForge 20120731 at Wed Mar  8 04:58:54 2017
 By www-data
Copyright (c) 2013, Natanael Gama (www.ndiscovered.com . info(at)ndiscovered.com), with Reserved Font Name Exo. This Font Software is licensed under the SIL Open Font License, Version 1.1.
</metadata>
<defs>
<font id="Exo2-ExtraBold" horiz-adv-x="580" >
  <font-face 
    font-family="Exo 2 Extra Bold"
    font-weight="800"
    font-stretch="normal"
    units-per-em="1000"
    panose-1="0 0 9 0 0 0 0 0 0 0"
    ascent="800"
    descent="-200"
    x-height="497"
    cap-height="690"
    bbox="-174 -301 1311 958"
    underline-thickness="50"
    underline-position="-50"
    stemh="185"
    stemv="125"
    unicode-range="U+0020-FB02"
  />
<missing-glyph horiz-adv-x="600" 
 />
    <glyph glyph-name=".notdef" horiz-adv-x="600" 
 />
    <glyph glyph-name="A" unicode="A" horiz-adv-x="668" 
d="M440 164h-212l-41 -164h-192l189 641c7 30 33 49 63 49h174c30 0 56 -19 64 -49l188 -641h-192zM406 300l-45 177c-5 23 -11 49 -13 72h-27c-4 -23 -9 -49 -14 -72l-45 -177h144z" />
    <glyph glyph-name="Aacute" unicode="&#xc1;" horiz-adv-x="668" 
d="M293 721l-51 76l218 149l74 -119zM440 164h-211l-42 -164h-191l188 641c8 30 33 49 64 49h173c31 0 56 -19 64 -49l188 -641h-191zM406 300l-45 177c-5 23 -10 49 -13 72h-27c-3 -23 -8 -49 -13 -72l-45 -177h143z" />
    <glyph glyph-name="Abreve" unicode="&#x102;" horiz-adv-x="668" 
d="M335 739c-117 0 -186 76 -173 162l85 12c0 -43 26 -62 88 -62c61 0 87 19 87 62l85 -12c13 -86 -55 -162 -172 -162zM440 164h-211l-42 -164h-191l188 641c8 30 33 49 64 49h173c31 0 56 -19 64 -49l188 -641h-191zM406 300l-45 177c-5 23 -10 49 -13 72h-27
c-3 -23 -8 -49 -13 -72l-45 -177h143z" />
    <glyph glyph-name="Acircumflex" unicode="&#xc2;" horiz-adv-x="668" 
d="M179 714l-46 68l138 133h131l134 -138l-45 -63l-151 94h-8zM440 164h-211l-42 -164h-191l188 641c8 30 33 49 64 49h173c31 0 56 -19 64 -49l188 -641h-191zM406 300l-45 177c-5 23 -10 49 -13 72h-27c-3 -23 -8 -49 -13 -72l-45 -177h143z" />
    <glyph glyph-name="Adieresis" unicode="&#xc4;" horiz-adv-x="668" 
d="M270 762h-59c-24 0 -36 12 -36 37v60c0 24 12 36 36 36h59c25 0 36 -12 36 -36v-60c0 -25 -11 -37 -36 -37zM456 762h-59c-25 0 -37 12 -37 37v60c0 24 12 36 37 36h59c24 0 36 -12 36 -36v-60c0 -25 -12 -37 -36 -37zM440 164h-211l-42 -164h-191l188 641
c8 30 33 49 64 49h173c31 0 56 -19 64 -49l188 -641h-191zM406 300l-45 177c-5 23 -10 49 -13 72h-27c-3 -23 -8 -49 -13 -72l-45 -177h143z" />
    <glyph glyph-name="Agrave" unicode="&#xc0;" horiz-adv-x="668" 
d="M371 721l-241 106l74 119l218 -149zM440 164h-211l-42 -164h-191l188 641c8 30 33 49 64 49h173c31 0 56 -19 64 -49l188 -641h-191zM406 300l-45 177c-5 23 -10 49 -13 72h-27c-3 -23 -8 -49 -13 -72l-45 -177h143z" />
    <glyph glyph-name="Amacron" unicode="&#x100;" horiz-adv-x="668" 
d="M491 774h-310v110h310v-110zM440 164h-211l-42 -164h-191l188 641c8 30 33 49 64 49h173c31 0 56 -19 64 -49l188 -641h-191zM406 300l-45 177c-5 23 -10 49 -13 72h-27c-3 -23 -8 -49 -13 -72l-45 -177h143z" />
    <glyph glyph-name="Aogonek" unicode="&#x104;" horiz-adv-x="668" 
d="M674 -128l13 -64c-155 -59 -212 12 -188 84c11 32 41 71 100 108h-117l-42 164h-211l-42 -164h-191l188 641c8 30 33 49 64 49h173c31 0 56 -19 64 -49l188 -641c-19 -30 -37 -57 -53 -93c-18 -39 11 -44 54 -35zM406 300l-45 177c-5 23 -10 49 -13 72h-27
c-3 -23 -8 -49 -13 -72l-45 -177h143z" />
    <glyph glyph-name="Aring" unicode="&#xc5;" horiz-adv-x="668" 
d="M335 713c-68 0 -124 53 -124 121c0 67 57 120 124 120s124 -53 124 -120c0 -68 -56 -121 -124 -121zM335 882c-26 0 -47 -21 -47 -48c0 -28 21 -48 47 -48s47 20 47 48c0 27 -21 48 -47 48zM440 164h-211l-42 -164h-191l188 641c8 30 33 49 64 49h173c31 0 56 -19 64 -49
l188 -641h-191zM406 300l-45 177c-5 23 -10 49 -13 72h-27c-3 -23 -8 -49 -13 -72l-45 -177h143z" />
    <glyph glyph-name="Atilde" unicode="&#xc3;" horiz-adv-x="668" 
d="M228 754h-76c-19 110 31 160 83 156c67 -5 111 -35 165 -45c31 -5 33 8 33 40h76c18 -103 -23 -160 -83 -156c-68 5 -120 38 -166 46c-31 5 -32 -8 -32 -41zM440 164h-211l-42 -164h-191l188 641c8 30 33 49 64 49h173c31 0 56 -19 64 -49l188 -641h-191zM406 300
l-45 177c-5 23 -10 49 -13 72h-27c-3 -23 -8 -49 -13 -72l-45 -177h143z" />
    <glyph glyph-name="AE" unicode="&#xc6;" horiz-adv-x="944" 
d="M901 141l9 -133c-102 -11 -220 -11 -330 -11c-86 0 -139 61 -139 148v29h-185l-79 -174h-192l263 545c50 106 113 147 325 147c127 0 223 -1 337 -10l-9 -133h-240c-26 0 -45 -18 -45 -44v-88h250v-122h-250v-111c0 -28 15 -43 45 -43h240zM441 307v205c0 22 8 47 19 64
h-13c-11 -12 -22 -32 -31 -48l-100 -221h125z" />
    <glyph glyph-name="B" unicode="B" horiz-adv-x="650" 
d="M470 361v-6c108 -9 146 -73 146 -183c0 -142 -74 -180 -243 -180c-141 0 -220 1 -313 8v690c84 7 156 8 281 8c186 0 252 -38 252 -180c0 -99 -35 -149 -123 -157zM414 492c0 60 -18 74 -83 74h-87v-151h92c61 0 78 15 78 77zM244 124h96c70 0 88 16 88 85
c0 73 -18 91 -90 91h-94v-176z" />
    <glyph glyph-name="C" unicode="C" horiz-adv-x="596" 
d="M341 702c103 0 152 -7 218 -25l-14 -138c-68 2 -112 3 -204 3c-82 0 -105 -42 -105 -197s23 -197 105 -197c97 0 154 1 218 8l15 -137c-67 -23 -129 -31 -233 -31c-221 0 -302 94 -302 357s81 357 302 357z" />
    <glyph glyph-name="Cacute" unicode="&#x106;" horiz-adv-x="596" 
d="M536 827l-241 -106l-51 76l218 149zM342 702c103 0 151 -7 218 -25l-15 -138c-67 2 -112 3 -203 3c-83 0 -106 -42 -106 -197s23 -197 106 -197c96 0 154 1 218 8l14 -137c-67 -23 -128 -31 -232 -31c-222 0 -303 94 -303 357s81 357 303 357z" />
    <glyph glyph-name="Ccaron" unicode="&#x10c;" horiz-adv-x="596" 
d="M532 868l-158 -131h-73l-159 131l46 69l145 -78h8l146 78zM342 702c103 0 151 -7 218 -25l-15 -138c-67 2 -112 3 -203 3c-83 0 -106 -42 -106 -197s23 -197 106 -197c96 0 154 1 218 8l14 -137c-67 -23 -128 -31 -232 -31c-222 0 -303 94 -303 357s81 357 303 357z" />
    <glyph glyph-name="Ccedilla" unicode="&#xc7;" horiz-adv-x="596" 
d="M342 702c103 0 151 -7 218 -25l-15 -138c-67 2 -112 3 -203 3c-83 0 -106 -42 -106 -197s23 -197 106 -197c96 0 154 1 218 8l14 -137c-67 -23 -128 -31 -232 -31c-222 0 -303 94 -303 357s81 357 303 357zM244 -127l17 66c114 12 165 11 161 -65
c-4 -109 -100 -158 -218 -142l20 72c45 0 83 10 87 54c1 16 -8 15 -67 15z" />
    <glyph glyph-name="Cdotaccent" unicode="&#x10a;" horiz-adv-x="596" 
d="M311 901h55c34 0 51 -16 51 -49v-50c0 -33 -17 -50 -51 -50h-55c-35 0 -52 17 -52 50v50c0 33 17 49 52 49zM342 702c103 0 151 -7 218 -25l-15 -138c-67 2 -112 3 -203 3c-83 0 -106 -42 -106 -197s23 -197 106 -197c96 0 154 1 218 8l14 -137
c-67 -23 -128 -31 -232 -31c-222 0 -303 94 -303 357s81 357 303 357z" />
    <glyph glyph-name="D" unicode="D" horiz-adv-x="691" 
d="M343 700c228 0 309 -78 309 -355s-81 -355 -309 -355c-110 0 -200 4 -283 10v690c84 5 171 10 283 10zM343 131c87 0 111 44 111 214s-24 215 -111 215h-95v-428c29 -1 61 -1 95 -1z" />
    <glyph glyph-name="Eth" unicode="&#xd0;" horiz-adv-x="693" 
d="M345 700c227 0 309 -78 309 -355s-82 -355 -309 -355c-111 0 -200 4 -284 10v313h-50v92h50v285c85 5 171 10 284 10zM345 131c86 0 111 44 111 214s-25 215 -111 215h-96v-155h111v-92h-111v-181c29 -1 62 -1 96 -1z" />
    <glyph glyph-name="Dcaron" unicode="&#x10e;" horiz-adv-x="691" 
d="M303 737l-159 131l46 69l145 -78h8l146 78l45 -69l-158 -131h-73zM343 700c228 0 309 -78 309 -355s-81 -355 -309 -355c-110 0 -200 4 -283 10v690c84 5 171 10 283 10zM343 131c87 0 111 44 111 214s-24 215 -111 215h-95v-428c29 -1 61 -1 95 -1z" />
    <glyph glyph-name="Dcroat" unicode="&#x110;" horiz-adv-x="693" 
d="M345 700c227 0 309 -78 309 -355s-82 -355 -309 -355c-111 0 -200 4 -284 10v313h-50v92h50v285c85 5 171 10 284 10zM345 131c86 0 111 44 111 214s-25 215 -111 215h-96v-155h111v-92h-111v-181c29 -1 62 -1 96 -1z" />
    <glyph glyph-name="E" unicode="E" horiz-adv-x="587" 
d="M545 143l9 -135c-98 -11 -228 -11 -342 -11c-94 0 -157 59 -157 148v400c0 89 64 148 157 148c114 0 244 0 342 -11l-9 -135h-259c-28 0 -43 -15 -43 -43v-84h265v-129h-265v-105c0 -28 15 -43 43 -43h259z" />
    <glyph glyph-name="Eacute" unicode="&#xc9;" horiz-adv-x="587" 
d="M277 727l-51 76l218 149l74 -119zM545 143l9 -135c-97 -11 -228 -11 -342 -11c-93 0 -157 59 -157 148v400c0 89 64 148 157 148c114 0 245 0 342 -11l-9 -135h-258c-29 0 -44 -15 -44 -43v-84h266v-129h-266v-105c0 -28 15 -43 44 -43h258z" />
    <glyph glyph-name="Ecaron" unicode="&#x11a;" horiz-adv-x="587" 
d="M283 742l-159 131l46 69l145 -78h8l146 78l45 -69l-158 -131h-73zM545 143l9 -135c-97 -11 -228 -11 -342 -11c-93 0 -157 59 -157 148v400c0 89 64 148 157 148c114 0 245 0 342 -11l-9 -135h-258c-29 0 -44 -15 -44 -43v-84h266v-129h-266v-105c0 -28 15 -43 44 -43
h258z" />
    <glyph glyph-name="Ecircumflex" unicode="&#xca;" horiz-adv-x="587" 
d="M163 720l-46 68l138 133h131l134 -138l-45 -63l-151 94h-8zM545 143l9 -135c-97 -11 -228 -11 -342 -11c-93 0 -157 59 -157 148v400c0 89 64 148 157 148c114 0 245 0 342 -11l-9 -135h-258c-29 0 -44 -15 -44 -43v-84h266v-129h-266v-105c0 -28 15 -43 44 -43h258z" />
    <glyph glyph-name="Edieresis" unicode="&#xcb;" horiz-adv-x="587" 
d="M254 768h-59c-24 0 -36 12 -36 37v60c0 24 12 36 36 36h59c25 0 36 -12 36 -36v-60c0 -25 -11 -37 -36 -37zM440 768h-59c-25 0 -37 12 -37 37v60c0 24 12 36 37 36h59c24 0 36 -12 36 -36v-60c0 -25 -12 -37 -36 -37zM545 143l9 -135c-97 -11 -228 -11 -342 -11
c-93 0 -157 59 -157 148v400c0 89 64 148 157 148c114 0 245 0 342 -11l-9 -135h-258c-29 0 -44 -15 -44 -43v-84h266v-129h-266v-105c0 -28 15 -43 44 -43h258z" />
    <glyph glyph-name="Edotaccent" unicode="&#x116;" horiz-adv-x="587" 
d="M348 757h-55c-35 0 -52 17 -52 50v50c0 33 17 49 52 49h55c34 0 51 -16 51 -49v-50c0 -33 -17 -50 -51 -50zM545 143l9 -135c-97 -11 -228 -11 -342 -11c-93 0 -157 59 -157 148v400c0 89 64 148 157 148c114 0 245 0 342 -11l-9 -135h-258c-29 0 -44 -15 -44 -43v-84
h266v-129h-266v-105c0 -28 15 -43 44 -43h258z" />
    <glyph glyph-name="Egrave" unicode="&#xc8;" horiz-adv-x="587" 
d="M355 727l-241 106l74 119l218 -149zM545 143l9 -135c-97 -11 -228 -11 -342 -11c-93 0 -157 59 -157 148v400c0 89 64 148 157 148c114 0 245 0 342 -11l-9 -135h-258c-29 0 -44 -15 -44 -43v-84h266v-129h-266v-105c0 -28 15 -43 44 -43h258z" />
    <glyph glyph-name="Emacron" unicode="&#x112;" horiz-adv-x="587" 
d="M475 780h-310v110h310v-110zM545 143l9 -135c-97 -11 -228 -11 -342 -11c-93 0 -157 59 -157 148v400c0 89 64 148 157 148c114 0 245 0 342 -11l-9 -135h-258c-29 0 -44 -15 -44 -43v-84h266v-129h-266v-105c0 -28 15 -43 44 -43h258z" />
    <glyph glyph-name="Eogonek" unicode="&#x118;" horiz-adv-x="587" 
d="M555 -120l13 -64c-155 -59 -212 12 -188 84c10 30 37 66 90 101c-82 -4 -175 -4 -258 -4c-93 0 -157 59 -157 148v400c0 89 64 148 157 148c114 0 245 0 342 -11l-9 -135h-258c-29 0 -44 -15 -44 -43v-84h266v-129h-266v-105c0 -28 15 -43 44 -43h258l9 -135
c-19 -30 -37 -57 -53 -93c-18 -39 11 -44 54 -35z" />
    <glyph glyph-name="F" unicode="F" horiz-adv-x="565" 
d="M538 547h-244c-32 0 -48 -15 -48 -43v-97h255v-130h-255v-277h-188v543c0 91 65 150 159 150c110 0 237 0 330 -12z" />
    <glyph glyph-name="G" unicode="G" horiz-adv-x="658" 
d="M613 397v-397h-138l-17 70c-33 -38 -100 -84 -194 -84c-157 0 -225 103 -225 360c0 268 84 358 318 358c96 0 160 -8 230 -27l-15 -136c-72 2 -135 3 -213 3c-94 0 -123 -32 -123 -200c0 -155 24 -197 100 -197c38 0 71 8 97 17v233h180z" />
    <glyph glyph-name="Gbreve" unicode="&#x11e;" horiz-adv-x="658" 
d="M346 739c-117 0 -186 76 -173 162l85 12c0 -43 26 -62 88 -62c61 0 87 19 87 62l85 -12c13 -86 -55 -162 -172 -162zM613 397v-397h-138l-17 70c-33 -38 -100 -84 -194 -84c-157 0 -225 103 -225 360c0 268 85 358 318 358c97 0 160 -8 230 -27l-14 -136
c-73 2 -135 3 -214 3c-94 0 -123 -32 -123 -200c0 -155 24 -197 100 -197c39 0 71 8 97 17v233h180z" />
    <glyph glyph-name="Gcommaaccent" unicode="&#x122;" horiz-adv-x="658" 
d="M613 397v-397h-138l-17 70c-33 -38 -100 -84 -194 -84c-157 0 -225 103 -225 360c0 268 85 358 318 358c97 0 160 -8 230 -27l-14 -136c-73 2 -135 3 -214 3c-94 0 -123 -32 -123 -200c0 -155 24 -197 100 -197c39 0 71 8 97 17v233h180zM327 -49h34c43 0 57 -12 57 -49
v-50c0 -70 -20 -111 -54 -153l-64 17c12 34 15 67 15 103c-31 0 -47 16 -47 43l2 40c1 37 15 49 57 49z" />
    <glyph glyph-name="Gdotaccent" unicode="&#x120;" horiz-adv-x="658" 
d="M374 752h-55c-35 0 -52 17 -52 50v50c0 33 17 49 52 49h55c34 0 51 -16 51 -49v-50c0 -33 -17 -50 -51 -50zM613 397v-397h-138l-17 70c-33 -38 -100 -84 -194 -84c-157 0 -225 103 -225 360c0 268 85 358 318 358c97 0 160 -8 230 -27l-14 -136c-73 2 -135 3 -214 3
c-94 0 -123 -32 -123 -200c0 -155 24 -197 100 -197c39 0 71 8 97 17v233h180z" />
    <glyph glyph-name="H" unicode="H" horiz-adv-x="702" 
d="M642 690v-690h-188v298h-206v-298h-187v690h187v-255h206v255h188z" />
    <glyph glyph-name="Hbar" unicode="&#x126;" horiz-adv-x="705" 
d="M698 510h-55v-510h-188v298h-205v-298h-188v510h-54v84h54v96h188v-96h205v96h188v-96h55v-84zM455 510h-205v-75h205v75z" />
    <glyph glyph-name="I" unicode="I" horiz-adv-x="308" 
d="M247 0h-186v690h186v-690z" />
    <glyph glyph-name="IJ" unicode="&#x132;" horiz-adv-x="696" 
d="M247 0h-186v690h186v-690zM638 690v-555c0 -95 -64 -148 -170 -148c-40 0 -114 8 -145 23l20 121h47c42 0 62 13 62 43v516h186z" />
    <glyph glyph-name="Iacute" unicode="&#xcd;" horiz-adv-x="308" 
d="M353 827l-241 -106l-51 76l218 149zM247 0h-186v690h186v-690z" />
    <glyph glyph-name="Icircumflex" unicode="&#xce;" horiz-adv-x="308" 
d="M355 777l-45 -63l-151 94h-8l-153 -94l-46 68l138 133h131zM247 0h-186v690h186v-690z" />
    <glyph glyph-name="Idieresis" unicode="&#xcf;" horiz-adv-x="308" 
d="M30 895h59c25 0 36 -12 36 -36v-60c0 -25 -11 -37 -36 -37h-59c-24 0 -36 12 -36 37v60c0 24 12 36 36 36zM216 895h59c24 0 36 -12 36 -36v-60c0 -25 -12 -37 -36 -37h-59c-25 0 -37 12 -37 37v60c0 24 12 36 37 36zM247 0h-186v690h186v-690z" />
    <glyph glyph-name="Idotaccent" unicode="&#x130;" horiz-adv-x="308" 
d="M128 901h55c34 0 51 -16 51 -49v-50c0 -33 -17 -50 -51 -50h-55c-35 0 -52 17 -52 50v50c0 33 17 49 52 49zM247 0h-186v690h186v-690z" />
    <glyph glyph-name="Igrave" unicode="&#xcc;" horiz-adv-x="308" 
d="M241 797l-51 -76l-241 106l74 119zM247 0h-186v690h186v-690z" />
    <glyph glyph-name="Imacron" unicode="&#x12a;" horiz-adv-x="308" 
d="M310 774h-310v110h310v-110zM247 0h-186v690h186v-690z" />
    <glyph glyph-name="Iogonek" unicode="&#x12e;" horiz-adv-x="308" 
d="M247 0h-23c-19 -30 -37 -57 -53 -93c-18 -39 11 -44 54 -35l13 -64c-155 -59 -212 12 -188 84c11 32 41 71 100 108h-89v690h186v-690z" />
    <glyph glyph-name="J" unicode="J" horiz-adv-x="388" 
d="M330 690v-555c0 -95 -64 -148 -170 -148c-40 0 -114 8 -145 23l20 121h47c42 0 62 13 62 43v516h186z" />
    <glyph glyph-name="K" unicode="K" horiz-adv-x="656" 
d="M288 295h-48c5 -22 8 -45 8 -64v-231h-187v690h187v-183c0 -28 -3 -58 -8 -86h47l158 269h202l-167 -272c-16 -28 -37 -47 -56 -59v-3c19 -11 49 -38 64 -65l170 -291h-208z" />
    <glyph glyph-name="Kcommaaccent" unicode="&#x136;" horiz-adv-x="656" 
d="M659 0h-209l-162 295h-47c5 -22 8 -45 8 -64v-231h-188v690h188v-183c0 -28 -3 -58 -9 -86h47l159 269h202l-168 -272c-16 -28 -37 -47 -56 -59v-3c20 -11 49 -38 64 -65zM323 -49h34c43 0 57 -12 57 -49v-50c0 -70 -20 -111 -54 -153l-64 17c12 34 15 67 15 103
c-31 0 -47 16 -47 43l2 40c1 37 15 49 57 49z" />
    <glyph glyph-name="L" unicode="L" horiz-adv-x="546" 
d="M246 690v-497c0 -28 15 -43 47 -43h234l9 -141c-98 -12 -210 -12 -317 -12c-105 0 -161 62 -161 152v541h188z" />
    <glyph glyph-name="Lacute" unicode="&#x139;" horiz-adv-x="546" 
d="M355 827l-241 -106l-51 76l218 149zM246 690v-497c0 -28 15 -43 47 -43h234l9 -141c-98 -12 -210 -12 -317 -12c-105 0 -161 62 -161 152v541h188z" />
    <glyph glyph-name="Lcaron" unicode="&#x13d;" horiz-adv-x="546" 
d="M375 691h34c43 0 57 -12 57 -49v-50c0 -70 -20 -111 -54 -153l-64 17c12 34 15 67 15 103c-31 0 -47 16 -47 43l2 40c1 37 15 49 57 49zM246 690v-497c0 -28 15 -43 47 -43h234l9 -141c-98 -12 -210 -12 -317 -12c-105 0 -161 62 -161 152v541h188z" />
    <glyph glyph-name="Lcommaaccent" unicode="&#x13b;" horiz-adv-x="546" 
d="M246 690v-497c0 -28 15 -43 47 -43h234l9 -141c-98 -12 -210 -12 -317 -12c-105 0 -161 62 -161 152v541h188zM277 -49h34c43 0 57 -12 57 -49v-50c0 -70 -20 -111 -54 -153l-64 17c12 34 15 67 15 103c-31 0 -47 16 -47 43l2 40c1 37 15 49 57 49z" />
    <glyph glyph-name="Ldot" unicode="&#x13f;" horiz-adv-x="546" 
d="M246 690v-497c0 -28 15 -43 47 -43h234l9 -141c-98 -12 -210 -12 -317 -12c-105 0 -161 62 -161 152v541h188zM452 343h-55c-34 0 -51 16 -51 49v50c0 33 17 50 51 50h55c35 0 52 -17 52 -50v-50c0 -33 -17 -49 -52 -49z" />
    <glyph glyph-name="Lslash" unicode="&#x141;" horiz-adv-x="548" 
d="M529 150l9 -141c-98 -12 -210 -12 -317 -12c-105 0 -161 62 -161 152v147l-50 -19v94l50 19v300h188v-226l106 41v-94l-106 -41v-177c0 -28 15 -43 47 -43h234z" />
    <glyph glyph-name="M" unicode="M" horiz-adv-x="933" 
d="M622 690h171c45 0 66 -23 68 -67l25 -623h-172l-22 547h-16l-84 -386c-7 -38 -32 -58 -73 -58h-106c-41 0 -66 20 -74 58l-85 386h-16l-18 -547h-172l24 623c2 44 24 67 68 67h168c40 0 65 -20 73 -59l65 -306c6 -33 10 -67 14 -100h11c5 33 9 67 15 101l63 305
c8 39 33 59 73 59z" />
    <glyph glyph-name="N" unicode="N" horiz-adv-x="731" 
d="M671 690v-624c0 -43 -22 -66 -65 -66h-89c-39 0 -54 19 -73 55l-164 296c-17 32 -34 75 -45 113h-8c5 -39 8 -80 8 -118v-346h-175v624c0 43 23 66 66 66h88c39 0 53 -19 73 -55l158 -285c18 -32 36 -73 52 -115h8c-4 41 -7 80 -7 121l-1 334h174z" />
    <glyph glyph-name="Nacute" unicode="&#x143;" horiz-adv-x="731" 
d="M572 827l-241 -106l-51 76l218 149zM671 690v-624c0 -43 -22 -66 -65 -66h-89c-39 0 -54 19 -73 55l-164 296c-17 32 -34 75 -45 113h-8c5 -39 8 -80 8 -118v-346h-175v624c0 43 23 66 66 66h88c39 0 53 -19 73 -55l158 -285c18 -32 36 -73 52 -115h8c-4 41 -7 80 -7 121
l-1 334h174z" />
    <glyph glyph-name="Ncaron" unicode="&#x147;" horiz-adv-x="731" 
d="M568 868l-158 -131h-73l-159 131l46 69l145 -78h8l146 78zM671 690v-624c0 -43 -22 -66 -65 -66h-89c-39 0 -54 19 -73 55l-164 296c-17 32 -34 75 -45 113h-8c5 -39 8 -80 8 -118v-346h-175v624c0 43 23 66 66 66h88c39 0 53 -19 73 -55l158 -285c18 -32 36 -73 52 -115
h8c-4 41 -7 80 -7 121l-1 334h174z" />
    <glyph glyph-name="Ncommaaccent" unicode="&#x145;" horiz-adv-x="731" 
d="M671 690v-624c0 -43 -22 -66 -65 -66h-89c-39 0 -54 19 -73 55l-164 296c-17 32 -34 75 -45 113h-8c5 -39 8 -80 8 -118v-346h-175v624c0 43 23 66 66 66h88c39 0 53 -19 73 -55l158 -285c18 -32 36 -73 52 -115h8c-4 41 -7 80 -7 121l-1 334h174zM352 -49h34
c43 0 57 -12 57 -49v-50c0 -70 -20 -111 -54 -153l-64 17c12 34 15 67 15 103c-31 0 -47 16 -47 43l2 40c1 37 15 49 57 49z" />
    <glyph glyph-name="Eng" unicode="&#x14a;" horiz-adv-x="732" 
d="M671 690v-733c0 -104 -57 -164 -143 -164c-36 0 -95 7 -131 23l20 118h38c34 0 52 12 52 38v35h-13c-11 0 -27 23 -41 47l-173 292c-19 31 -33 75 -46 113h-7c5 -38 8 -74 8 -112v-347h-175v624c0 43 23 66 66 66h81c39 0 55 -19 75 -55l163 -280c15 -27 35 -70 51 -115
h8c-5 40 -8 79 -8 119v331h175z" />
    <glyph glyph-name="Ntilde" unicode="&#xd1;" horiz-adv-x="731" 
d="M273 910c67 -5 111 -35 165 -45c31 -5 33 8 33 40h76c18 -103 -23 -160 -83 -156c-68 5 -120 38 -166 46c-31 5 -32 -8 -32 -41h-76c-19 110 31 160 83 156zM671 690v-624c0 -43 -22 -66 -65 -66h-89c-39 0 -54 19 -73 55l-164 296c-17 32 -34 75 -45 113h-8
c5 -39 8 -80 8 -118v-346h-175v624c0 43 23 66 66 66h88c39 0 53 -19 73 -55l158 -285c18 -32 36 -73 52 -115h8c-4 41 -7 80 -7 121l-1 334h174z" />
    <glyph glyph-name="O" unicode="O" horiz-adv-x="697" 
d="M348 704c228 0 310 -78 310 -359s-82 -359 -310 -359s-309 78 -309 359s81 359 309 359zM348 560c-88 0 -112 -45 -112 -215s24 -215 112 -215s112 45 112 215s-24 215 -112 215z" />
    <glyph glyph-name="Oacute" unicode="&#xd3;" horiz-adv-x="697" 
d="M546 827l-241 -106l-51 76l218 149zM348 704c229 0 311 -78 311 -359s-82 -359 -311 -359c-227 0 -309 78 -309 359s82 359 309 359zM348 560c-87 0 -112 -45 -112 -215s25 -215 112 -215c88 0 112 45 112 215s-24 215 -112 215z" />
    <glyph glyph-name="Ocircumflex" unicode="&#xd4;" horiz-adv-x="697" 
d="M548 777l-45 -63l-151 94h-8l-153 -94l-46 68l138 133h131zM348 704c229 0 311 -78 311 -359s-82 -359 -311 -359c-227 0 -309 78 -309 359s82 359 309 359zM348 560c-87 0 -112 -45 -112 -215s25 -215 112 -215c88 0 112 45 112 215s-24 215 -112 215z" />
    <glyph glyph-name="Odieresis" unicode="&#xd6;" horiz-adv-x="697" 
d="M224 895h59c25 0 36 -12 36 -36v-60c0 -25 -11 -37 -36 -37h-59c-24 0 -36 12 -36 37v60c0 24 12 36 36 36zM410 895h59c24 0 36 -12 36 -36v-60c0 -25 -12 -37 -36 -37h-59c-25 0 -37 12 -37 37v60c0 24 12 36 37 36zM348 704c229 0 311 -78 311 -359
s-82 -359 -311 -359c-227 0 -309 78 -309 359s82 359 309 359zM348 560c-87 0 -112 -45 -112 -215s25 -215 112 -215c88 0 112 45 112 215s-24 215 -112 215z" />
    <glyph glyph-name="Ograve" unicode="&#xd2;" horiz-adv-x="697" 
d="M435 797l-51 -76l-241 106l74 119zM348 704c229 0 311 -78 311 -359s-82 -359 -311 -359c-227 0 -309 78 -309 359s82 359 309 359zM348 560c-87 0 -112 -45 -112 -215s25 -215 112 -215c88 0 112 45 112 215s-24 215 -112 215z" />
    <glyph glyph-name="Ohungarumlaut" unicode="&#x150;" horiz-adv-x="697" 
d="M395 882l-162 -172l-72 58l119 190zM598 882l-162 -172l-72 58l119 190zM348 704c229 0 311 -78 311 -359s-82 -359 -311 -359c-227 0 -309 78 -309 359s82 359 309 359zM348 560c-87 0 -112 -45 -112 -215s25 -215 112 -215c88 0 112 45 112 215s-24 215 -112 215z" />
    <glyph glyph-name="Omacron" unicode="&#x14c;" horiz-adv-x="697" 
d="M503 774h-310v110h310v-110zM348 704c229 0 311 -78 311 -359s-82 -359 -311 -359c-227 0 -309 78 -309 359s82 359 309 359zM348 560c-87 0 -112 -45 -112 -215s25 -215 112 -215c88 0 112 45 112 215s-24 215 -112 215z" />
    <glyph glyph-name="Oslash" unicode="&#xd8;" horiz-adv-x="697" 
d="M616 734l-41 -90c59 -52 84 -145 84 -299c0 -281 -82 -359 -311 -359c-30 0 -57 1 -82 4l-49 -104l-140 67l45 94c-59 53 -83 145 -83 298c0 281 82 359 309 359c30 0 57 -1 82 -4l46 100zM348 130c88 0 112 45 112 215s-24 215 -112 215c-87 0 -112 -45 -112 -215
s25 -215 112 -215z" />
    <glyph glyph-name="Otilde" unicode="&#xd5;" horiz-adv-x="697" 
d="M248 910c67 -5 111 -35 165 -45c31 -5 33 8 33 40h76c18 -103 -23 -160 -83 -156c-68 5 -120 38 -166 46c-31 5 -32 -8 -32 -41h-76c-19 110 31 160 83 156zM348 704c229 0 311 -78 311 -359s-82 -359 -311 -359c-227 0 -309 78 -309 359s82 359 309 359zM348 560
c-87 0 -112 -45 -112 -215s25 -215 112 -215c88 0 112 45 112 215s-24 215 -112 215z" />
    <glyph glyph-name="OE" unicode="&#x152;" horiz-adv-x="965" 
d="M923 143l9 -135c-96 -11 -226 -11 -339 -11c-31 0 -58 8 -81 22c-49 -23 -100 -33 -167 -33c-225 0 -306 78 -306 359s81 359 306 359c71 0 125 -9 177 -28c22 11 47 17 74 17c112 0 241 0 336 -11l-9 -135h-244c-30 0 -45 -15 -45 -43v-87h254v-122h-254v-109
c0 -28 15 -43 45 -43h244zM237 345c0 -170 23 -215 108 -215c46 0 76 4 100 11v8v392v10c-25 6 -54 9 -100 9c-85 0 -108 -44 -108 -215z" />
    <glyph glyph-name="P" unicode="P" horiz-adv-x="632" 
d="M338 700c207 0 271 -50 271 -231c0 -180 -64 -230 -245 -230c-39 0 -79 3 -116 7v-246h-188v690c88 9 147 10 278 10zM248 376h86c68 0 87 19 87 93c0 75 -19 94 -87 94h-86v-187z" />
    <glyph glyph-name="Thorn" unicode="&#xde;" horiz-adv-x="623" 
d="M249 576h85c202 0 265 -50 265 -232c0 -180 -63 -230 -240 -230c-37 0 -75 2 -110 6v-120h-188v690h188v-114zM249 251h80c64 0 82 19 82 93c0 77 -18 95 -82 95h-80v-188z" />
    <glyph glyph-name="Q" unicode="Q" horiz-adv-x="697" 
d="M348 704c229 0 310 -78 310 -359s-81 -359 -310 -359c-227 0 -309 78 -309 359s82 359 309 359zM348 560c-87 0 -112 -45 -112 -215s25 -215 112 -215c88 0 112 45 112 215s-24 215 -112 215zM252 -123l41 93c96 -35 196 -54 316 -71l-48 -158c-129 35 -231 84 -309 136z
" />
    <glyph glyph-name="R" unicode="R" horiz-adv-x="661" 
d="M641 0h-197l-49 208c-10 40 -27 52 -65 52h-85v-260h-185v690c88 9 148 10 279 10c193 0 275 -48 275 -208c0 -89 -33 -156 -136 -167v-6c37 -6 90 -27 106 -106zM245 397h90c71 0 90 17 90 83s-19 83 -90 83h-90v-166z" />
    <glyph glyph-name="Racute" unicode="&#x154;" horiz-adv-x="661" 
d="M287 721l-51 76l218 149l74 -119zM641 0h-197l-49 208c-10 40 -27 52 -65 52h-85v-260h-185v690c88 9 148 10 279 10c193 0 275 -48 275 -208c0 -89 -33 -156 -136 -167v-6c37 -6 90 -27 106 -106zM245 397h90c71 0 90 17 90 83s-19 83 -90 83h-90v-166z" />
    <glyph glyph-name="Rcaron" unicode="&#x158;" horiz-adv-x="661" 
d="M293 737l-159 131l46 69l145 -78h8l146 78l45 -69l-158 -131h-73zM641 0h-197l-49 208c-10 40 -27 52 -65 52h-85v-260h-185v690c88 9 148 10 279 10c193 0 275 -48 275 -208c0 -89 -33 -156 -136 -167v-6c37 -6 90 -27 106 -106zM245 397h90c71 0 90 17 90 83
s-19 83 -90 83h-90v-166z" />
    <glyph glyph-name="Rcommaaccent" unicode="&#x156;" horiz-adv-x="661" 
d="M641 0h-197l-49 208c-10 40 -27 52 -65 52h-85v-260h-185v690c88 9 148 10 279 10c193 0 275 -48 275 -208c0 -89 -33 -156 -136 -167v-6c37 -6 90 -27 106 -106zM245 397h90c71 0 90 17 90 83s-19 83 -90 83h-90v-166zM325 -49h34c43 0 57 -12 57 -49v-50
c0 -70 -20 -111 -54 -153l-64 17c12 34 15 67 15 103c-31 0 -47 16 -47 43l2 40c1 37 15 49 57 49z" />
    <glyph glyph-name="S" unicode="S" horiz-adv-x="597" 
d="M305 703c70 0 160 -5 240 -31l-12 -123c-59 1 -150 3 -230 3c-61 0 -81 -5 -81 -43c0 -32 17 -44 66 -61l127 -49c113 -45 151 -106 151 -207c0 -156 -67 -205 -270 -205c-46 0 -140 2 -253 30l11 133c123 -3 200 -5 241 -5c66 0 83 8 83 43c0 33 -14 43 -55 58l-138 55
c-109 44 -149 103 -149 205c0 158 74 197 269 197z" />
    <glyph glyph-name="Sacute" unicode="&#x15a;" horiz-adv-x="597" 
d="M503 827l-241 -106l-51 76l218 149zM305 703c70 0 160 -5 240 -31l-11 -123c-59 1 -151 3 -231 3c-61 0 -80 -5 -80 -43c0 -32 16 -44 65 -61l128 -49c113 -45 150 -106 150 -207c0 -156 -67 -205 -270 -205c-45 0 -140 2 -253 30l11 133c123 -3 201 -5 241 -5
c66 0 83 8 83 43c0 33 -14 43 -55 58l-138 55c-109 44 -149 103 -149 205c0 158 75 197 269 197z" />
    <glyph glyph-name="Scaron" unicode="&#x160;" horiz-adv-x="597" 
d="M499 868l-158 -131h-73l-159 131l46 69l145 -78h8l146 78zM305 703c70 0 160 -5 240 -31l-11 -123c-59 1 -151 3 -231 3c-61 0 -80 -5 -80 -43c0 -32 16 -44 65 -61l128 -49c113 -45 150 -106 150 -207c0 -156 -67 -205 -270 -205c-45 0 -140 2 -253 30l11 133
c123 -3 201 -5 241 -5c66 0 83 8 83 43c0 33 -14 43 -55 58l-138 55c-109 44 -149 103 -149 205c0 158 75 197 269 197z" />
    <glyph glyph-name="Scedilla" unicode="&#x15e;" horiz-adv-x="597" 
d="M305 703c70 0 160 -5 240 -31l-11 -123c-59 1 -151 3 -231 3c-61 0 -80 -5 -80 -43c0 -32 16 -44 65 -61l128 -49c113 -45 150 -106 150 -207c0 -156 -67 -205 -270 -205c-45 0 -140 2 -253 30l11 133c123 -3 201 -5 241 -5c66 0 83 8 83 43c0 33 -14 43 -55 58l-138 55
c-109 44 -149 103 -149 205c0 158 75 197 269 197zM220 -129l17 66c114 12 165 11 161 -65c-4 -109 -100 -158 -218 -142l20 72c45 0 83 10 87 54c1 16 -8 15 -67 15z" />
    <glyph glyph-name="Scommaaccent" unicode="&#x218;" horiz-adv-x="597" 
d="M305 703c70 0 160 -5 240 -31l-11 -123c-59 1 -151 3 -231 3c-61 0 -80 -5 -80 -43c0 -32 16 -44 65 -61l128 -49c113 -45 150 -106 150 -207c0 -156 -67 -205 -270 -205c-45 0 -140 2 -253 30l11 133c123 -3 201 -5 241 -5c66 0 83 8 83 43c0 33 -14 43 -55 58l-138 55
c-109 44 -149 103 -149 205c0 158 75 197 269 197zM260 -49h34c43 0 57 -12 57 -49v-50c0 -70 -20 -111 -54 -153l-64 17c12 34 15 67 15 103c-31 0 -47 16 -47 43l2 40c1 37 15 49 57 49z" />
    <glyph glyph-name="T" unicode="T" horiz-adv-x="613" 
d="M599 545h-199v-545h-188v545h-198v145h585v-145z" />
    <glyph glyph-name="Tbar" unicode="&#x166;" horiz-adv-x="616" 
d="M402 545v-139h121v-85h-121v-321h-188v321h-122v85h122v139h-199v145h586v-145h-199z" />
    <glyph glyph-name="Tcaron" unicode="&#x164;" horiz-adv-x="613" 
d="M270 737l-159 131l46 69l145 -78h8l146 78l45 -69l-158 -131h-73zM600 545h-200v-545h-188v545h-198v145h586v-145z" />
    <glyph glyph-name="Tcedilla" unicode="&#x162;" horiz-adv-x="613" 
d="M600 545h-200v-545h-188v545h-198v145h586v-145zM220 -115l17 66c114 12 165 11 161 -65c-4 -109 -100 -158 -218 -142l20 72c45 0 83 10 87 54c1 16 -8 15 -67 15z" />
    <glyph glyph-name="uni021A" unicode="&#x21a;" horiz-adv-x="613" 
d="M600 545h-200v-545h-188v545h-198v145h586v-145zM282 -49h34c43 0 57 -12 57 -49v-50c0 -70 -20 -111 -54 -153l-64 17c12 34 15 67 15 103c-31 0 -47 16 -47 43l2 40c1 37 15 49 57 49z" />
    <glyph glyph-name="U" unicode="U" horiz-adv-x="694" 
d="M639 690v-410c0 -215 -75 -294 -282 -294c-222 0 -302 79 -302 294v410h188v-410c0 -118 24 -150 104 -150s104 32 104 150v410h188z" />
    <glyph glyph-name="Uacute" unicode="&#xda;" horiz-adv-x="694" 
d="M546 827l-241 -106l-51 76l218 149zM639 690v-410c0 -215 -75 -294 -282 -294c-222 0 -302 79 -302 294v410h188v-410c0 -118 24 -150 104 -150s104 32 104 150v410h188z" />
    <glyph glyph-name="Ucircumflex" unicode="&#xdb;" horiz-adv-x="694" 
d="M548 777l-45 -63l-151 94h-8l-153 -94l-46 68l138 133h131zM639 690v-410c0 -215 -75 -294 -282 -294c-222 0 -302 79 -302 294v410h188v-410c0 -118 24 -150 104 -150s104 32 104 150v410h188z" />
    <glyph glyph-name="Udieresis" unicode="&#xdc;" horiz-adv-x="694" 
d="M224 895h59c25 0 36 -12 36 -36v-60c0 -25 -11 -37 -36 -37h-59c-24 0 -36 12 -36 37v60c0 24 12 36 36 36zM410 895h59c24 0 36 -12 36 -36v-60c0 -25 -12 -37 -36 -37h-59c-25 0 -37 12 -37 37v60c0 24 12 36 37 36zM639 690v-410c0 -215 -75 -294 -282 -294
c-222 0 -302 79 -302 294v410h188v-410c0 -118 24 -150 104 -150s104 32 104 150v410h188z" />
    <glyph glyph-name="Ugrave" unicode="&#xd9;" horiz-adv-x="694" 
d="M435 797l-51 -76l-241 106l74 119zM639 690v-410c0 -215 -75 -294 -282 -294c-222 0 -302 79 -302 294v410h188v-410c0 -118 24 -150 104 -150s104 32 104 150v410h188z" />
    <glyph glyph-name="Uhungarumlaut" unicode="&#x170;" horiz-adv-x="694" 
d="M395 882l-162 -172l-72 58l119 190zM598 882l-162 -172l-72 58l119 190zM639 690v-410c0 -215 -75 -294 -282 -294c-222 0 -302 79 -302 294v410h188v-410c0 -118 24 -150 104 -150s104 32 104 150v410h188z" />
    <glyph glyph-name="Umacron" unicode="&#x16a;" horiz-adv-x="694" 
d="M503 774h-310v110h310v-110zM639 690v-410c0 -215 -75 -294 -282 -294c-222 0 -302 79 -302 294v410h188v-410c0 -118 24 -150 104 -150s104 32 104 150v410h188z" />
    <glyph glyph-name="Uogonek" unicode="&#x172;" horiz-adv-x="694" 
d="M639 690v-410c0 -203 -67 -285 -249 -293c-18 -29 -35 -55 -50 -89c-18 -39 11 -44 54 -35l13 -64c-155 -59 -212 12 -188 84c10 31 39 68 94 104c-189 11 -258 93 -258 293v410h188v-410c0 -118 24 -150 104 -150s104 32 104 150v410h188z" />
    <glyph glyph-name="Uring" unicode="&#x16e;" horiz-adv-x="694" 
d="M348 954c67 0 124 -53 124 -120c0 -68 -56 -121 -124 -121s-124 53 -124 121c0 67 57 120 124 120zM348 882c-26 0 -47 -21 -47 -48c0 -28 21 -48 47 -48s47 20 47 48c0 27 -21 48 -47 48zM639 690v-410c0 -215 -75 -294 -282 -294c-222 0 -302 79 -302 294v410h188v-410
c0 -118 24 -150 104 -150s104 32 104 150v410h188z" />
    <glyph glyph-name="V" unicode="V" horiz-adv-x="655" 
d="M653 690l-177 -639c-7 -31 -33 -51 -65 -51h-167c-32 0 -58 20 -65 51l-177 639h193l106 -471c5 -25 10 -53 14 -78h25c3 25 9 53 14 78l105 471h194z" />
    <glyph glyph-name="W" unicode="W" horiz-adv-x="989" 
d="M967 690l-97 -639c-5 -31 -32 -51 -65 -51h-167c-32 0 -61 20 -65 51l-60 413c-4 31 -7 63 -9 95h-18c-3 -32 -6 -65 -10 -96l-59 -412c-4 -31 -32 -51 -65 -51h-168c-32 0 -60 20 -65 51l-96 639h187l50 -448c3 -33 5 -68 6 -109h18l16 109l58 392c4 33 30 56 65 56h144
c34 0 60 -23 64 -56l59 -393c5 -35 11 -74 15 -108h18c1 35 4 74 7 107l49 450h188z" />
    <glyph glyph-name="Wacute" unicode="&#x1e82;" horiz-adv-x="989" 
d="M694 827l-241 -106l-51 76l218 149zM967 690l-97 -639c-5 -31 -32 -51 -65 -51h-167c-32 0 -61 20 -65 51l-59 413c-5 31 -8 63 -10 95h-18c-3 -32 -5 -65 -10 -96l-58 -412c-4 -31 -33 -51 -66 -51h-167c-33 0 -61 20 -66 51l-96 639h187l50 -448c3 -33 6 -68 7 -109h17
l16 109l58 392c4 33 30 56 65 56h144c34 0 60 -23 65 -56l59 -393c4 -35 10 -74 14 -108h18c1 35 4 74 7 107l50 450h187z" />
    <glyph glyph-name="Wcircumflex" unicode="&#x174;" horiz-adv-x="989" 
d="M696 777l-45 -63l-151 94h-8l-153 -94l-46 68l138 133h131zM967 690l-97 -639c-5 -31 -32 -51 -65 -51h-167c-32 0 -61 20 -65 51l-59 413c-5 31 -8 63 -10 95h-18c-3 -32 -5 -65 -10 -96l-58 -412c-4 -31 -33 -51 -66 -51h-167c-33 0 -61 20 -66 51l-96 639h187l50 -448
c3 -33 6 -68 7 -109h17l16 109l58 392c4 33 30 56 65 56h144c34 0 60 -23 65 -56l59 -393c4 -35 10 -74 14 -108h18c1 35 4 74 7 107l50 450h187z" />
    <glyph glyph-name="Wdieresis" unicode="&#x1e84;" horiz-adv-x="989" 
d="M371 895h59c25 0 36 -12 36 -36v-60c0 -25 -11 -37 -36 -37h-59c-24 0 -36 12 -36 37v60c0 24 12 36 36 36zM557 895h59c24 0 36 -12 36 -36v-60c0 -25 -12 -37 -36 -37h-59c-25 0 -37 12 -37 37v60c0 24 12 36 37 36zM967 690l-97 -639c-5 -31 -32 -51 -65 -51h-167
c-32 0 -61 20 -65 51l-59 413c-5 31 -8 63 -10 95h-18c-3 -32 -5 -65 -10 -96l-58 -412c-4 -31 -33 -51 -66 -51h-167c-33 0 -61 20 -66 51l-96 639h187l50 -448c3 -33 6 -68 7 -109h17l16 109l58 392c4 33 30 56 65 56h144c34 0 60 -23 65 -56l59 -393
c4 -35 10 -74 14 -108h18c1 35 4 74 7 107l50 450h187z" />
    <glyph glyph-name="Wgrave" unicode="&#x1e80;" horiz-adv-x="989" 
d="M582 797l-51 -76l-241 106l74 119zM967 690l-97 -639c-5 -31 -32 -51 -65 -51h-167c-32 0 -61 20 -65 51l-59 413c-5 31 -8 63 -10 95h-18c-3 -32 -5 -65 -10 -96l-58 -412c-4 -31 -33 -51 -66 -51h-167c-33 0 -61 20 -66 51l-96 639h187l50 -448c3 -33 6 -68 7 -109h17
l16 109l58 392c4 33 30 56 65 56h144c34 0 60 -23 65 -56l59 -393c4 -35 10 -74 14 -108h18c1 35 4 74 7 107l50 450h187z" />
    <glyph glyph-name="X" unicode="X" horiz-adv-x="661" 
d="M332 300h-3l-138 -300h-189l175 353l-161 337h187l125 -280h5l124 280h188l-161 -337l175 -353h-189z" />
    <glyph glyph-name="Y" unicode="Y" horiz-adv-x="633" 
d="M411 221v-221h-188v219l-228 471h194l99 -233c12 -29 18 -63 23 -93h12c6 30 12 65 23 93l99 233h193z" />
    <glyph glyph-name="Yacute" unicode="&#xdd;" horiz-adv-x="633" 
d="M274 721l-51 76l218 149l74 -119zM411 221v-221h-188v221l-228 469h194l99 -233c12 -29 18 -63 24 -93h11c6 30 12 65 23 93l99 233h194z" />
    <glyph glyph-name="Ycircumflex" unicode="&#x176;" horiz-adv-x="633" 
d="M160 714l-46 68l138 133h131l134 -138l-45 -63l-151 94h-8zM411 221v-221h-188v221l-228 469h194l99 -233c12 -29 18 -63 24 -93h11c6 30 12 65 23 93l99 233h194z" />
    <glyph glyph-name="Ydieresis" unicode="&#x178;" horiz-adv-x="633" 
d="M252 762h-59c-24 0 -36 12 -36 37v60c0 24 12 36 36 36h59c25 0 36 -12 36 -36v-60c0 -25 -11 -37 -36 -37zM438 762h-59c-25 0 -37 12 -37 37v60c0 24 12 36 37 36h59c24 0 36 -12 36 -36v-60c0 -25 -12 -37 -36 -37zM411 221v-221h-188v221l-228 469h194l99 -233
c12 -29 18 -63 24 -93h11c6 30 12 65 23 93l99 233h194z" />
    <glyph glyph-name="Ygrave" unicode="&#x1ef2;" horiz-adv-x="633" 
d="M353 721l-241 106l74 119l218 -149zM411 221v-221h-188v221l-228 469h194l99 -233c12 -29 18 -63 24 -93h11c6 30 12 65 23 93l99 233h194z" />
    <glyph glyph-name="Z" unicode="Z" horiz-adv-x="595" 
d="M562 136v-136h-528v136l312 418h-303v136h510v-136l-311 -418h320z" />
    <glyph glyph-name="Zacute" unicode="&#x179;" horiz-adv-x="595" 
d="M261 721l-51 76l218 149l74 -119zM562 136v-136h-528v136l312 418h-303v136h510v-136l-311 -418h320z" />
    <glyph glyph-name="Zcaron" unicode="&#x17d;" horiz-adv-x="595" 
d="M267 737l-159 131l46 69l145 -78h8l146 78l45 -69l-158 -131h-73zM562 136v-136h-528v136l312 418h-303v136h510v-136l-311 -418h320z" />
    <glyph glyph-name="Zdotaccent" unicode="&#x17b;" horiz-adv-x="595" 
d="M332 752h-55c-35 0 -52 17 -52 50v50c0 33 17 49 52 49h55c34 0 51 -16 51 -49v-50c0 -33 -17 -50 -51 -50zM562 136v-136h-528v136l312 418h-303v136h510v-136l-311 -418h320z" />
    <glyph glyph-name="a" unicode="a" 
d="M326 511c134 0 207 -46 207 -194v-317h-144l-17 73c-34 -42 -91 -86 -177 -86c-93 0 -167 49 -167 142v50c0 79 60 127 159 127h165v12c-1 42 -17 57 -69 57c-50 0 -130 -2 -213 -7l-16 118c74 14 199 25 272 25zM206 172v-17c0 -26 15 -40 49 -40c29 0 64 13 97 35v61
h-104c-30 -1 -42 -16 -42 -39z" />
    <glyph glyph-name="aacute" unicode="&#xe1;" 
d="M252 536l-51 76l218 149l74 -119zM326 511c135 0 208 -46 208 -194v-317h-144l-18 73c-34 -42 -91 -86 -177 -86c-92 0 -167 49 -167 142v50c0 79 60 127 159 127h165v12c-1 42 -17 57 -69 57c-50 0 -130 -2 -212 -7l-17 118c74 14 200 25 272 25zM206 172v-17
c0 -26 15 -40 49 -40c29 0 64 13 97 35v61h-104c-30 -1 -42 -16 -42 -39z" />
    <glyph glyph-name="abreve" unicode="&#x103;" 
d="M294 553c-117 0 -186 76 -173 162l85 12c0 -43 26 -62 88 -62c61 0 87 19 87 62l85 -12c13 -86 -55 -162 -172 -162zM326 511c135 0 208 -46 208 -194v-317h-144l-18 73c-34 -42 -91 -86 -177 -86c-92 0 -167 49 -167 142v50c0 79 60 127 159 127h165v12
c-1 42 -17 57 -69 57c-50 0 -130 -2 -212 -7l-17 118c74 14 200 25 272 25zM206 172v-17c0 -26 15 -40 49 -40c29 0 64 13 97 35v61h-104c-30 -1 -42 -16 -42 -39z" />
    <glyph glyph-name="acircumflex" unicode="&#xe2;" 
d="M137 529l-46 68l138 133h131l134 -138l-45 -63l-151 94h-8zM326 511c135 0 208 -46 208 -194v-317h-144l-18 73c-34 -42 -91 -86 -177 -86c-92 0 -167 49 -167 142v50c0 79 60 127 159 127h165v12c-1 42 -17 57 -69 57c-50 0 -130 -2 -212 -7l-17 118
c74 14 200 25 272 25zM206 172v-17c0 -26 15 -40 49 -40c29 0 64 13 97 35v61h-104c-30 -1 -42 -16 -42 -39z" />
    <glyph glyph-name="adieresis" unicode="&#xe4;" 
d="M229 577h-59c-24 0 -36 12 -36 37v60c0 24 12 36 36 36h59c25 0 36 -12 36 -36v-60c0 -25 -11 -37 -36 -37zM415 577h-59c-25 0 -37 12 -37 37v60c0 24 12 36 37 36h59c24 0 36 -12 36 -36v-60c0 -25 -12 -37 -36 -37zM326 511c135 0 208 -46 208 -194v-317h-144l-18 73
c-34 -42 -91 -86 -177 -86c-92 0 -167 49 -167 142v50c0 79 60 127 159 127h165v12c-1 42 -17 57 -69 57c-50 0 -130 -2 -212 -7l-17 118c74 14 200 25 272 25zM206 172v-17c0 -26 15 -40 49 -40c29 0 64 13 97 35v61h-104c-30 -1 -42 -16 -42 -39z" />
    <glyph glyph-name="agrave" unicode="&#xe0;" 
d="M330 536l-241 106l74 119l218 -149zM326 511c135 0 208 -46 208 -194v-317h-144l-18 73c-34 -42 -91 -86 -177 -86c-92 0 -167 49 -167 142v50c0 79 60 127 159 127h165v12c-1 42 -17 57 -69 57c-50 0 -130 -2 -212 -7l-17 118c74 14 200 25 272 25zM206 172v-17
c0 -26 15 -40 49 -40c29 0 64 13 97 35v61h-104c-30 -1 -42 -16 -42 -39z" />
    <glyph glyph-name="amacron" unicode="&#x101;" 
d="M450 589h-310v110h310v-110zM326 511c135 0 208 -46 208 -194v-317h-144l-18 73c-34 -42 -91 -86 -177 -86c-92 0 -167 49 -167 142v50c0 79 60 127 159 127h165v12c-1 42 -17 57 -69 57c-50 0 -130 -2 -212 -7l-17 118c74 14 200 25 272 25zM206 172v-17
c0 -26 15 -40 49 -40c29 0 64 13 97 35v61h-104c-30 -1 -42 -16 -42 -39z" />
    <glyph glyph-name="aogonek" unicode="&#x105;" 
d="M535 -128l13 -64c-155 -59 -212 12 -188 84c11 32 41 71 100 108h-70l-18 73c-34 -42 -91 -86 -177 -86c-92 0 -167 49 -167 142v50c0 79 60 127 159 127h165v12c-1 42 -17 57 -69 57c-50 0 -130 -2 -212 -7l-17 118c74 14 200 25 272 25c135 0 208 -46 208 -194v-317
c-19 -30 -37 -57 -53 -93c-18 -39 11 -44 54 -35zM206 172v-17c0 -26 15 -40 49 -40c29 0 64 13 97 35v61h-104c-30 -1 -42 -16 -42 -39z" />
    <glyph glyph-name="aring" unicode="&#xe5;" 
d="M294 527c-68 0 -124 53 -124 121c0 67 57 120 124 120s124 -53 124 -120c0 -68 -56 -121 -124 -121zM294 696c-26 0 -47 -21 -47 -48c0 -28 21 -48 47 -48s47 20 47 48c0 27 -21 48 -47 48zM326 511c135 0 208 -46 208 -194v-317h-144l-18 73c-34 -42 -91 -86 -177 -86
c-92 0 -167 49 -167 142v50c0 79 60 127 159 127h165v12c-1 42 -17 57 -69 57c-50 0 -130 -2 -212 -7l-17 118c74 14 200 25 272 25zM206 172v-17c0 -26 15 -40 49 -40c29 0 64 13 97 35v61h-104c-30 -1 -42 -16 -42 -39z" />
    <glyph glyph-name="atilde" unicode="&#xe3;" 
d="M187 568h-76c-19 110 31 160 83 156c67 -5 111 -35 165 -45c31 -5 33 8 33 40h76c18 -103 -23 -160 -83 -156c-68 5 -120 38 -166 46c-31 5 -32 -8 -32 -41zM326 511c135 0 208 -46 208 -194v-317h-144l-18 73c-34 -42 -91 -86 -177 -86c-92 0 -167 49 -167 142v50
c0 79 60 127 159 127h165v12c-1 42 -17 57 -69 57c-50 0 -130 -2 -212 -7l-17 118c74 14 200 25 272 25zM206 172v-17c0 -26 15 -40 49 -40c29 0 64 13 97 35v61h-104c-30 -1 -42 -16 -42 -39z" />
    <glyph glyph-name="ae" unicode="&#xe6;" horiz-adv-x="881" 
d="M633 129c40 0 114 3 190 12l17 -111c-65 -33 -147 -42 -228 -42c-118 0 -191 30 -231 92c-33 -43 -92 -93 -189 -93c-91 0 -164 49 -164 142v50c0 77 59 125 156 125h160v14c0 42 -16 57 -66 57c-49 0 -128 -2 -209 -7l-16 118c72 14 197 25 268 25c54 0 98 -8 131 -26
c40 18 91 26 157 26c177 0 244 -60 244 -176c1 -91 -44 -134 -173 -134h-149c9 -56 35 -72 102 -72zM615 388c-64 1 -84 -13 -87 -93h101c43 0 49 13 49 44c0 39 -17 49 -63 49zM252 115c30 0 67 15 100 38c-4 18 -7 37 -8 57l-97 1c-30 -1 -41 -16 -41 -39v-17
c0 -26 15 -40 46 -40z" />
    <glyph glyph-name="b" unicode="b" horiz-adv-x="606" 
d="M387 511c135 0 186 -74 186 -257c0 -143 -43 -266 -257 -266c-71 0 -207 12 -266 40v672h182l1 -147c1 -40 -3 -81 -14 -118c44 43 104 76 168 76zM313 115c54 2 73 29 73 138c0 95 -14 118 -73 118c-33 0 -55 -11 -82 -25l1 -225c27 -5 60 -7 81 -6z" />
    <glyph glyph-name="c" unicode="c" horiz-adv-x="518" 
d="M292 511c56 0 139 -8 196 -34l-18 -113c-60 0 -107 1 -147 1c-76 0 -100 -24 -100 -116s24 -116 100 -116c32 0 96 1 156 8l17 -115c-57 -28 -134 -38 -206 -38c-190 0 -258 69 -258 261s69 262 260 262z" />
    <glyph glyph-name="cacute" unicode="&#x107;" horiz-adv-x="518" 
d="M484 642l-241 -106l-51 76l218 149zM291 511c57 0 140 -8 197 -34l-19 -113c-59 0 -107 1 -147 1c-75 0 -100 -24 -100 -116s25 -116 100 -116c33 0 97 1 157 8l16 -115c-56 -28 -133 -38 -206 -38c-189 0 -257 69 -257 261s69 262 259 262z" />
    <glyph glyph-name="ccaron" unicode="&#x10d;" horiz-adv-x="518" 
d="M480 682l-158 -131h-73l-159 131l46 69l145 -78h8l146 78zM291 511c57 0 140 -8 197 -34l-19 -113c-59 0 -107 1 -147 1c-75 0 -100 -24 -100 -116s25 -116 100 -116c33 0 97 1 157 8l16 -115c-56 -28 -133 -38 -206 -38c-189 0 -257 69 -257 261s69 262 259 262z" />
    <glyph glyph-name="ccedilla" unicode="&#xe7;" horiz-adv-x="518" 
d="M291 511c57 0 140 -8 197 -34l-19 -113c-59 0 -107 1 -147 1c-75 0 -100 -24 -100 -116s25 -116 100 -116c33 0 97 1 157 8l16 -115c-56 -28 -133 -38 -206 -38c-189 0 -257 69 -257 261s69 262 259 262zM197 -117l17 66c114 12 165 11 161 -65
c-4 -109 -100 -158 -218 -142l20 72c45 0 83 10 87 54c1 16 -8 15 -67 15z" />
    <glyph glyph-name="cdotaccent" unicode="&#x10b;" horiz-adv-x="518" 
d="M258 715h55c34 0 51 -16 51 -49v-50c0 -33 -17 -50 -51 -50h-55c-35 0 -52 17 -52 50v50c0 33 17 49 52 49zM291 511c57 0 140 -8 197 -34l-19 -113c-59 0 -107 1 -147 1c-75 0 -100 -24 -100 -116s25 -116 100 -116c33 0 97 1 157 8l16 -115c-56 -28 -133 -38 -206 -38
c-189 0 -257 69 -257 261s69 262 259 262z" />
    <glyph glyph-name="d" unicode="d" horiz-adv-x="608" 
d="M557 700v-700h-144l-15 77c-34 -50 -93 -89 -186 -89c-128 0 -178 97 -178 266c0 201 66 257 190 257c58 0 113 -12 155 -44c-2 34 -4 71 -4 107v126h182zM288 135c39 0 59 9 87 25v210c-25 8 -48 16 -83 16c-51 0 -71 -16 -71 -131c0 -104 20 -120 67 -120z" />
    <glyph glyph-name="eth" unicode="&#xf0;" horiz-adv-x="590" 
d="M535 651l-70 -68c60 -71 91 -172 91 -294c0 -218 -76 -303 -266 -303c-176 0 -258 72 -258 229c0 160 59 237 220 237c28 0 66 -2 101 -15c-23 116 -88 155 -228 145l16 116c81 5 150 -5 208 -30l83 83zM292 115c64 0 73 38 73 174v30c-22 3 -46 5 -71 5
c-51 0 -71 -17 -71 -106c0 -80 16 -103 69 -103z" />
    <glyph glyph-name="dcaron" unicode="&#x10f;" horiz-adv-x="608" 
d="M651 703h32c38 0 51 -10 51 -44v-46c0 -64 -18 -101 -49 -140l-58 16c11 31 14 62 14 94c-28 0 -42 14 -43 39l2 37c1 34 14 44 51 44zM375 700h182v-700h-145l-14 77c-34 -50 -93 -89 -186 -89c-129 0 -178 97 -178 266c0 201 65 257 189 257c58 0 114 -12 156 -43
c-2 34 -4 70 -4 106v126zM288 135c39 0 59 9 87 25v210c-25 8 -49 16 -83 16c-51 0 -71 -16 -71 -131c0 -104 20 -120 67 -120z" />
    <glyph glyph-name="dcroat" unicode="&#x111;" horiz-adv-x="605" 
d="M614 553h-57v-553h-145l-14 77c-34 -50 -93 -89 -186 -89c-129 0 -178 97 -178 266c0 201 65 257 189 257c58 0 114 -12 156 -43c-2 27 -3 56 -4 85h-117v77h117v70h182v-70h57v-77zM288 135c39 0 59 9 87 25v210c-25 8 -49 16 -83 16c-51 0 -71 -16 -71 -131
c0 -104 20 -120 67 -120z" />
    <glyph glyph-name="e" unicode="e" horiz-adv-x="576" 
d="M324 129c43 0 117 3 195 12l16 -111c-65 -33 -150 -42 -231 -42c-199 0 -272 83 -272 258c0 196 75 265 269 265c179 0 247 -60 248 -176c1 -91 -45 -134 -174 -134h-149c8 -56 34 -72 98 -72zM306 388c-61 1 -80 -13 -83 -93h101c43 0 50 13 50 44c0 39 -18 49 -68 49z
" />
    <glyph glyph-name="eacute" unicode="&#xe9;" horiz-adv-x="576" 
d="M261 536l-51 76l218 149l74 -119zM325 129c42 0 117 3 194 12l17 -111c-65 -33 -151 -42 -232 -42c-199 0 -272 83 -272 258c0 196 75 265 269 265c179 0 247 -60 248 -176c1 -91 -45 -134 -174 -134h-149c9 -56 35 -72 99 -72zM307 388c-62 1 -81 -13 -84 -93h101
c43 0 50 13 50 44c0 39 -18 49 -67 49z" />
    <glyph glyph-name="ecaron" unicode="&#x11b;" horiz-adv-x="576" 
d="M267 551l-159 131l46 69l145 -78h8l146 78l45 -69l-158 -131h-73zM325 129c42 0 117 3 194 12l17 -111c-65 -33 -151 -42 -232 -42c-199 0 -272 83 -272 258c0 196 75 265 269 265c179 0 247 -60 248 -176c1 -91 -45 -134 -174 -134h-149c9 -56 35 -72 99 -72zM307 388
c-62 1 -81 -13 -84 -93h101c43 0 50 13 50 44c0 39 -18 49 -67 49z" />
    <glyph glyph-name="ecircumflex" unicode="&#xea;" horiz-adv-x="576" 
d="M147 529l-46 68l138 133h131l134 -138l-45 -63l-151 94h-8zM325 129c42 0 117 3 194 12l17 -111c-65 -33 -151 -42 -232 -42c-199 0 -272 83 -272 258c0 196 75 265 269 265c179 0 247 -60 248 -176c1 -91 -45 -134 -174 -134h-149c9 -56 35 -72 99 -72zM307 388
c-62 1 -81 -13 -84 -93h101c43 0 50 13 50 44c0 39 -18 49 -67 49z" />
    <glyph glyph-name="edieresis" unicode="&#xeb;" horiz-adv-x="576" 
d="M238 577h-59c-24 0 -36 12 -36 37v60c0 24 12 36 36 36h59c25 0 36 -12 36 -36v-60c0 -25 -11 -37 -36 -37zM424 577h-59c-25 0 -37 12 -37 37v60c0 24 12 36 37 36h59c24 0 36 -12 36 -36v-60c0 -25 -12 -37 -36 -37zM325 129c42 0 117 3 194 12l17 -111
c-65 -33 -151 -42 -232 -42c-199 0 -272 83 -272 258c0 196 75 265 269 265c179 0 247 -60 248 -176c1 -91 -45 -134 -174 -134h-149c9 -56 35 -72 99 -72zM307 388c-62 1 -81 -13 -84 -93h101c43 0 50 13 50 44c0 39 -18 49 -67 49z" />
    <glyph glyph-name="edotaccent" unicode="&#x117;" horiz-adv-x="576" 
d="M332 566h-55c-35 0 -52 17 -52 50v50c0 33 17 49 52 49h55c34 0 51 -16 51 -49v-50c0 -33 -17 -50 -51 -50zM325 129c42 0 117 3 194 12l17 -111c-65 -33 -151 -42 -232 -42c-199 0 -272 83 -272 258c0 196 75 265 269 265c179 0 247 -60 248 -176
c1 -91 -45 -134 -174 -134h-149c9 -56 35 -72 99 -72zM307 388c-62 1 -81 -13 -84 -93h101c43 0 50 13 50 44c0 39 -18 49 -67 49z" />
    <glyph glyph-name="egrave" unicode="&#xe8;" horiz-adv-x="576" 
d="M339 536l-241 106l74 119l218 -149zM325 129c42 0 117 3 194 12l17 -111c-65 -33 -151 -42 -232 -42c-199 0 -272 83 -272 258c0 196 75 265 269 265c179 0 247 -60 248 -176c1 -91 -45 -134 -174 -134h-149c9 -56 35 -72 99 -72zM307 388c-62 1 -81 -13 -84 -93h101
c43 0 50 13 50 44c0 39 -18 49 -67 49z" />
    <glyph glyph-name="emacron" unicode="&#x113;" horiz-adv-x="576" 
d="M459 589h-310v110h310v-110zM325 129c42 0 117 3 194 12l17 -111c-65 -33 -151 -42 -232 -42c-199 0 -272 83 -272 258c0 196 75 265 269 265c179 0 247 -60 248 -176c1 -91 -45 -134 -174 -134h-149c9 -56 35 -72 99 -72zM307 388c-62 1 -81 -13 -84 -93h101
c43 0 50 13 50 44c0 39 -18 49 -67 49z" />
    <glyph glyph-name="eogonek" unicode="&#x119;" horiz-adv-x="576" 
d="M537 -98l13 -64c-155 -59 -212 12 -188 84c7 22 24 47 53 73c-37 -5 -74 -7 -111 -7c-199 0 -272 83 -272 258c0 196 75 265 269 265c179 0 247 -60 248 -176c1 -91 -45 -134 -174 -134h-149c9 -56 35 -72 99 -72c42 0 117 3 194 12l17 -111c-19 -30 -37 -57 -53 -93
c-18 -39 11 -44 54 -35zM307 388c-62 1 -81 -13 -84 -93h101c43 0 50 13 50 44c0 39 -18 49 -67 49z" />
    <glyph glyph-name="f" unicode="f" horiz-adv-x="417" 
d="M427 597h-90c-43 0 -56 -15 -56 -58v-42h126v-114h-126v-383h-183v383h-85v109l85 5v67c0 93 45 158 174 158c38 0 125 -3 172 -12z" />
    <glyph glyph-name="g" unicode="g" horiz-adv-x="593" 
d="M576 425l-57 -8c6 -19 9 -40 9 -64c0 -115 -63 -158 -245 -158c-30 0 -56 1 -80 4c-12 -18 -8 -48 29 -52l181 -16c109 -9 152 -58 152 -152c0 -136 -78 -165 -276 -165c-223 0 -274 39 -274 145c0 48 19 79 77 106c-45 46 -29 126 23 153c-56 24 -79 66 -79 134
c0 115 65 159 248 159c57 0 102 -4 138 -14h163zM283 300c59 0 76 12 76 53s-17 52 -76 52c-60 0 -78 -11 -78 -52s18 -53 78 -53zM394 -19c0 30 -22 33 -79 38l-105 9c-17 -13 -24 -23 -24 -43c0 -37 20 -43 101 -43c86 0 107 7 107 39z" />
    <glyph glyph-name="gbreve" unicode="&#x11f;" horiz-adv-x="593" 
d="M287 553c-117 0 -186 76 -173 162l85 12c0 -43 26 -62 88 -62c61 0 87 19 87 62l85 -12c13 -86 -55 -162 -172 -162zM577 425l-58 -8c6 -19 9 -40 9 -64c0 -115 -63 -158 -246 -158c-29 0 -55 1 -79 3c-12 -17 -8 -47 29 -51l181 -16c109 -9 152 -58 152 -152
c0 -136 -78 -165 -275 -165c-224 0 -275 39 -275 145c0 48 19 80 78 106c-45 46 -29 126 22 153c-56 24 -79 66 -79 134c0 115 65 159 247 159c57 0 103 -4 138 -14h165zM283 300c60 0 77 12 77 53s-17 52 -77 52s-78 -11 -78 -52s18 -53 78 -53zM394 -19
c0 30 -21 33 -79 38l-104 9c-18 -13 -25 -23 -25 -43c0 -37 20 -43 101 -43c86 0 107 7 107 39z" />
    <glyph glyph-name="gcommaaccent" unicode="&#x123;" horiz-adv-x="593" 
d="M316 549h-34c-43 0 -57 12 -57 49v50c0 70 20 111 54 153l64 -17c-12 -34 -15 -67 -15 -103c31 0 47 -16 47 -43l-2 -40c-1 -37 -15 -49 -57 -49zM577 425l-58 -8c6 -19 9 -40 9 -64c0 -115 -63 -158 -246 -158c-29 0 -55 1 -79 3c-12 -17 -8 -47 29 -51l181 -16
c109 -9 152 -58 152 -152c0 -136 -78 -165 -275 -165c-224 0 -275 39 -275 145c0 48 19 80 78 106c-45 46 -29 126 22 153c-56 24 -79 66 -79 134c0 115 65 159 247 159c57 0 103 -4 138 -14h165zM283 300c60 0 77 12 77 53s-17 52 -77 52s-78 -11 -78 -52s18 -53 78 -53z
M394 -19c0 30 -21 33 -79 38l-104 9c-18 -13 -25 -23 -25 -43c0 -37 20 -43 101 -43c86 0 107 7 107 39z" />
    <glyph glyph-name="gdotaccent" unicode="&#x121;" horiz-adv-x="593" 
d="M315 566h-55c-35 0 -52 17 -52 50v50c0 33 17 49 52 49h55c34 0 51 -16 51 -49v-50c0 -33 -17 -50 -51 -50zM577 425l-58 -8c6 -19 9 -40 9 -64c0 -115 -63 -158 -246 -158c-29 0 -55 1 -79 3c-12 -17 -8 -47 29 -51l181 -16c109 -9 152 -58 152 -152
c0 -136 -78 -165 -275 -165c-224 0 -275 39 -275 145c0 48 19 80 78 106c-45 46 -29 126 22 153c-56 24 -79 66 -79 134c0 115 65 159 247 159c57 0 103 -4 138 -14h165zM283 300c60 0 77 12 77 53s-17 52 -77 52s-78 -11 -78 -52s18 -53 78 -53zM394 -19
c0 30 -21 33 -79 38l-104 9c-18 -13 -25 -23 -25 -43c0 -37 20 -43 101 -43c86 0 107 7 107 39z" />
    <glyph glyph-name="h" unicode="h" horiz-adv-x="611" 
d="M419 511c94 0 144 -48 144 -139v-372h-182v315c0 32 -11 42 -41 42s-60 -6 -107 -26v-331h-182v700h182l1 -159c0 -38 -4 -77 -10 -107c64 50 132 77 195 77z" />
    <glyph glyph-name="hbar" unicode="&#x127;" horiz-adv-x="614" 
d="M422 511c94 0 144 -48 144 -139v-372h-182v315c0 32 -10 42 -41 42c-30 0 -60 -6 -107 -26v-331h-182v553h-59v77h59v70h182v-70h115v-77h-114v-12c0 -38 -4 -77 -10 -108c64 51 132 78 195 78z" />
    <glyph glyph-name="i" unicode="i" horiz-adv-x="291" 
d="M106 721h79c35 0 52 -18 52 -54v-52c0 -36 -17 -53 -52 -53h-79c-35 0 -53 17 -53 53v52c0 36 18 54 53 54zM236 0h-181v497h181v-497z" />
    <glyph glyph-name="dotlessi" unicode="&#x131;" horiz-adv-x="293" 
d="M238 0h-183v497h183v-497z" />
    <glyph glyph-name="iacute" unicode="&#xed;" horiz-adv-x="293" 
d="M346 642l-241 -106l-51 76l218 149zM238 0h-183v497h183v-497z" />
    <glyph glyph-name="icircumflex" unicode="&#xee;" horiz-adv-x="293" 
d="M347 592l-45 -63l-151 94h-8l-153 -94l-46 68l138 133h131zM238 0h-183v497h183v-497z" />
    <glyph glyph-name="idieresis" unicode="&#xef;" horiz-adv-x="293" 
d="M23 710h59c25 0 36 -12 36 -36v-60c0 -25 -11 -37 -36 -37h-59c-24 0 -36 12 -36 37v60c0 24 12 36 36 36zM209 710h59c24 0 36 -12 36 -36v-60c0 -25 -12 -37 -36 -37h-59c-25 0 -37 12 -37 37v60c0 24 12 36 37 36zM238 0h-183v497h183v-497z" />
    <glyph glyph-name="igrave" unicode="&#xec;" horiz-adv-x="293" 
d="M234 612l-51 -76l-241 106l74 119zM238 0h-183v497h183v-497z" />
    <glyph glyph-name="ij" unicode="&#x133;" horiz-adv-x="583" 
d="M396 728h79c35 0 52 -18 52 -53v-53c0 -36 -17 -53 -52 -53h-79c-35 0 -52 17 -52 53v53c0 35 17 53 52 53zM106 721h78c36 0 53 -18 53 -54v-52c0 -36 -17 -53 -53 -53h-78c-36 0 -53 17 -53 53v52c0 36 17 54 53 54zM236 0h-181v497h181v-497zM528 497v-455
c0 -98 -55 -193 -146 -235l-100 80c49 51 65 97 65 155v455h181z" />
    <glyph glyph-name="imacron" unicode="&#x12b;" horiz-adv-x="293" 
d="M303 589h-310v110h310v-110zM238 0h-183v497h183v-497z" />
    <glyph glyph-name="iogonek" unicode="&#x12f;" horiz-adv-x="293" 
d="M175 566h-55c-35 0 -52 17 -52 50v50c0 33 17 49 52 49h55c34 0 51 -16 51 -49v-50c0 -33 -17 -50 -51 -50zM238 0h-17c-19 -30 -37 -57 -53 -93c-18 -39 11 -44 54 -35l13 -64c-155 -59 -212 12 -188 84c11 32 41 71 100 108h-92v497h183v-497z" />
    <glyph glyph-name="j" unicode="j" horiz-adv-x="292" 
d="M105 728h79c35 0 52 -18 52 -53v-53c0 -36 -17 -53 -52 -53h-79c-35 0 -52 17 -52 53v53c0 35 17 53 52 53zM237 497v-455c0 -98 -55 -193 -146 -235l-100 80c49 51 65 97 65 155v455h181z" />
    <glyph glyph-name="k" unicode="k" horiz-adv-x="585" 
d="M262 222h-36c4 -26 7 -52 7 -74v-148h-182v700h182v-278c0 -31 -2 -63 -7 -94h37l107 169h200l-115 -167c-14 -24 -39 -46 -52 -54v-4c13 -7 38 -35 52 -60l133 -212h-201z" />
    <glyph glyph-name="kcommaaccent" unicode="&#x137;" horiz-adv-x="585" 
d="M589 0h-202l-125 222h-36c4 -26 7 -52 7 -74v-148h-182v700h182v-278c0 -31 -2 -63 -7 -94h37l107 169h200l-115 -167c-13 -24 -39 -46 -52 -54v-4c13 -7 39 -35 52 -60zM283 -42h34c43 0 57 -12 57 -49v-50c0 -70 -20 -111 -54 -153l-64 17c12 34 15 67 15 103
c-31 0 -47 16 -47 43l2 40c1 37 15 49 57 49z" />
    <glyph glyph-name="l" unicode="l" horiz-adv-x="344" 
d="M233 700v-527c0 -30 17 -43 53 -43h36l21 -120c-28 -16 -98 -23 -134 -23c-97 0 -157 51 -157 138v575h181z" />
    <glyph glyph-name="lacute" unicode="&#x13a;" horiz-adv-x="344" 
d="M347 837l-241 -106l-51 76l218 149zM233 700v-527c0 -30 17 -43 53 -43h36l21 -120c-28 -16 -98 -23 -134 -23c-97 0 -157 51 -157 138v575h181z" />
    <glyph glyph-name="lcaron" unicode="&#x13e;" horiz-adv-x="344" 
d="M326 703h32c38 0 51 -10 51 -44v-46c0 -64 -18 -101 -49 -140l-58 16c11 31 14 62 14 94c-28 0 -42 14 -43 39l2 37c1 34 14 44 51 44zM233 700v-527c0 -30 17 -43 53 -43h36l21 -120c-28 -16 -98 -23 -134 -23c-97 0 -157 51 -157 138v575h181z" />
    <glyph glyph-name="lcommaaccent" unicode="&#x13c;" horiz-adv-x="344" 
d="M233 700v-527c0 -30 17 -43 53 -43h36l21 -120c-28 -16 -98 -23 -134 -23c-97 0 -157 51 -157 138v575h181zM170 -49h34c43 0 57 -12 57 -49v-50c0 -70 -20 -111 -54 -153l-64 17c12 34 15 67 15 103c-31 0 -47 16 -47 43l2 40c1 37 15 49 57 49z" />
    <glyph glyph-name="ldot" unicode="&#x140;" horiz-adv-x="437" 
d="M233 700v-527c0 -30 17 -43 53 -43h36l21 -120c-28 -16 -98 -23 -134 -23c-97 0 -157 51 -157 138v575h181zM387 317h-55c-35 0 -51 16 -51 49v50c0 33 16 49 51 49h55c34 0 51 -16 51 -49v-50c0 -33 -17 -49 -51 -49z" />
    <glyph glyph-name="lslash" unicode="&#x142;" horiz-adv-x="375" 
d="M349 130l20 -120c-27 -16 -98 -23 -133 -23c-97 0 -157 51 -157 138v171l-71 -28v94l71 28v310h181v-239l89 35v-94l-89 -35v-194c0 -30 17 -43 53 -43h36z" />
    <glyph glyph-name="m" unicode="m" horiz-adv-x="882" 
d="M693 511c93 0 141 -48 141 -139v-372h-181v315c0 31 -10 42 -41 42c-23 0 -42 -6 -82 -26v-331h-175v315c0 32 -13 42 -42 42c-24 0 -41 -5 -81 -24v-333h-181v497h143l15 -73c59 58 112 87 183 87c67 0 110 -26 128 -77c55 52 107 77 173 77z" />
    <glyph glyph-name="n" unicode="n" horiz-adv-x="611" 
d="M419 511c94 0 144 -48 144 -139v-372h-182v315c0 32 -11 42 -41 42s-60 -7 -107 -26v-331h-182v497h145l15 -73c68 57 140 87 208 87z" />
    <glyph glyph-name="nacute" unicode="&#x144;" horiz-adv-x="611" 
d="M272 536l-51 76l218 149l74 -119zM419 511c94 0 144 -48 144 -139v-372h-182v315c0 32 -11 42 -41 42s-60 -7 -107 -26v-331h-182v497h145l15 -73c68 57 140 87 208 87z" />
    <glyph glyph-name="ncaron" unicode="&#x148;" horiz-adv-x="611" 
d="M278 551l-159 131l46 69l145 -78h8l146 78l45 -69l-158 -131h-73zM419 511c94 0 144 -48 144 -139v-372h-182v315c0 32 -11 42 -41 42s-60 -7 -107 -26v-331h-182v497h145l15 -73c68 57 140 87 208 87z" />
    <glyph glyph-name="ncommaaccent" unicode="&#x146;" horiz-adv-x="611" 
d="M419 511c94 0 144 -48 144 -139v-372h-182v315c0 32 -11 42 -41 42s-60 -7 -107 -26v-331h-182v497h145l15 -73c68 57 140 87 208 87zM280 -42h34c43 0 57 -12 57 -49v-50c0 -70 -20 -111 -54 -153l-64 17c12 34 15 68 15 103c-31 0 -47 16 -47 43l2 40c1 37 15 49 57 49
z" />
    <glyph glyph-name="eng" unicode="&#x14b;" horiz-adv-x="611" 
d="M419 511c95 0 144 -48 144 -139v-406c0 -104 -54 -163 -149 -163c-37 0 -106 7 -138 23l20 117h38c30 0 47 12 47 39v333c0 29 -10 40 -42 40c-29 0 -62 -8 -106 -25v-330h-182v497h142l16 -74c69 59 143 88 210 88z" />
    <glyph glyph-name="ntilde" unicode="&#xf1;" horiz-adv-x="611" 
d="M207 568h-76c-19 110 31 160 83 156c67 -5 111 -35 165 -45c31 -5 33 8 33 40h76c18 -103 -23 -160 -83 -156c-68 5 -120 38 -166 46c-31 5 -32 -8 -32 -41zM419 511c94 0 144 -48 144 -139v-372h-182v315c0 32 -11 42 -41 42s-60 -7 -107 -26v-331h-182v497h145l15 -73
c68 57 140 87 208 87z" />
    <glyph glyph-name="o" unicode="o" horiz-adv-x="600" 
d="M300 511c196 0 268 -71 268 -263c0 -191 -72 -260 -268 -260c-195 0 -268 69 -268 260c0 192 73 263 268 263zM300 383c-62 0 -77 -25 -77 -135c0 -109 15 -133 77 -133c61 0 77 24 77 133c0 110 -16 135 -77 135z" />
    <glyph glyph-name="oacute" unicode="&#xf3;" horiz-adv-x="600" 
d="M501 642l-241 -106l-51 76l218 149zM300 511c195 0 267 -71 267 -263c0 -191 -72 -260 -267 -260c-196 0 -268 69 -268 260c0 192 72 263 268 263zM301 383c-62 0 -78 -25 -78 -135c0 -109 16 -133 78 -133c61 0 77 24 77 133c0 110 -16 135 -77 135z" />
    <glyph glyph-name="ocircumflex" unicode="&#xf4;" horiz-adv-x="600" 
d="M503 592l-45 -63l-151 94h-8l-153 -94l-46 68l138 133h131zM300 511c195 0 267 -71 267 -263c0 -191 -72 -260 -267 -260c-196 0 -268 69 -268 260c0 192 72 263 268 263zM301 383c-62 0 -78 -25 -78 -135c0 -109 16 -133 78 -133c61 0 77 24 77 133
c0 110 -16 135 -77 135z" />
    <glyph glyph-name="odieresis" unicode="&#xf6;" horiz-adv-x="600" 
d="M178 710h59c25 0 36 -12 36 -36v-60c0 -25 -11 -37 -36 -37h-59c-24 0 -36 12 -36 37v60c0 24 12 36 36 36zM364 710h59c24 0 36 -12 36 -36v-60c0 -25 -12 -37 -36 -37h-59c-25 0 -37 12 -37 37v60c0 24 12 36 37 36zM300 511c195 0 267 -71 267 -263
c0 -191 -72 -260 -267 -260c-196 0 -268 69 -268 260c0 192 72 263 268 263zM301 383c-62 0 -78 -25 -78 -135c0 -109 16 -133 78 -133c61 0 77 24 77 133c0 110 -16 135 -77 135z" />
    <glyph glyph-name="ograve" unicode="&#xf2;" horiz-adv-x="600" 
d="M389 612l-51 -76l-241 106l74 119zM300 511c195 0 267 -71 267 -263c0 -191 -72 -260 -267 -260c-196 0 -268 69 -268 260c0 192 72 263 268 263zM301 383c-62 0 -78 -25 -78 -135c0 -109 16 -133 78 -133c61 0 77 24 77 133c0 110 -16 135 -77 135z" />
    <glyph glyph-name="ohungarumlaut" unicode="&#x151;" horiz-adv-x="600" 
d="M350 697l-162 -172l-72 58l119 190zM553 697l-162 -172l-72 58l119 190zM300 511c195 0 267 -71 267 -263c0 -191 -72 -260 -267 -260c-196 0 -268 69 -268 260c0 192 72 263 268 263zM301 383c-62 0 -78 -25 -78 -135c0 -109 16 -133 78 -133c61 0 77 24 77 133
c0 110 -16 135 -77 135z" />
    <glyph glyph-name="omacron" unicode="&#x14d;" horiz-adv-x="600" 
d="M458 589h-310v110h310v-110zM300 511c195 0 267 -71 267 -263c0 -191 -72 -260 -267 -260c-196 0 -268 69 -268 260c0 192 72 263 268 263zM301 383c-62 0 -78 -25 -78 -135c0 -109 16 -133 78 -133c61 0 77 24 77 133c0 110 -16 135 -77 135z" />
    <glyph glyph-name="oslash" unicode="&#xf8;" horiz-adv-x="600" 
d="M516 543l-35 -71c61 -40 86 -111 86 -224c0 -191 -72 -260 -267 -260c-18 0 -35 1 -51 2l-44 -92l-123 62l33 68c-59 39 -83 109 -83 220c0 192 72 263 268 263c16 0 32 -1 47 -2l46 97zM301 115c61 0 77 24 77 133c0 110 -16 135 -77 135c-62 0 -78 -25 -78 -135
c0 -109 16 -133 78 -133z" />
    <glyph glyph-name="otilde" unicode="&#xf5;" horiz-adv-x="600" 
d="M202 724c67 -5 111 -35 165 -45c31 -5 33 8 33 40h76c18 -103 -23 -160 -83 -156c-68 5 -120 38 -166 46c-31 5 -32 -8 -32 -41h-76c-19 110 31 160 83 156zM300 511c195 0 267 -71 267 -263c0 -191 -72 -260 -267 -260c-196 0 -268 69 -268 260c0 192 72 263 268 263z
M301 383c-62 0 -78 -25 -78 -135c0 -109 16 -133 78 -133c61 0 77 24 77 133c0 110 -16 135 -77 135z" />
    <glyph glyph-name="oe" unicode="&#x153;" horiz-adv-x="907" 
d="M659 128c39 0 113 3 190 11l17 -111c-65 -32 -148 -41 -228 -41c-73 0 -129 12 -170 36c-41 -24 -97 -35 -171 -35c-194 0 -265 69 -265 260c0 192 71 263 265 263c74 0 129 -11 170 -35c40 23 95 33 166 33c178 0 246 -61 246 -171c1 -100 -45 -137 -184 -137h-136
c9 -57 34 -73 100 -73zM636 387c-58 0 -76 -14 -79 -93h95c44 0 53 8 52 47c-1 36 -20 46 -68 46zM297 115c56 0 75 20 78 104l-1 26c0 10 0 20 1 30c-3 87 -21 108 -76 108c-61 0 -75 -25 -75 -135c0 -109 14 -133 73 -133z" />
    <glyph glyph-name="p" unicode="p" horiz-adv-x="611" 
d="M401 509c126 0 176 -97 176 -266c0 -201 -65 -256 -189 -256c-59 0 -116 12 -159 45c3 -35 5 -72 4 -108v-109h-182v682h146l15 -70c35 46 111 82 189 82zM319 111c51 0 71 17 71 131c0 113 -19 132 -65 132c-38 0 -61 -12 -92 -31v-215c27 -9 50 -17 86 -17z" />
    <glyph glyph-name="thorn" unicode="&#xfe;" horiz-adv-x="608" 
d="M394 509c131 0 180 -93 180 -266c0 -202 -62 -257 -186 -257c-58 0 -115 12 -159 42c3 -34 5 -70 4 -104v-109h-182v885h182v-116c1 -44 -3 -91 -6 -133c36 34 89 58 167 58zM316 110c51 0 71 19 71 132c0 114 -20 133 -68 133c-35 0 -59 -13 -86 -29v-218
c26 -10 51 -18 83 -18z" />
    <glyph glyph-name="q" unicode="q" horiz-adv-x="606" 
d="M290 511c71 0 207 -12 266 -41v-655h-181l-1 137c0 40 4 82 14 118c-41 -41 -103 -82 -172 -82c-132 0 -183 90 -183 257c0 157 43 266 257 266zM220 244c0 -84 14 -109 70 -109c34 0 58 10 85 22v220c-28 5 -61 8 -82 7c-56 -3 -73 -28 -73 -140z" />
    <glyph glyph-name="r" unicode="r" horiz-adv-x="440" 
d="M434 511l-16 -167h-48c-36 0 -75 -6 -137 -21v-323h-182v497h142l16 -73c65 58 133 87 198 87h27z" />
    <glyph glyph-name="racute" unicode="&#x155;" horiz-adv-x="440" 
d="M201 536l-51 76l218 149l74 -119zM193 497l16 -73c64 58 133 87 197 87h28l-17 -167h-47c-36 0 -75 -6 -137 -21v-323h-182v497h142z" />
    <glyph glyph-name="rcaron" unicode="&#x159;" horiz-adv-x="440" 
d="M208 551l-159 131l46 69l145 -78h8l146 78l45 -69l-158 -131h-73zM193 497l16 -73c64 58 133 87 197 87h28l-17 -167h-47c-36 0 -75 -6 -137 -21v-323h-182v497h142z" />
    <glyph glyph-name="rcommaaccent" unicode="&#x157;" horiz-adv-x="440" 
d="M434 511l-17 -167h-47c-36 0 -75 -6 -137 -21v-323h-182v497h142l16 -73c64 58 133 87 197 87h28zM114 -42h34c43 0 57 -12 57 -49v-50c0 -70 -20 -111 -54 -153l-64 17c12 34 15 67 15 103c-31 0 -47 16 -47 43l2 40c1 37 15 49 57 49z" />
    <glyph glyph-name="s" unicode="s" horiz-adv-x="541" 
d="M252 511c76 -1 181 -9 243 -21l-11 -110c-66 1 -133 1 -194 1c-72 0 -84 1 -84 -21c0 -20 14 -20 61 -33l120 -32c87 -24 128 -61 128 -147c0 -125 -68 -159 -235 -159c-43 0 -139 2 -242 19l11 110c30 0 106 -1 175 -1c97 0 115 3 115 26c0 20 -17 20 -67 35l-116 32
c-103 29 -126 79 -126 157c0 96 56 144 222 144z" />
    <glyph glyph-name="sacute" unicode="&#x15b;" horiz-adv-x="541" 
d="M474 642l-241 -106l-51 76l218 149zM252 511c76 -1 181 -9 243 -21l-11 -110c-66 1 -133 1 -194 1c-72 0 -84 1 -84 -21c0 -20 14 -20 61 -33l120 -32c87 -24 128 -61 128 -147c0 -125 -68 -159 -235 -159c-43 0 -139 2 -242 19l11 110c30 0 106 -1 175 -1
c97 0 115 3 115 26c0 20 -17 20 -67 35l-116 32c-103 29 -126 79 -126 157c0 96 56 144 222 144z" />
    <glyph glyph-name="scaron" unicode="&#x161;" horiz-adv-x="541" 
d="M470 682l-158 -131h-73l-159 131l46 69l145 -78h8l146 78zM252 511c76 -1 181 -9 243 -21l-11 -110c-66 1 -133 1 -194 1c-72 0 -84 1 -84 -21c0 -20 14 -20 61 -33l120 -32c87 -24 128 -61 128 -147c0 -125 -68 -159 -235 -159c-43 0 -139 2 -242 19l11 110
c30 0 106 -1 175 -1c97 0 115 3 115 26c0 20 -17 20 -67 35l-116 32c-103 29 -126 79 -126 157c0 96 56 144 222 144z" />
    <glyph glyph-name="scedilla" unicode="&#x15f;" horiz-adv-x="541" 
d="M252 511c76 -1 181 -9 243 -21l-11 -110c-66 1 -133 1 -194 1c-72 0 -84 1 -84 -21c0 -20 14 -20 61 -33l120 -32c87 -24 128 -61 128 -147c0 -125 -68 -159 -235 -159c-43 0 -139 2 -242 19l11 110c30 0 106 -1 175 -1c97 0 115 3 115 26c0 20 -17 20 -67 35l-116 32
c-103 29 -126 79 -126 157c0 96 56 144 222 144zM180 -116l17 66c114 12 165 11 161 -65c-4 -109 -100 -158 -218 -142l20 72c45 0 83 10 87 54c1 16 -8 15 -67 15z" />
    <glyph glyph-name="scommaaccent" unicode="&#x219;" horiz-adv-x="541" 
d="M252 511c76 -1 181 -9 243 -21l-11 -110c-66 1 -133 1 -194 1c-72 0 -84 1 -84 -21c0 -20 14 -20 61 -33l120 -32c87 -24 128 -61 128 -147c0 -125 -68 -159 -235 -159c-43 0 -139 2 -242 19l11 110c30 0 106 -1 175 -1c97 0 115 3 115 26c0 20 -17 20 -67 35l-116 32
c-103 29 -126 79 -126 157c0 96 56 144 222 144zM247 -42h34c43 0 57 -12 57 -49v-50c0 -70 -20 -111 -54 -153l-64 17c12 34 15 67 15 103c-31 0 -47 16 -47 43l2 40c1 37 15 49 57 49z" />
    <glyph glyph-name="germandbls" unicode="&#xdf;" horiz-adv-x="723" 
d="M564 316l63 -44c62 -47 83 -69 83 -135c0 -100 -48 -148 -200 -148c-52 0 -103 4 -175 11l12 115c38 -1 75 -1 120 -1c46 0 60 1 60 30c0 26 -33 46 -75 78l-48 29c-45 32 -72 65 -72 118c0 51 32 70 75 119c30 36 40 51 40 78c0 33 -12 46 -82 46c-71 0 -87 -13 -87 -73
v-539h-182v383h-83v110l83 4v64c0 136 77 176 266 176c202 0 251 -45 251 -160c0 -41 -7 -67 -55 -118c-30 -30 -55 -52 -55 -78c0 -24 28 -40 61 -65z" />
    <glyph glyph-name="t" unicode="t" horiz-adv-x="426" 
d="M282 383v-210c0 -32 12 -43 47 -43h58l20 -120c-40 -16 -115 -23 -156 -23c-94 0 -151 52 -151 141l-1 255h-85v109l85 4v135h183v-134h128v-114h-128z" />
    <glyph glyph-name="tbar" unicode="&#x167;" horiz-adv-x="426" 
d="M281 383v-60h93v-84h-93v-66c0 -32 13 -43 48 -43h58l20 -120c-41 -16 -115 -23 -156 -23c-94 0 -151 52 -151 141v111h-58v84h58l-1 60h-85v109l85 4v135h182v-134h129v-114h-129z" />
    <glyph glyph-name="tcaron" unicode="&#x165;" horiz-adv-x="426" 
d="M352 803h34c43 0 57 -12 57 -49v-50c0 -70 -20 -111 -54 -153l-64 17c12 34 15 67 15 103c-31 0 -47 16 -47 43l2 40c1 37 15 49 57 49zM281 497h129v-114h-129v-210c0 -32 13 -43 48 -43h58l20 -120c-41 -16 -115 -23 -156 -23c-94 0 -151 52 -151 141l-1 255h-85v109
l85 4v135h182v-134z" />
    <glyph glyph-name="tcedilla" unicode="&#x163;" horiz-adv-x="426" 
d="M281 383v-210c0 -32 13 -43 48 -43h58l20 -120c-41 -16 -115 -23 -156 -23c-94 0 -151 52 -151 141l-1 255h-85v109l85 4v135h182v-134h129v-114h-129zM155 -118l17 66c114 12 165 11 161 -65c-4 -109 -100 -158 -218 -142l20 72c45 0 83 10 87 54c1 16 -8 15 -67 15z
" />
    <glyph glyph-name="uni021B" unicode="&#x21b;" horiz-adv-x="426" 
d="M281 383v-210c0 -32 13 -43 48 -43h58l20 -120c-41 -16 -115 -23 -156 -23c-94 0 -151 52 -151 141l-1 255h-85v109l85 4v135h182v-134h129v-114h-129zM220 -49h34c43 0 57 -12 57 -49v-50c0 -70 -20 -111 -54 -153l-64 17c12 34 15 67 15 103c-31 0 -47 16 -47 43l2 40
c1 37 15 49 57 49z" />
    <glyph glyph-name="u" unicode="u" horiz-adv-x="604" 
d="M553 497v-497h-144l-15 71c-67 -57 -130 -85 -202 -85c-95 0 -144 48 -144 139v372h182v-315c0 -31 12 -43 44 -43c28 0 54 7 96 25v333h183z" />
    <glyph glyph-name="uacute" unicode="&#xfa;" horiz-adv-x="604" 
d="M261 545l-51 76l218 149l74 -119zM552 497v-497h-143l-16 71c-66 -57 -129 -85 -201 -85c-95 0 -144 48 -144 139v372h182v-315c0 -31 12 -43 44 -43c28 0 54 7 96 25v333h182z" />
    <glyph glyph-name="ucircumflex" unicode="&#xfb;" horiz-adv-x="604" 
d="M147 538l-46 68l138 133h131l134 -138l-45 -63l-151 94h-8zM552 497v-497h-143l-16 71c-66 -57 -129 -85 -201 -85c-95 0 -144 48 -144 139v372h182v-315c0 -31 12 -43 44 -43c28 0 54 7 96 25v333h182z" />
    <glyph glyph-name="udieresis" unicode="&#xfc;" horiz-adv-x="604" 
d="M239 586h-59c-24 0 -36 12 -36 37v60c0 24 12 36 36 36h59c25 0 36 -12 36 -36v-60c0 -25 -11 -37 -36 -37zM425 586h-59c-25 0 -37 12 -37 37v60c0 24 12 36 37 36h59c24 0 36 -12 36 -36v-60c0 -25 -12 -37 -36 -37zM552 497v-497h-143l-16 71
c-66 -57 -129 -85 -201 -85c-95 0 -144 48 -144 139v372h182v-315c0 -31 12 -43 44 -43c28 0 54 7 96 25v333h182z" />
    <glyph glyph-name="ugrave" unicode="&#xf9;" horiz-adv-x="604" 
d="M340 545l-241 106l74 119l218 -149zM552 497v-497h-143l-16 71c-66 -57 -129 -85 -201 -85c-95 0 -144 48 -144 139v372h182v-315c0 -31 12 -43 44 -43c28 0 54 7 96 25v333h182z" />
    <glyph glyph-name="uhungarumlaut" unicode="&#x171;" horiz-adv-x="604" 
d="M189 534l-72 58l119 190l115 -76zM320 592l119 190l115 -76l-162 -172zM370 497h182v-497h-143l-16 71c-66 -57 -129 -85 -201 -85c-95 0 -144 48 -144 139v372h182v-315c0 -31 12 -43 44 -43c28 0 54 7 96 25v333z" />
    <glyph glyph-name="umacron" unicode="&#x16b;" horiz-adv-x="604" 
d="M459 598h-310v110h310v-110zM552 497v-497h-143l-16 71c-66 -57 -129 -85 -201 -85c-95 0 -144 48 -144 139v372h182v-315c0 -31 12 -43 44 -43c28 0 54 7 96 25v333h182z" />
    <glyph glyph-name="uogonek" unicode="&#x173;" horiz-adv-x="604" 
d="M555 -128l13 -64c-155 -59 -212 12 -188 84c11 32 41 71 100 108h-71l-16 71c-66 -57 -129 -85 -201 -85c-95 0 -144 48 -144 139v372h182v-315c0 -31 12 -43 44 -43c28 0 54 7 96 25v333h182v-497h2c-19 -30 -37 -57 -53 -93c-18 -39 11 -44 54 -35z" />
    <glyph glyph-name="uring" unicode="&#x16f;" horiz-adv-x="604" 
d="M304 536c-68 0 -124 53 -124 121c0 67 57 120 124 120s124 -53 124 -120c0 -68 -56 -121 -124 -121zM304 705c-26 0 -47 -21 -47 -48c0 -28 21 -48 47 -48s47 20 47 48c0 27 -21 48 -47 48zM552 497v-497h-143l-16 71c-66 -57 -129 -85 -201 -85c-95 0 -144 48 -144 139
v372h182v-315c0 -31 12 -43 44 -43c28 0 54 7 96 25v333h182z" />
    <glyph glyph-name="v" unicode="v" horiz-adv-x="584" 
d="M582 497l-154 -454c-9 -26 -30 -43 -58 -43h-156c-28 0 -50 17 -58 43l-154 454h192l74 -291c7 -30 12 -61 17 -91h13l18 91l74 291h192z" />
    <glyph glyph-name="w" unicode="w" horiz-adv-x="863" 
d="M851 497l-110 -450c-7 -29 -31 -47 -61 -47h-133c-32 0 -59 22 -63 54l-38 251c-4 29 -6 56 -9 86h-12c-3 -30 -6 -57 -10 -86l-38 -251c-4 -32 -31 -54 -63 -54h-131c-30 0 -54 18 -61 47l-110 450h181l50 -299c4 -29 8 -57 10 -85h12c3 28 7 56 11 85l38 246
c4 31 30 53 62 53h110c32 0 58 -22 62 -54l37 -245c4 -29 9 -57 12 -85h12c3 28 6 56 11 85l49 299h182z" />
    <glyph glyph-name="wacute" unicode="&#x1e83;" horiz-adv-x="863" 
d="M632 642l-241 -106l-51 76l218 149zM852 497l-111 -450c-6 -29 -30 -47 -60 -47h-133c-32 0 -60 22 -64 54l-38 251c-4 29 -5 56 -8 86h-13l-9 -86l-38 -251c-4 -32 -31 -54 -64 -54h-131c-30 0 -54 18 -60 47l-111 450h181l51 -299c3 -29 7 -57 9 -85h13
c2 28 7 56 10 85l38 246c4 31 30 53 63 53h110c32 0 58 -22 62 -54l37 -245c3 -29 9 -57 11 -85h13c3 28 5 56 10 85l50 299h182z" />
    <glyph glyph-name="wcircumflex" unicode="&#x175;" horiz-adv-x="863" 
d="M633 592l-45 -63l-151 94h-8l-153 -94l-46 68l138 133h131zM852 497l-111 -450c-6 -29 -30 -47 -60 -47h-133c-32 0 -60 22 -64 54l-38 251c-4 29 -5 56 -8 86h-13l-9 -86l-38 -251c-4 -32 -31 -54 -64 -54h-131c-30 0 -54 18 -60 47l-111 450h181l51 -299
c3 -29 7 -57 9 -85h13c2 28 7 56 10 85l38 246c4 31 30 53 63 53h110c32 0 58 -22 62 -54l37 -245c3 -29 9 -57 11 -85h13c3 28 5 56 10 85l50 299h182z" />
    <glyph glyph-name="wdieresis" unicode="&#x1e85;" horiz-adv-x="863" 
d="M309 710h59c25 0 36 -12 36 -36v-60c0 -25 -11 -37 -36 -37h-59c-24 0 -36 12 -36 37v60c0 24 12 36 36 36zM495 710h59c24 0 36 -12 36 -36v-60c0 -25 -12 -37 -36 -37h-59c-25 0 -37 12 -37 37v60c0 24 12 36 37 36zM852 497l-111 -450c-6 -29 -30 -47 -60 -47h-133
c-32 0 -60 22 -64 54l-38 251c-4 29 -5 56 -8 86h-13l-9 -86l-38 -251c-4 -32 -31 -54 -64 -54h-131c-30 0 -54 18 -60 47l-111 450h181l51 -299c3 -29 7 -57 9 -85h13c2 28 7 56 10 85l38 246c4 31 30 53 63 53h110c32 0 58 -22 62 -54l37 -245c3 -29 9 -57 11 -85h13
c3 28 5 56 10 85l50 299h182z" />
    <glyph glyph-name="wgrave" unicode="&#x1e81;" horiz-adv-x="863" 
d="M520 612l-51 -76l-241 106l74 119zM852 497l-111 -450c-6 -29 -30 -47 -60 -47h-133c-32 0 -60 22 -64 54l-38 251c-4 29 -5 56 -8 86h-13l-9 -86l-38 -251c-4 -32 -31 -54 -64 -54h-131c-30 0 -54 18 -60 47l-111 450h181l51 -299c3 -29 7 -57 9 -85h13c2 28 7 56 10 85
l38 246c4 31 30 53 63 53h110c32 0 58 -22 62 -54l37 -245c3 -29 9 -57 11 -85h13c3 28 5 56 10 85l50 299h182z" />
    <glyph glyph-name="x" unicode="x" horiz-adv-x="587" 
d="M402 0l-108 200l-109 -200h-182l148 254l-137 243h182l98 -187l97 187h182l-137 -243l148 -254h-182z" />
    <glyph glyph-name="y" unicode="y" horiz-adv-x="584" 
d="M581 497l-166 -492c-33 -104 -119 -236 -305 -204l-13 101c79 18 122 46 148 98h-32c-28 0 -50 17 -58 43l-153 454h193l74 -296c6 -28 10 -56 14 -85h11c8 29 15 62 20 85l74 296h193z" />
    <glyph glyph-name="yacute" unicode="&#xfd;" horiz-adv-x="584" 
d="M253 536l-51 76l218 149l74 -119zM582 497l-166 -492c-34 -104 -119 -236 -306 -204l-13 101c79 18 123 46 148 98h-31c-28 0 -50 17 -58 43l-154 454h193l74 -296c6 -28 10 -56 14 -85h11c9 29 15 62 21 85l73 296h194z" />
    <glyph glyph-name="ycircumflex" unicode="&#x177;" horiz-adv-x="584" 
d="M139 529l-46 68l138 133h131l134 -138l-45 -63l-151 94h-8zM582 497l-166 -492c-34 -104 -119 -236 -306 -204l-13 101c79 18 123 46 148 98h-31c-28 0 -50 17 -58 43l-154 454h193l74 -296c6 -28 10 -56 14 -85h11c9 29 15 62 21 85l73 296h194z" />
    <glyph glyph-name="ydieresis" unicode="&#xff;" horiz-adv-x="584" 
d="M231 577h-59c-24 0 -36 12 -36 37v60c0 24 12 36 36 36h59c25 0 36 -12 36 -36v-60c0 -25 -11 -37 -36 -37zM417 577h-59c-25 0 -37 12 -37 37v60c0 24 12 36 37 36h59c24 0 36 -12 36 -36v-60c0 -25 -12 -37 -36 -37zM582 497l-166 -492c-34 -104 -119 -236 -306 -204
l-13 101c79 18 123 46 148 98h-31c-28 0 -50 17 -58 43l-154 454h193l74 -296c6 -28 10 -56 14 -85h11c9 29 15 62 21 85l73 296h194z" />
    <glyph glyph-name="ygrave" unicode="&#x1ef3;" horiz-adv-x="584" 
d="M332 536l-241 106l74 119l218 -149zM582 497l-166 -492c-34 -104 -119 -236 -306 -204l-13 101c79 18 123 46 148 98h-31c-28 0 -50 17 -58 43l-154 454h193l74 -296c6 -28 10 -56 14 -85h11c9 29 15 62 21 85l73 296h194z" />
    <glyph glyph-name="z" unicode="z" horiz-adv-x="534" 
d="M500 122v-122h-466v122l250 253h-245v122h455v-122l-250 -253h256z" />
    <glyph glyph-name="zacute" unicode="&#x17a;" horiz-adv-x="534" 
d="M229 536l-51 76l218 149l74 -119zM500 122v-122h-466v122l250 253h-245v122h455v-122l-250 -253h256z" />
    <glyph glyph-name="zcaron" unicode="&#x17e;" horiz-adv-x="534" 
d="M235 551l-159 131l46 69l145 -78h8l146 78l45 -69l-158 -131h-73zM500 122v-122h-466v122l250 253h-245v122h455v-122l-250 -253h256z" />
    <glyph glyph-name="zdotaccent" unicode="&#x17c;" horiz-adv-x="534" 
d="M299 566h-55c-35 0 -52 17 -52 50v50c0 33 17 49 52 49h55c34 0 51 -16 51 -49v-50c0 -33 -17 -50 -51 -50zM500 122v-122h-466v122l250 253h-245v122h455v-122l-250 -253h256z" />
    <glyph glyph-name="uni00630074" horiz-adv-x="872" 
d="M728 383v-210c0 -32 13 -43 48 -43h57l20 -120c-40 -16 -114 -23 -156 -23c-94 0 -151 52 -151 141l-1 255h-222c-76 0 -100 -28 -100 -134c0 -92 24 -116 100 -116c28 0 81 1 132 8l16 -115c-49 -28 -118 -38 -181 -38c-190 0 -258 69 -258 261c0 182 73 248 260 248
h253v134h183v-134h128v-114h-128z" />
    <glyph glyph-name="f_f" horiz-adv-x="782" 
d="M793 597h-94c-43 0 -57 -15 -57 -58v-42h131v-114h-131v-383h-176v383h-191v-383h-177v383h-85v109l85 5v57c2 93 48 158 172 158c34 0 111 -3 152 -12l-17 -113h-74c-43 0 -56 -13 -56 -58v-32h191v67c0 93 44 158 171 158c39 0 125 -3 173 -12z" />
    <glyph glyph-name="f_f_i" horiz-adv-x="1061" 
d="M877 728h77c36 0 53 -18 53 -53v-53c0 -36 -17 -53 -53 -53h-77c-37 0 -54 17 -54 53v53c0 35 17 53 54 53zM1006 497v-497h-183v383h-183v-383h-176v383h-192v-383h-177v383h-82v109l82 5v57c2 93 48 158 172 158c34 0 111 -3 152 -12l-17 -113h-74
c-42 0 -56 -13 -56 -58v-32h192v63c0 96 44 162 173 162c36 0 94 -3 137 -12v-113h-72c-49 0 -62 -16 -62 -61v-39h366z" />
    <glyph glyph-name="f_f_l" horiz-adv-x="1118" 
d="M1096 126l20 -116c-27 -16 -95 -23 -130 -23c-93 0 -149 50 -149 134v478h-140c-36 0 -55 -15 -55 -63v-39h119v-114h-119v-383h-176v383h-191v-383h-177v383h-85v109l85 5v57c2 93 48 158 172 158c34 0 111 -3 152 -12l-17 -113h-74c-43 0 -56 -13 -56 -58v-32h191v63
c0 96 44 163 171 162c48 0 261 2 381 -21v-532c0 -30 16 -43 47 -43h31z" />
    <glyph glyph-name="uni006600660079" horiz-adv-x="1313" 
d="M1311 497l-167 -492c-33 -104 -118 -236 -305 -204l-13 101c79 18 122 46 148 98h-31c-28 0 -50 17 -58 43l-104 305c-8 24 -24 35 -48 35h-90v-383h-178v383h-190v-383h-177v383h-85v109l85 5v57c2 93 48 158 172 158c34 0 111 -3 152 -12l-17 -113h-74
c-43 0 -56 -13 -56 -58v-32h190v67c0 93 45 158 174 158c38 0 120 -3 167 -12l-17 -113h-90c-43 0 -56 -15 -56 -58v-42h154c85 0 136 -41 156 -123l45 -173c6 -28 10 -56 14 -85h11c8 28 15 61 21 85l73 296h194z" />
    <glyph glyph-name="uni00660074" horiz-adv-x="789" 
d="M644 383v-210c0 -32 13 -43 48 -43h58l20 -120c-40 -16 -115 -23 -156 -23c-94 0 -151 52 -151 141l-1 255h-181v-383h-183v383h-85v109l85 5v67c0 93 45 158 174 158c33 0 108 -3 148 -12l-17 -113h-66c-43 0 -56 -15 -56 -58v-42h181v134h182v-134h129v-114h-129z" />
    <glyph glyph-name="uni00660079" horiz-adv-x="946" 
d="M944 497l-167 -492c-33 -104 -118 -236 -305 -204l-13 101c79 18 122 46 148 98h-31c-28 0 -50 17 -58 43l-104 305c-8 24 -24 35 -48 35h-85v-383h-183v383h-85v109l85 5v67c0 93 45 158 174 158c38 0 125 -3 172 -12l-17 -113h-90c-43 0 -56 -15 -56 -58v-42h149
c85 0 136 -41 156 -123l45 -173c6 -28 10 -56 14 -85h11c9 28 16 62 21 85l73 296h194z" />
    <glyph glyph-name="fi" unicode="&#xfb01;" horiz-adv-x="700" 
d="M515 728h77c37 0 54 -18 54 -53v-53c0 -36 -17 -53 -54 -53h-77c-36 0 -53 17 -53 53v53c0 35 17 53 53 53zM645 497v-497h-183v383h-182v-383h-183v383h-84v109l84 5v63c0 96 45 162 174 162c35 0 99 -3 142 -12v-113h-78c-42 0 -55 -16 -55 -61v-39h365z" />
    <glyph glyph-name="fl" unicode="&#xfb02;" horiz-adv-x="750" 
d="M727 126l20 -116c-27 -16 -95 -23 -130 -23c-93 0 -150 50 -150 134v478h-134c-41 0 -55 -15 -55 -63v-39h114v-114h-114v-383h-182v383h-83v109l83 5v63c0 96 44 163 172 162c48 0 261 2 381 -21v-532c0 -30 15 -43 46 -43h32z" />
    <glyph glyph-name="s_t" horiz-adv-x="909" 
d="M765 383v-210c0 -32 13 -43 48 -43h57l20 -120c-40 -16 -114 -23 -156 -23c-93 0 -151 52 -151 141v254h-293c-72 0 -84 1 -84 -20c0 -20 14 -20 61 -33l120 -34c82 -24 121 -61 121 -147c0 -125 -66 -159 -228 -159c-43 0 -139 2 -242 19l11 110c30 0 112 -1 175 -1
c84 0 108 3 108 26c0 20 -20 24 -60 35l-116 32c-103 29 -126 79 -126 157c0 86 56 130 222 130h331v134h182v-134h128v-114h-128z" />
    <glyph glyph-name="uni00740074" horiz-adv-x="805" 
d="M660 383v-210c0 -32 13 -43 48 -43h58l20 -120c-41 -16 -115 -23 -156 -23c-94 0 -151 52 -151 141l-1 255h-196v-210c0 -32 12 -43 47 -43h58l20 -120c-40 -16 -115 -23 -156 -23c-94 0 -151 52 -151 141l-1 255h-85v109l85 4v135h183v-134h196v134h182v-134h128v-114
h-128z" />
    <glyph glyph-name="uni00740079" horiz-adv-x="970" 
d="M967 497l-166 -492c-33 -104 -119 -236 -306 -204l-13 101c79 18 123 45 148 98h-31c-28 0 -50 17 -58 43l-104 305c-7 24 -23 35 -47 35h-108v-210c0 -32 12 -43 47 -43h58l20 -120c-40 -16 -115 -23 -156 -23c-94 0 -151 52 -151 141l-1 255h-85v109l85 4v135h183v-134
h172c85 0 136 -41 156 -123l45 -173c5 -28 10 -56 14 -85h10c9 29 16 63 21 85l74 296h193z" />
    <glyph glyph-name="ordfeminine" unicode="&#xaa;" horiz-adv-x="435" 
d="M245 619c92 0 142 -31 142 -133v-210h-105l-12 49c-23 -29 -61 -58 -120 -58c-62 0 -112 32 -112 94v34c0 53 41 86 108 86h110v6c0 24 -11 34 -41 34c-38 0 -92 -1 -147 -4l-12 86c49 8 135 16 189 16zM165 391v-9c0 -15 10 -23 32 -23c19 0 40 8 59 20v41l-61 -6
c-21 -2 -30 -10 -30 -23z" />
    <glyph glyph-name="ordmasculine" unicode="&#xba;" horiz-adv-x="437" 
d="M219 619c135 0 184 -47 184 -177c0 -128 -49 -174 -184 -174c-136 0 -185 46 -185 174c0 130 49 177 185 177zM219 527c-38 0 -47 -14 -48 -85c1 -68 10 -83 48 -83c37 0 46 15 46 83c0 71 -9 85 -46 85z" />
    <glyph glyph-name="uni0410" unicode="&#x410;" horiz-adv-x="668" 
d="M440 164h-212l-41 -164h-192l189 641c7 30 33 49 63 49h174c30 0 56 -19 64 -49l188 -641h-192zM406 300l-45 177c-5 23 -11 49 -13 72h-27c-4 -23 -9 -49 -14 -72l-45 -177h144z" />
    <glyph glyph-name="uni0411" unicode="&#x411;" horiz-adv-x="635" 
d="M251 417h85c203 0 272 -49 272 -211c0 -175 -83 -214 -257 -214c-112 0 -193 1 -283 8h-5v690c84 5 169 8 247 8c88 0 170 -3 252 -8l-14 -138h-297v-135zM251 127h85c70 0 84 15 84 85c0 68 -13 86 -84 86h-85v-171z" />
    <glyph glyph-name="uni0412" unicode="&#x412;" horiz-adv-x="653" 
d="M473 361v-6c108 -9 145 -73 145 -183c0 -142 -73 -180 -242 -180c-142 0 -220 1 -313 8v690c84 7 156 8 281 8c186 0 252 -38 252 -180c0 -99 -35 -149 -123 -157zM417 492c0 60 -18 74 -83 74h-88v-151h93c61 0 78 15 78 77zM246 124h97c70 0 88 16 88 85
c0 73 -18 91 -90 91h-95v-176z" />
    <glyph glyph-name="uni0413" unicode="&#x413;" horiz-adv-x="544" 
d="M215 693c108 0 229 0 321 -12l-8 -134h-232c-32 0 -47 -15 -47 -45v-502h-188v541c0 90 64 152 154 152z" />
    <glyph glyph-name="uni0403" unicode="&#x403;" horiz-adv-x="544" 
d="M500 827l-241 -106l-51 76l218 149zM215 693c108 0 229 0 322 -12l-9 -134h-232c-32 0 -47 -15 -47 -45v-502h-188v541c0 90 64 152 154 152z" />
    <glyph glyph-name="uni0490" unicode="&#x490;" horiz-adv-x="547" 
d="M539 843v-165l-8 -131h-235c-32 0 -47 -15 -47 -45v-502h-188v541c0 90 64 152 154 152c60 0 125 0 186 -2l14 152h124z" />
    <glyph glyph-name="uni0414" unicode="&#x414;" horiz-adv-x="762" 
d="M745 128v-279h-135l-13 151h-435l-13 -151h-135v279h75c50 135 73 273 86 413c8 87 71 149 167 149h311v-562h92zM465 128v434h-63c-33 0 -49 -16 -52 -53c-18 -182 -39 -284 -85 -381h200z" />
    <glyph glyph-name="uni0415" unicode="&#x415;" horiz-adv-x="588" 
d="M546 143l9 -135c-97 -11 -228 -11 -342 -11c-93 0 -157 59 -157 148v400c0 89 64 148 157 148c114 0 245 0 342 -11l-9 -135h-258c-29 0 -44 -15 -44 -43v-84h266v-129h-266v-105c0 -28 15 -43 44 -43h258z" />
    <glyph glyph-name="uni0401" unicode="&#x401;" horiz-adv-x="588" 
d="M256 768h-60c-24 0 -36 12 -36 36v61c0 24 12 36 36 36h60c24 0 36 -12 36 -36v-61c0 -24 -12 -36 -36 -36zM442 768h-60c-24 0 -36 12 -36 36v61c0 24 12 36 36 36h60c24 0 36 -12 36 -36v-61c0 -24 -12 -36 -36 -36zM546 143l9 -135c-97 -11 -228 -11 -342 -11
c-93 0 -157 59 -157 148v400c0 89 64 148 157 148c114 0 245 0 342 -11l-9 -135h-258c-29 0 -44 -15 -44 -43v-84h266v-129h-266v-105c0 -28 15 -43 44 -43h258z" />
    <glyph glyph-name="uni0416" unicode="&#x416;" horiz-adv-x="954" 
d="M712 363v-6c140 -20 149 -74 230 -357h-197c-76 250 -83 295 -153 295h-33c5 -22 8 -45 8 -64v-231h-179v231c0 19 3 42 9 64h-36c-67 0 -74 -45 -152 -295h-196c81 283 90 337 229 357v6c-134 18 -137 80 -210 327h190c61 -207 74 -269 140 -269h35c-6 28 -9 58 -9 86
v183h179v-183c0 -28 -3 -58 -8 -86h32c67 0 79 62 141 269h190c-73 -247 -76 -309 -210 -327z" />
    <glyph glyph-name="uni0417" unicode="&#x417;" horiz-adv-x="577" 
d="M274 698c181 0 245 -38 245 -180c0 -99 -34 -149 -119 -157v-6c104 -9 140 -73 140 -183c0 -142 -71 -180 -235 -180c-122 0 -199 9 -281 34l14 125c89 -14 164 -21 230 -21c63 0 80 16 80 79c0 68 -18 85 -82 85l-143 3v121l142 3c53 0 68 14 68 71c0 55 -16 68 -72 68
c-74 0 -134 -5 -210 -14l-14 131c69 15 135 21 237 21z" />
    <glyph glyph-name="uni0418" unicode="&#x418;" horiz-adv-x="724" 
d="M660 0h-179v360c0 34 4 67 10 101h-7c-11 -35 -24 -68 -41 -99l-198 -362h-181v690h178v-351c0 -32 -4 -69 -10 -105h7c12 35 26 69 42 99l198 357h181v-690z" />
    <glyph glyph-name="uni0419" unicode="&#x419;" horiz-adv-x="724" 
d="M426 903h115c13 -84 -55 -164 -172 -164s-186 80 -173 164h115c-6 -60 16 -79 58 -79c41 0 63 19 57 79zM660 0h-179v360c0 34 4 67 10 101h-7c-10 -35 -24 -68 -40 -99l-198 -362h-182v690h179v-351c0 -32 -5 -69 -10 -105h6c12 35 26 69 43 99l197 357h181v-690z" />
    <glyph glyph-name="uni040D" unicode="&#x40d;" horiz-adv-x="724" 
d="M456 797l-51 -76l-241 106l74 119zM660 0h-179v360c0 34 4 67 10 101h-7c-10 -35 -24 -68 -40 -99l-198 -362h-182v690h179v-351c0 -32 -5 -69 -10 -105h6c12 35 26 69 43 99l197 357h181v-690z" />
    <glyph glyph-name="uni041A" unicode="&#x41a;" horiz-adv-x="661" 
d="M414 363v-6c142 -20 151 -74 236 -357h-196c-71 250 -79 295 -176 295h-35c5 -22 8 -45 8 -64v-231h-187v690h187v-183c0 -28 -3 -58 -9 -86h34c97 0 110 62 164 269h191c-76 -247 -80 -309 -217 -327z" />
    <glyph glyph-name="uni040C" unicode="&#x40c;" horiz-adv-x="661" 
d="M300 721l-51 76l218 149l74 -119zM414 363v-6c143 -20 152 -74 237 -357h-196c-72 250 -80 295 -177 295h-34c5 -22 8 -45 8 -64v-231h-188v690h188v-183c0 -28 -3 -58 -9 -86h33c97 0 111 62 165 269h190c-75 -247 -80 -309 -217 -327z" />
    <glyph glyph-name="uni041B" unicode="&#x41b;" horiz-adv-x="696" 
d="M632 690v-690h-188v562h-63c-36 0 -55 -17 -57 -51c-12 -144 -25 -272 -53 -355c-45 -142 -136 -179 -258 -160l-13 145c47 7 81 18 98 66c23 64 36 161 47 320c8 108 66 163 173 163h314z" />
    <glyph glyph-name="uni041C" unicode="&#x41c;" horiz-adv-x="939" 
d="M625 690h171c45 0 66 -23 68 -67l25 -623h-172l-22 547h-16l-84 -386c-7 -38 -32 -58 -73 -58h-106c-41 0 -66 20 -74 58l-85 386h-16l-19 -547h-171l24 623c2 44 23 67 68 67h168c40 0 65 -20 72 -59l66 -306c6 -33 10 -67 14 -100h11c5 33 9 67 15 101l63 305
c8 39 33 59 73 59z" />
    <glyph glyph-name="uni041D" unicode="&#x41d;" horiz-adv-x="708" 
d="M645 690v-690h-188v298h-206v-298h-187v690h187v-255h206v255h188z" />
    <glyph glyph-name="uni041E" unicode="&#x41e;" horiz-adv-x="697" 
d="M348 704c228 0 310 -78 310 -359s-82 -359 -310 -359s-309 78 -309 359s81 359 309 359zM348 560c-88 0 -112 -45 -112 -215s24 -215 112 -215s112 45 112 215s-24 215 -112 215z" />
    <glyph glyph-name="uni041F" unicode="&#x41f;" horiz-adv-x="705" 
d="M642 690v-690h-188v562h-203v-562h-187v690h578z" />
    <glyph glyph-name="uni0420" unicode="&#x420;" horiz-adv-x="635" 
d="M342 700c206 0 270 -50 270 -231c0 -180 -64 -230 -245 -230c-39 0 -79 3 -116 7v-246h-188v690c88 9 147 10 279 10zM251 376h86c68 0 87 19 87 93c0 75 -19 94 -87 94h-86v-187z" />
    <glyph glyph-name="uni0421" unicode="&#x421;" horiz-adv-x="596" 
d="M341 702c103 0 152 -7 218 -25l-14 -138c-68 2 -112 3 -204 3c-82 0 -105 -42 -105 -197s23 -197 105 -197c97 0 154 1 218 8l15 -137c-67 -23 -129 -31 -233 -31c-221 0 -302 94 -302 357s81 357 302 357z" />
    <glyph glyph-name="uni0422" unicode="&#x422;" horiz-adv-x="613" 
d="M599 545h-199v-545h-188v545h-198v145h585v-145z" />
    <glyph glyph-name="uni0423" unicode="&#x423;" horiz-adv-x="609" 
d="M612 690l-159 -507c-37 -122 -78 -185 -183 -195c-53 -5 -144 6 -191 14l20 130c114 -4 147 -7 165 43l5 19h-38c-58 0 -84 32 -99 82l-133 414h193l92 -349c1 -7 8 -11 16 -11h17l103 360h192z" />
    <glyph glyph-name="uni040E" unicode="&#x40e;" horiz-adv-x="609" 
d="M308 739c-117 0 -186 76 -173 162l85 12c0 -43 26 -62 88 -62c61 0 87 19 87 62l85 -12c13 -86 -55 -162 -172 -162zM612 690l-158 -507c-38 -122 -79 -185 -184 -195c-53 -5 -144 6 -191 14l20 130c114 -4 147 -7 166 43l5 19h-39c-57 0 -84 32 -99 82l-132 414h192
l92 -349c2 -7 9 -11 17 -11h16l103 360h192z" />
    <glyph glyph-name="uni0424" unicode="&#x424;" horiz-adv-x="862" 
d="M839 354c-1 -199 -83 -273 -314 -287v-86h-188v86c-231 14 -314 88 -314 287c0 206 83 282 314 296v86h188v-86c231 -14 313 -90 314 -296zM212 354c0 -107 24 -143 134 -152v313c-110 -9 -134 -47 -134 -161zM516 515v-313c110 9 134 46 134 152c0 114 -24 151 -134 161
z" />
    <glyph glyph-name="uni0425" unicode="&#x425;" horiz-adv-x="661" 
d="M332 300h-3l-138 -300h-189l175 353l-161 337h187l125 -280h5l124 280h188l-161 -337l175 -353h-189z" />
    <glyph glyph-name="uni0427" unicode="&#x427;" horiz-adv-x="677" 
d="M614 690v-690h-188v273c-69 -32 -147 -49 -199 -49c-128 0 -186 55 -186 174v292h188v-251c-3 -45 13 -60 67 -60c38 0 75 3 130 23v288h188z" />
    <glyph glyph-name="uni0426" unicode="&#x426;" horiz-adv-x="724" 
d="M706 128v-279h-134l-14 151h-494v690h187v-562h189v562h188v-562h78z" />
    <glyph glyph-name="uni0428" unicode="&#x428;" horiz-adv-x="997" 
d="M934 690v-690h-870v690h183v-562h160v562h183v-562h160v562h184z" />
    <glyph glyph-name="uni0429" unicode="&#x429;" horiz-adv-x="1026" 
d="M1007 128v-279h-134l-13 151h-796v690h183v-562h158v562h183v-562h158v562h184v-562h77z" />
    <glyph glyph-name="uni040F" unicode="&#x40f;" horiz-adv-x="709" 
d="M645 690v-690h-216l-7 -151h-128l-8 151h-222v690h187v-562h206v562h188z" />
    <glyph glyph-name="uni042F" unicode="&#x42f;" horiz-adv-x="651" 
d="M315 700c129 0 187 -1 273 -10v-690h-188v258h-75c-37 0 -53 -12 -62 -52l-46 -206h-197l54 212c17 78 71 99 107 105v6c-102 11 -133 78 -133 169c0 157 80 208 267 208zM400 395v168h-81c-65 0 -82 -17 -83 -83c0 -65 18 -85 83 -85h81z" />
    <glyph glyph-name="uni042C" unicode="&#x42c;" horiz-adv-x="624" 
d="M251 444h80c200 0 266 -52 266 -226c0 -176 -70 -226 -233 -226c-135 0 -207 1 -295 8h-5v690h187v-246zM251 127h80c66 0 78 18 78 97c0 78 -12 100 -78 100h-80v-197z" />
    <glyph glyph-name="uni042A" unicode="&#x42a;" horiz-adv-x="776" 
d="M412 444h74c198 0 264 -52 264 -226c0 -176 -70 -226 -231 -226c-132 0 -204 1 -292 8h-4v545h-210v145h399v-246zM412 127h74c63 0 75 18 75 97c0 78 -12 100 -75 100h-74v-197z" />
    <glyph glyph-name="uni042B" unicode="&#x42b;" horiz-adv-x="929" 
d="M252 444h76c199 0 264 -52 264 -226c0 -176 -69 -226 -231 -226c-132 0 -205 1 -292 8h-5v690h188v-246zM865 690v-690h-188v690h188zM252 127h76c64 0 76 18 76 97c0 78 -12 100 -76 100h-76v-197z" />
    <glyph glyph-name="uni0409" unicode="&#x409;" horiz-adv-x="980" 
d="M624 444h67c198 0 263 -52 263 -225c0 -177 -69 -227 -231 -227c-131 0 -193 1 -280 8h-4v562h-57c-32 0 -47 -18 -51 -51c-14 -160 -24 -266 -52 -355c-44 -140 -124 -177 -253 -160l-13 128c41 9 72 21 96 83c26 67 34 178 45 327c7 106 65 156 166 156h304v-246z
M624 127h67c62 0 74 18 74 98c0 77 -11 99 -74 99h-67v-197z" />
    <glyph glyph-name="uni040A" unicode="&#x40a;" horiz-adv-x="975" 
d="M620 432h74c191 0 255 -51 255 -214c0 -176 -67 -226 -221 -226c-132 0 -202 1 -289 8h-4v305h-183v-305h-188v690h188v-257h183v257h185v-258zM620 127h74c56 0 67 18 67 93c0 71 -10 92 -67 92h-74v-185z" />
    <glyph glyph-name="uni0405" unicode="&#x405;" horiz-adv-x="597" 
d="M305 703c70 0 160 -5 240 -31l-12 -123c-59 1 -150 3 -230 3c-61 0 -81 -5 -81 -43c0 -32 17 -44 66 -61l127 -49c113 -45 151 -106 151 -207c0 -156 -67 -205 -270 -205c-46 0 -140 2 -253 30l11 133c123 -3 200 -5 241 -5c66 0 83 8 83 43c0 33 -14 43 -55 58l-138 55
c-109 44 -149 103 -149 205c0 158 74 197 269 197z" />
    <glyph glyph-name="uni0404" unicode="&#x404;" horiz-adv-x="599" 
d="M557 157l15 -138c-65 -23 -125 -31 -226 -31c-225 0 -307 94 -307 357s82 357 307 357c103 0 154 -7 221 -25l-15 -138c-68 2 -115 3 -206 3c-74 0 -103 -28 -112 -125h274v-121h-275c5 -115 33 -148 113 -148c93 0 149 1 211 9z" />
    <glyph glyph-name="uni042D" unicode="&#x42d;" horiz-adv-x="599" 
d="M253 702c226 0 308 -94 308 -357s-82 -357 -308 -357c-101 0 -160 8 -226 31l15 138c63 -8 118 -9 212 -9c79 0 107 33 112 148h-275v121h274c-8 97 -38 125 -111 125c-92 0 -138 -1 -207 -3l-14 138c66 18 117 25 220 25z" />
    <glyph glyph-name="uni0406" unicode="&#x406;" horiz-adv-x="314" 
d="M250 0h-186v690h186v-690z" />
    <glyph glyph-name="uni0407" unicode="&#x407;" horiz-adv-x="314" 
d="M33 896h60c24 0 36 -13 36 -37v-60c0 -24 -12 -36 -36 -36h-60c-24 0 -36 12 -36 36v60c0 24 12 37 36 37zM219 896h59c24 0 37 -13 37 -37v-60c0 -24 -13 -36 -37 -36h-59c-24 0 -36 12 -36 36v60c0 24 12 37 36 37zM250 0h-186v690h186v-690z" />
    <glyph glyph-name="uni0408" unicode="&#x408;" horiz-adv-x="391" 
d="M330 690v-555c0 -95 -64 -148 -170 -148c-40 0 -114 8 -145 23l20 121h47c42 0 62 13 62 43v516h186z" />
    <glyph glyph-name="uni040B" unicode="&#x40b;" horiz-adv-x="799" 
d="M580 459c127 0 185 -55 185 -174v-285h-189v244c0 47 -11 60 -65 60c-34 0 -66 -2 -113 -11v-293h-188v545h-196v145h581v-145h-197v-122c66 24 143 36 182 36z" />
    <glyph glyph-name="uni042E" unicode="&#x42e;" horiz-adv-x="998" 
d="M651 704c227 0 308 -78 308 -359s-81 -359 -308 -359c-198 0 -278 68 -287 307h-112v-293h-188v690h188v-270h113c14 220 94 284 286 284zM651 130c86 0 109 45 110 215c-1 170 -24 215 -110 215c-83 0 -104 -45 -104 -215s21 -215 104 -215z" />
    <glyph glyph-name="uni0402" unicode="&#x402;" horiz-adv-x="771" 
d="M572 452c117 0 177 -45 177 -213c0 -198 -115 -255 -272 -252l-17 131c76 14 101 41 101 111c0 68 -15 75 -62 75c-27 0 -62 -4 -101 -19v-285h-188v545h-196v145h581v-145h-197v-135c60 28 132 42 174 42z" />
    <glyph glyph-name="uni04B0" unicode="&#x4b0;" horiz-adv-x="639" 
d="M551 203h-137v-203h-188v203h-136v93h100l-192 394h194l99 -233c12 -29 18 -63 23 -93h12c6 30 12 65 23 93l99 233h193l-191 -394h100z" />
    <glyph glyph-name="uni04B6" unicode="&#x4b6;" horiz-adv-x="719" 
d="M702 124v-275h-134l-14 151h-131v271c-68 -30 -143 -47 -196 -47c-128 0 -186 55 -186 174v292h188v-251c-3 -46 14 -60 68 -60c37 0 72 2 126 21v290h188v-566h91z" />
    <glyph glyph-name="uni04BA" unicode="&#x4ba;" horiz-adv-x="677" 
d="M449 466c129 0 188 -55 188 -174v-292h-188v251c2 46 -14 60 -69 60c-36 0 -75 -3 -129 -21v-290h-187v690h187v-271c68 30 147 47 198 47z" />
    <glyph glyph-name="uni04C0" unicode="&#x4c0;" horiz-adv-x="314" 
d="M250 0h-186v690h186v-690z" />
    <glyph glyph-name="uni0430" unicode="&#x430;" horiz-adv-x="584" 
d="M327 511c134 0 208 -46 208 -194v-317h-145l-17 73c-34 -42 -91 -86 -177 -86c-92 0 -167 49 -167 142v50c0 79 60 127 159 127h165v12c-1 42 -17 57 -69 57c-50 0 -130 -2 -213 -7l-16 118c74 14 199 25 272 25zM207 172v-17c0 -26 16 -40 49 -40c29 0 64 13 97 35v61
h-104c-30 -1 -42 -16 -42 -39z" />
    <glyph glyph-name="uni0431" unicode="&#x431;" horiz-adv-x="605" 
d="M517 740l27 -138c-95 -52 -172 -24 -256 -47c-53 -15 -78 -42 -91 -69c-15 -25 -18 -48 -22 -74h4c39 43 86 68 174 68c163 0 218 -69 218 -235c0 -172 -64 -257 -256 -257c-262 0 -272 141 -272 323c0 190 29 322 183 375c102 35 194 11 291 54zM308 368
c-66 0 -78 -26 -78 -122c0 -106 16 -130 75 -130s76 24 76 130c0 100 -15 122 -73 122z" />
    <glyph glyph-name="uni0432" unicode="&#x432;" horiz-adv-x="583" 
d="M425 258v-4c95 -7 129 -52 129 -131c0 -104 -66 -131 -214 -131c-128 0 -202 1 -287 6v499c77 5 144 6 258 6c166 0 224 -28 224 -132c0 -71 -31 -107 -110 -113zM366 346c0 33 -15 41 -64 41h-78v-84h83c46 0 59 10 59 43zM224 110h85c48 0 65 9 65 50
c0 38 -17 49 -67 49h-83v-99z" />
    <glyph glyph-name="uni0433" unicode="&#x433;" horiz-adv-x="487" 
d="M188 504c97 0 209 0 290 -15l-8 -127h-200c-28 0 -39 -10 -39 -37v-325h-180v378c0 86 44 126 137 126z" />
    <glyph glyph-name="uni0453" unicode="&#x453;" horiz-adv-x="487" 
d="M456 642l-241 -106l-51 76l218 149zM188 504c97 0 209 0 290 -15l-8 -127h-200c-28 0 -39 -10 -39 -37v-325h-180v378c0 86 44 126 137 126z" />
    <glyph glyph-name="uni0491" unicode="&#x491;" horiz-adv-x="488" 
d="M479 640v-151l-9 -127h-200c-28 0 -39 -10 -39 -37v-325h-180v378c0 86 44 126 137 126c51 0 105 0 158 -2l14 138h119z" />
    <glyph glyph-name="uni0434" unicode="&#x434;" horiz-adv-x="653" 
d="M636 122v-260h-120l-13 138h-355l-13 -138h-120v260h62c30 85 47 168 59 254c11 80 55 121 144 121h273v-375h83zM383 122v259h-45c-25 0 -41 -12 -44 -40c-15 -94 -32 -162 -58 -219h147z" />
    <glyph glyph-name="uni0435" unicode="&#x435;" horiz-adv-x="578" 
d="M325 129c42 0 117 3 194 12l17 -111c-65 -33 -150 -42 -232 -42c-199 0 -272 83 -272 258c0 196 75 265 269 265c179 0 248 -60 248 -176c1 -91 -44 -134 -173 -134h-150c9 -56 35 -72 99 -72zM307 388c-62 1 -81 -13 -84 -93h102c43 0 49 13 49 44c0 39 -17 49 -67 49z
" />
    <glyph glyph-name="uni0451" unicode="&#x451;" horiz-adv-x="578" 
d="M240 577h-60c-24 0 -36 12 -36 37v60c0 24 12 36 36 36h60c24 0 35 -12 35 -36v-60c0 -25 -11 -37 -35 -37zM425 577h-59c-25 0 -37 12 -37 37v60c0 24 12 36 37 36h59c24 0 36 -12 36 -36v-60c0 -25 -12 -37 -36 -37zM325 129c42 0 117 3 194 12l17 -111
c-65 -33 -150 -42 -232 -42c-199 0 -272 83 -272 258c0 196 75 265 269 265c179 0 248 -60 248 -176c1 -91 -44 -134 -173 -134h-150c9 -56 35 -72 99 -72zM307 388c-62 1 -81 -13 -84 -93h102c43 0 49 13 49 44c0 39 -17 49 -67 49z" />
    <glyph glyph-name="uni0436" unicode="&#x436;" horiz-adv-x="841" 
d="M635 262v-5c119 -17 122 -26 193 -257h-184c-65 197 -66 200 -118 200h-32c4 -15 6 -30 6 -42v-158h-159v158c0 12 2 27 6 42h-33c-49 0 -50 -3 -117 -200h-184c71 231 73 240 193 257v5c-116 15 -111 30 -177 235h178c53 -164 59 -181 109 -181h32c-4 21 -6 42 -6 62
v119h158v-119c0 -20 -2 -41 -7 -62h31c51 0 56 17 109 181h179c-65 -205 -61 -220 -177 -235z" />
    <glyph glyph-name="uni0437" unicode="&#x437;" horiz-adv-x="527" 
d="M222 510c182 0 255 -18 255 -136c0 -78 -31 -110 -108 -116v-4c92 -7 128 -49 128 -130c0 -121 -81 -137 -238 -137c-78 0 -155 4 -236 22l12 120c77 -8 153 -11 211 -11c52 0 65 3 65 40c0 31 -12 36 -66 38l-156 2v107l155 3c44 1 56 6 56 35c0 30 -13 34 -67 34
c-65 0 -131 -5 -186 -11l-11 119c68 21 142 25 186 25z" />
    <glyph glyph-name="uni0438" unicode="&#x438;" horiz-adv-x="620" 
d="M566 0l-162 -1v223c0 29 3 55 7 88h-4c-9 -27 -26 -61 -40 -83l-155 -227h-158v497h161v-234c0 -26 -3 -48 -7 -77h4c10 28 23 50 38 73l158 238h158v-497z" />
    <glyph glyph-name="uni0439" unicode="&#x439;" horiz-adv-x="620" 
d="M367 717h115c13 -84 -55 -164 -172 -164s-186 80 -173 164h115c-6 -60 16 -79 58 -79c41 0 63 19 57 79zM567 0l-162 -1v223c0 29 2 55 6 88h-4c-9 -27 -26 -61 -40 -83l-154 -227h-159v497h161v-234c0 -26 -2 -48 -7 -77h5c9 28 23 50 38 73l157 238h159v-497z" />
    <glyph glyph-name="uni045D" unicode="&#x45d;" horiz-adv-x="620" 
d="M397 612l-51 -76l-241 106l74 119zM567 0l-162 -1v223c0 29 2 55 6 88h-4c-9 -27 -26 -61 -40 -83l-154 -227h-159v497h161v-234c0 -26 -2 -48 -7 -77h5c9 28 23 50 38 73l157 238h159v-497z" />
    <glyph glyph-name="uni043A" unicode="&#x43a;" 
d="M378 261v-5c118 -17 120 -21 189 -256h-189c-55 191 -56 197 -116 197h-32c3 -14 5 -28 5 -40v-157h-181v497h181v-117c0 -20 -2 -42 -7 -63h22c71 0 74 14 117 180h183c-64 -209 -56 -219 -172 -236z" />
    <glyph glyph-name="uni045C" unicode="&#x45c;" 
d="M260 536l-51 76l218 149l74 -119zM379 261v-5c117 -17 119 -21 188 -256h-189c-55 191 -56 197 -116 197h-32c3 -14 5 -28 5 -40v-157h-181v497h181v-117c0 -20 -2 -42 -7 -63h22c72 0 74 14 117 180h184c-65 -209 -57 -219 -172 -236z" />
    <glyph glyph-name="uni043B" unicode="&#x43b;" horiz-adv-x="608" 
d="M554 497v-497h-181v376h-43c-30 0 -44 -13 -47 -42c-9 -77 -20 -161 -30 -209c-20 -123 -119 -148 -228 -130l-18 133c44 7 73 6 84 46c10 35 19 104 26 195c7 84 51 128 137 128h300z" />
    <glyph glyph-name="uni043C" unicode="&#x43c;" horiz-adv-x="804" 
d="M526 497h157c41 0 61 -21 62 -62l13 -435h-164l-13 365h-12l-59 -241c-7 -37 -29 -55 -68 -55h-81c-38 0 -62 18 -69 55l-59 241h-12l-10 -365h-164l12 435c1 41 22 62 63 62h154c37 0 61 -19 67 -56l44 -185c6 -25 7 -49 10 -74h8c4 25 5 49 10 74l43 185
c6 37 30 56 68 56z" />
    <glyph glyph-name="uni043D" unicode="&#x43d;" horiz-adv-x="617" 
d="M563 497v-497h-178v201h-152v-201h-179v497h179v-175h152v175h178z" />
    <glyph glyph-name="uni043E" unicode="&#x43e;" horiz-adv-x="601" 
d="M301 511c195 0 267 -71 267 -263c0 -191 -72 -260 -267 -260c-196 0 -268 69 -268 260c0 192 72 263 268 263zM301 383c-62 0 -78 -25 -78 -135c0 -109 16 -133 78 -133c61 0 77 24 77 133c0 110 -16 135 -77 135z" />
    <glyph glyph-name="uni043F" unicode="&#x43f;" horiz-adv-x="609" 
d="M556 498v-498h-177v375h-149v-375h-176v498h502z" />
    <glyph glyph-name="uni0440" unicode="&#x440;" horiz-adv-x="614" 
d="M404 509c126 0 176 -97 176 -266c0 -201 -65 -256 -189 -256c-60 0 -117 12 -159 45c3 -35 4 -72 3 -108v-109h-181v682h146l14 -71c35 47 111 83 190 83zM322 111c51 0 71 17 71 131c0 113 -19 132 -65 132c-38 0 -62 -12 -93 -31v-215c27 -9 51 -17 87 -17z" />
    <glyph glyph-name="uni0441" unicode="&#x441;" horiz-adv-x="519" 
d="M292 511c57 0 140 -8 197 -34l-19 -113c-59 0 -107 1 -147 1c-75 0 -100 -24 -100 -116s25 -116 100 -116c33 0 97 1 157 8l16 -115c-56 -28 -133 -38 -206 -38c-189 0 -257 69 -257 261s69 262 259 262z" />
    <glyph glyph-name="uni0442" unicode="&#x442;" horiz-adv-x="526" 
d="M511 360h-157v-360h-181v360h-158v137h496v-137z" />
    <glyph glyph-name="uni0443" unicode="&#x443;" horiz-adv-x="585" 
d="M582 497l-166 -492c-36 -116 -93 -165 -170 -193c-59 -24 -134 -23 -205 -10l15 118c63 -2 107 3 139 21c21 11 39 34 52 59h-33c-28 0 -50 17 -58 43l-154 454h193l75 -296c5 -28 10 -56 14 -85h10c8 29 15 62 21 85l73 296h194z" />
    <glyph glyph-name="uni045E" unicode="&#x45e;" horiz-adv-x="585" 
d="M291 553c-117 0 -186 80 -172 165h114c-6 -60 16 -80 58 -80c41 0 64 20 58 80h114c13 -85 -55 -165 -172 -165zM582 497l-167 -492c-35 -116 -93 -165 -170 -193c-59 -24 -133 -23 -204 -10l14 118c64 -2 108 3 140 21c21 11 39 34 52 59h-33c-28 0 -50 17 -58 43
l-154 454h193l74 -296c6 -28 10 -56 14 -85h11c8 29 15 62 20 85l74 296h194z" />
    <glyph glyph-name="uni0444" unicode="&#x444;" horiz-adv-x="765" 
d="M733 248c0 -169 -75 -243 -269 -257v-176h-163v176c-195 14 -269 88 -269 257c0 170 74 245 269 260v192h163v-192c194 -15 269 -90 269 -260zM455 386v-274c82 10 106 45 106 136c0 93 -24 128 -106 138zM204 248c0 -91 23 -126 105 -136v274
c-82 -10 -105 -45 -105 -138z" />
    <glyph glyph-name="uni0445" unicode="&#x445;" horiz-adv-x="588" 
d="M402 0l-108 199l-108 -199h-183l148 254l-136 243h181l98 -186l98 186h181l-136 -243l148 -254h-183z" />
    <glyph glyph-name="uni0447" unicode="&#x447;" horiz-adv-x="588" 
d="M534 497l-1 -497h-180v175c-50 -18 -107 -28 -156 -28c-110 0 -160 37 -160 117v233h180v-179c0 -27 11 -38 42 -38c29 0 57 4 94 17v200h181z" />
    <glyph glyph-name="uni0446" unicode="&#x446;" horiz-adv-x="644" 
d="M626 122v-260h-121l-13 138h-438v497h179v-375h136v375h179v-375h78z" />
    <glyph glyph-name="uni0448" unicode="&#x448;" horiz-adv-x="855" 
d="M801 497v-497h-747v497h175v-375h118v375h160v-375h119v375h175z" />
    <glyph glyph-name="uni0449" unicode="&#x449;" horiz-adv-x="895" 
d="M877 122v-260h-121l-13 138h-689v497h175v-375h118v375h159v-375h119v375h175v-375h77z" />
    <glyph glyph-name="uni045F" unicode="&#x45f;" horiz-adv-x="614" 
d="M560 497v-497h-181l-11 -163h-122l-12 163h-180v497h178l2 -375h146l2 375h178z" />
    <glyph glyph-name="uni044C" unicode="&#x44c;" horiz-adv-x="551" 
d="M228 334h56c186 0 245 -38 245 -170s-66 -170 -214 -170c-117 0 -181 1 -256 6h-5v497h174v-163zM228 114h56c50 0 63 10 63 57s-12 57 -63 57h-56v-114z" />
    <glyph glyph-name="uni044A" unicode="&#x44a;" horiz-adv-x="670" 
d="M353 334h51c185 0 243 -38 243 -170s-65 -170 -211 -170c-116 0 -179 1 -254 6h-4v365h-163v132h338v-163zM353 114h51c49 0 61 10 61 57s-10 57 -61 57h-51v-114z" />
    <glyph glyph-name="uni044B" unicode="&#x44b;" horiz-adv-x="814" 
d="M229 334h52c185 0 244 -38 244 -170s-65 -170 -212 -170c-115 0 -179 1 -254 6h-5v497h175v-163zM760 497v-497h-183v497h183zM229 114h52c50 0 61 10 61 57s-10 57 -61 57h-52v-114z" />
    <glyph glyph-name="uni0459" unicode="&#x459;" horiz-adv-x="835" 
d="M529 331h47c180 0 237 -38 237 -169c0 -130 -63 -168 -207 -168c-110 0 -167 2 -240 6h-4v385h-36c-29 0 -40 -10 -44 -43c-7 -71 -20 -164 -38 -222c-35 -111 -113 -142 -216 -124l-11 124c33 5 66 10 79 52c14 41 23 114 33 203c9 80 53 122 138 122h262v-166zM529 111
h47c51 0 62 11 62 58s-11 57 -62 57h-47v-115z" />
    <glyph glyph-name="uni045A" unicode="&#x45a;" horiz-adv-x="829" 
d="M524 320h54c175 0 230 -36 230 -158c0 -130 -61 -168 -200 -168c-111 0 -177 1 -251 6h-3v209h-135v-209h-165v497h165v-177h135v177h170v-177zM524 111h54c44 0 55 11 55 53c0 41 -9 52 -55 52h-54v-105z" />
    <glyph glyph-name="uni0454" unicode="&#x454;" horiz-adv-x="550" 
d="M511 131l13 -114c-59 -23 -129 -30 -208 -30c-208 0 -283 68 -283 259c0 197 75 263 283 263c81 0 142 -5 204 -28l-14 -111h-190c-62 1 -88 -10 -97 -67h249v-102h-250c6 -67 32 -75 98 -75c85 0 136 2 195 5z" />
    <glyph glyph-name="uni044D" unicode="&#x44d;" horiz-adv-x="550" 
d="M234 509c208 0 284 -66 284 -263c0 -191 -76 -259 -284 -259c-85 0 -148 9 -208 30l14 114c58 -3 110 -5 194 -5c69 0 93 8 99 75h-249v102h248c-9 57 -36 68 -98 68c-79 0 -127 -1 -189 -1l-15 111c62 21 131 28 204 28z" />
    <glyph glyph-name="uni044E" unicode="&#x44e;" horiz-adv-x="852" 
d="M559 511c189 0 259 -51 259 -264c0 -206 -70 -257 -259 -257c-163 0 -231 42 -242 203h-82v-193h-181v497h181v-182h83c13 156 82 196 241 196zM557 127c60 0 73 20 74 123c-1 103 -14 123 -74 123c-63 0 -74 -20 -74 -123s11 -123 74 -123z" />
    <glyph glyph-name="uni044F" unicode="&#x44f;" horiz-adv-x="577" 
d="M272 509c136 0 189 -1 251 -8v-501h-176v162h-66c-31 0 -42 -6 -46 -29l-31 -133h-186l39 157c13 43 65 51 95 54v4c-84 17 -108 74 -108 134c0 125 45 160 228 160zM347 273v108h-71c-47 0 -56 -9 -56 -46c0 -50 9 -62 56 -62h71z" />
    <glyph glyph-name="uni0452" unicode="&#x452;" horiz-adv-x="618" 
d="M440 419c95 0 144 -47 144 -139v-238c0 -98 -52 -193 -139 -235l-102 80c46 51 58 97 58 155v181c0 31 -12 41 -46 41c-28 0 -55 -5 -98 -22v-242h-182v473h-61v82h61v145h182v-145h169v-82h-169v-24c0 -37 -4 -74 -8 -103c62 49 130 73 191 73z" />
    <glyph glyph-name="uni0455" unicode="&#x455;" horiz-adv-x="543" 
d="M252 511c76 -1 182 -9 244 -21l-12 -110c-65 1 -132 1 -194 1c-71 0 -84 1 -84 -21c0 -20 14 -20 62 -33l120 -32c87 -24 127 -61 127 -147c0 -125 -67 -159 -234 -159c-44 0 -139 2 -243 19l12 110c30 0 106 -1 174 -1c98 0 116 3 116 26c0 20 -17 20 -68 35l-116 32
c-102 29 -125 79 -125 157c0 96 56 144 221 144z" />
    <glyph glyph-name="uni0456" unicode="&#x456;" horiz-adv-x="296" 
d="M109 721h78c36 0 53 -18 53 -54v-52c0 -36 -17 -53 -53 -53h-78c-36 0 -53 17 -53 53v52c0 36 17 54 53 54zM239 0h-181v497h181v-497z" />
    <glyph glyph-name="uni0457" unicode="&#x457;" horiz-adv-x="298" 
d="M25 710h60c24 0 36 -12 36 -36v-60c0 -25 -12 -37 -36 -37h-60c-24 0 -36 12 -36 37v60c0 24 12 36 36 36zM211 710h60c23 0 36 -12 36 -36v-60c0 -25 -13 -37 -36 -37h-60c-24 0 -36 12 -36 37v60c0 24 12 36 36 36zM240 0h-182v497h182v-497z" />
    <glyph glyph-name="uni0458" unicode="&#x458;" horiz-adv-x="297" 
d="M107 728h79c35 0 52 -18 52 -53v-53c0 -36 -17 -53 -52 -53h-79c-35 0 -53 17 -53 53v53c0 35 18 53 53 53zM239 497v-455c0 -98 -55 -193 -146 -235l-100 80c49 51 65 97 65 155v455h181z" />
    <glyph glyph-name="uni045B" unicode="&#x45b;" horiz-adv-x="618" 
d="M440 419c95 0 144 -47 144 -139v-280h-183v223c0 31 -12 41 -46 41c-28 0 -55 -5 -98 -22v-242h-182v473h-61v82h61v145h182v-145h169v-82h-169v-24c0 -37 -4 -74 -8 -103c62 49 130 73 191 73z" />
    <glyph glyph-name="uni04B1" unicode="&#x4b1;" horiz-adv-x="637" 
d="M450 107h98v-108h-134v-184h-189v184h-135v108h98l-189 390h194l98 -229c12 -28 16 -63 23 -92h11c6 29 11 64 23 93l97 228h194z" />
    <glyph glyph-name="uni04B7" unicode="&#x4b7;" horiz-adv-x="625" 
d="M607 122v-260h-120l-14 138h-124v175c-50 -18 -105 -28 -154 -28c-108 0 -158 37 -158 117v233h180v-179c0 -27 11 -38 41 -38c29 0 56 4 91 17v200h181l-1 -375h78z" />
    <glyph glyph-name="Delta" unicode="&#x394;" horiz-adv-x="684" 
d="M666 61v-61h-648v61l231 629h186zM342 511c-7 -32 -12 -64 -21 -96l-93 -280h227l-92 281c-10 31 -15 63 -21 95z" />
    <glyph glyph-name="Omega" unicode="&#x3a9;" horiz-adv-x="720" 
d="M361 704c225 0 308 -101 308 -310c0 -127 -38 -191 -137 -267c28 12 48 17 72 17h75l1 -144h-293v136c67 59 87 117 87 234c0 151 -26 191 -114 191c-90 0 -114 -40 -114 -193c0 -129 24 -172 86 -232v-136h-292v144h75c24 0 45 -3 73 -17c-98 80 -138 145 -137 271
c0 205 84 306 310 306z" />
    <glyph glyph-name="mu" unicode="&#x3bc;" horiz-adv-x="639" 
d="M571 497v-497h-142l-17 73c-56 -53 -118 -87 -194 -87h-3c4 -19 7 -38 7 -56v-115h-157v682h182v-315c0 -28 15 -40 49 -40c27 0 52 5 93 21v334h182z" />
    <glyph glyph-name="pi" unicode="&#x3c0;" horiz-adv-x="652" 
d="M635 375h-70v-375h-182v375h-114v-375h-182v375h-70v123h618v-123z" />
    <glyph glyph-name="zero" unicode="0" horiz-adv-x="645" 
d="M322 704c210 0 283 -90 283 -359s-73 -359 -283 -359c-209 0 -281 90 -281 359s72 359 281 359zM321 561c-74 0 -95 -33 -95 -216s21 -216 95 -216c77 0 98 33 98 216s-21 216 -98 216z" />
    <glyph glyph-name="one" unicode="1" horiz-adv-x="449" 
d="M368 0h-187v457c0 27 1 54 7 82l-160 -36l-22 119l175 68h187v-690z" />
    <glyph glyph-name="two" unicode="2" horiz-adv-x="590" 
d="M291 702c147 0 244 -32 244 -167c0 -75 -17 -120 -108 -215l-170 -167c32 8 64 9 97 9h199v-162h-514v98c0 30 6 53 26 75l155 160c78 79 124 141 123 180c0 29 -23 32 -76 32c-71 0 -121 0 -216 -5l-7 139c101 20 172 23 247 23z" />
    <glyph glyph-name="three" unicode="3" horiz-adv-x="572" 
d="M279 704c169 0 233 -38 233 -161c0 -99 -21 -160 -110 -174v-4c97 -15 127 -68 128 -173c2 -146 -65 -206 -248 -206c-83 0 -170 8 -248 19l6 135c87 -5 131 -6 191 -6c88 0 114 13 114 83c0 59 -16 82 -90 81l-132 -1v120h132c75 0 82 28 81 75c0 56 -20 65 -90 65
c-71 0 -141 -1 -192 -2l-6 130c78 13 155 19 231 19z" />
    <glyph glyph-name="four" unicode="4" horiz-adv-x="649" 
d="M625 270v-107l-80 -18h-2v-145h-171v145h-276c-58 0 -95 53 -73 107l172 438h175l-151 -391c-8 -19 2 -29 18 -29h135v177l30 108h141v-285h82z" />
    <glyph glyph-name="five" unicode="5" horiz-adv-x="560" 
d="M499 552h-283l-7 -96l115 -15c161 -18 203 -117 202 -228c0 -124 -55 -225 -251 -225c-69 0 -157 7 -245 20l17 141c66 -5 130 -8 179 -8c91 0 111 22 115 78c3 65 -31 78 -124 86l-107 13c-33 4 -56 30 -54 62l18 310h432z" />
    <glyph glyph-name="six" unicode="6" horiz-adv-x="599" 
d="M365 455c157 0 202 -62 202 -214c0 -172 -46 -253 -257 -253c-206 0 -268 70 -268 350c0 315 101 364 301 364c36 0 107 0 178 -20l-8 -116c-57 1 -90 1 -170 1c-89 0 -114 -23 -120 -153c39 31 80 41 142 41zM311 124c76 0 80 31 80 113c0 74 -15 91 -81 91
c-33 0 -55 -7 -88 -26c1 -153 9 -178 89 -178z" />
    <glyph glyph-name="seven" unicode="7" horiz-adv-x="535" 
d="M20 690h430c54 0 87 -41 70 -92l-208 -598h-184l166 466c9 24 18 49 34 73h-300z" />
    <glyph glyph-name="eight" unicode="8" horiz-adv-x="630" 
d="M315 703c210 0 254 -56 254 -185c0 -74 -30 -150 -105 -158v-4c99 -9 122 -92 122 -184c0 -134 -52 -184 -271 -186c-215 -1 -271 52 -271 186c0 92 24 175 123 184v4c-75 8 -105 84 -105 158c0 129 45 185 253 185zM316 577c-70 0 -86 -15 -86 -83c0 -62 17 -76 88 -76
c70 0 83 15 83 76c0 68 -16 83 -85 83zM317 298c-80 0 -97 -19 -97 -90c0 -69 18 -86 96 -86c77 0 93 17 93 86c0 73 -16 90 -92 90z" />
    <glyph glyph-name="nine" unicode="9" horiz-adv-x="599" 
d="M291 702c218 0 264 -71 264 -350c0 -312 -81 -364 -301 -364c-38 0 -112 0 -192 20l9 117c61 -1 94 -1 183 -1c90 0 115 34 120 153c-38 -32 -80 -42 -142 -42c-154 0 -198 88 -198 214c-1 177 56 253 257 253zM210 453c-1 -71 15 -91 79 -91c32 0 54 8 87 26
c-1 152 -8 179 -87 179c-72 0 -80 -32 -79 -114z" />
    <glyph glyph-name="fraction" unicode="&#x2044;" horiz-adv-x="160" 
d="M-62 0h-112l395 690h112z" />
    <glyph glyph-name="onehalf" unicode="&#xbd;" horiz-adv-x="929" 
d="M266 276h-139v249c0 19 1 36 6 56l-95 -18l-15 87l104 40h139v-414zM271 0h-111l399 690h113zM708 421c119 0 176 -19 176 -113c0 -30 -23 -72 -67 -111l-96 -86c21 5 37 7 58 7l116 -3l-1 -115h-343v70c0 23 4 41 20 56l84 77c42 39 71 69 78 86c5 16 -10 18 -39 18
c-44 0 -75 -1 -135 -1l-4 102c65 12 123 13 153 13z" />
    <glyph glyph-name="onequarter" unicode="&#xbc;" horiz-adv-x="924" 
d="M127 276v249c0 19 1 36 6 56l-95 -18l-15 87l104 40h139v-414h-139zM674 690l-400 -690h-112l400 690h112zM896 92l-46 -12v-80h-128v80h-175c-37 0 -63 29 -47 67l107 267h124l-91 -230c-3 -9 2 -13 12 -13h70v98l22 63h106v-161h46v-79z" />
    <glyph glyph-name="threequarters" unicode="&#xbe;" horiz-adv-x="1002" 
d="M371 388c1 -89 -44 -123 -168 -123c-57 0 -115 5 -167 11l4 99c60 -2 85 -2 123 -2c55 0 65 6 65 35c0 25 -6 36 -48 36l-85 -1v85l85 1c40 0 44 10 44 32c0 23 -7 26 -48 27c-47 1 -93 1 -126 1l-4 95c53 8 105 12 156 12c118 0 157 -23 157 -97c0 -62 -13 -96 -78 -105
v-2c69 -9 89 -38 90 -104zM757 690l-400 -690h-112l399 690h113zM976 92l-46 -12v-80h-128v80h-175c-38 0 -63 29 -47 67l107 267h124l-91 -230c-3 -9 1 -13 12 -13h70v98l22 63h106v-161h46v-79z" />
    <glyph glyph-name="onesuperior" unicode="&#xb9;" horiz-adv-x="314" 
d="M261 360h-138v249c0 19 0 36 5 56l-100 -18l-16 87l111 40h138v-414z" />
    <glyph glyph-name="twosuperior" unicode="&#xb2;" horiz-adv-x="432" 
d="M202 781c119 0 177 -19 177 -113c0 -30 -23 -72 -68 -111l-99 -86c22 5 38 7 60 7l118 -3v-115h-347v70c0 23 3 41 19 56l87 77c44 39 72 69 79 86c5 16 -11 18 -40 18c-45 0 -77 -1 -137 -1l-4 102c65 12 124 13 155 13z" />
    <glyph glyph-name="threesuperior" unicode="&#xb3;" horiz-adv-x="412" 
d="M205 783c121 0 161 -23 161 -97c0 -62 -14 -97 -79 -105v-2c70 -9 90 -38 91 -104c1 -90 -44 -124 -171 -124c-57 0 -116 5 -169 12l4 99c60 -2 87 -2 126 -2c57 0 67 6 67 35c0 23 -6 32 -51 33l-86 2v85l86 3c43 0 47 10 47 30c0 22 -8 27 -50 27h-129l-4 96
c53 8 106 12 157 12z" />
    <glyph glyph-name="asterisk" unicode="*" horiz-adv-x="454" 
d="M262 520l110 -129l-78 -58l-67 120l-66 -120l-79 58l111 128l-15 173h98zM424 524l-121 -26l-22 26l-1 43l114 51zM174 567v-43l-22 -26l-122 26l30 93z" />
    <glyph glyph-name="backslash" unicode="\" horiz-adv-x="571" 
d="M554 -76h-144l-393 766h144z" />
    <glyph glyph-name="bullet" unicode="&#x2022;" horiz-adv-x="377" 
d="M184 392h16c84 0 113 -29 113 -113v-16c0 -91 -29 -120 -113 -120h-16c-91 0 -120 29 -120 120v16c0 84 29 113 120 113z" />
    <glyph glyph-name="colon" unicode=":" horiz-adv-x="269" 
d="M106 457h43c48 0 63 -15 63 -63v-44c0 -48 -15 -63 -63 -63h-43c-48 0 -63 15 -63 63v44c0 48 15 63 63 63zM106 171h43c48 0 63 -16 63 -63v-44c0 -48 -15 -63 -63 -63h-43c-48 0 -63 15 -63 63v44c0 47 15 63 63 63z" />
    <glyph glyph-name="comma" unicode="," horiz-adv-x="249" 
d="M105 170h38c47 0 62 -15 63 -63v-64c0 -91 -22 -143 -60 -198l-70 22c13 44 16 87 17 133c-35 0 -52 20 -53 56l2 51c2 48 17 63 63 63z" />
    <glyph glyph-name="ellipsis" unicode="&#x2026;" horiz-adv-x="911" 
d="M98 170h43c48 0 63 -15 63 -63v-44c0 -48 -15 -63 -63 -63h-43c-48 0 -63 15 -63 63v44c0 48 15 63 63 63zM427 170h43c48 0 63 -15 63 -63v-44c0 -48 -15 -63 -63 -63h-43c-48 0 -63 15 -63 63v44c0 48 15 63 63 63zM755 170h44c48 0 63 -15 63 -63v-44
c0 -48 -15 -63 -63 -63h-44c-47 0 -62 15 -62 63v44c0 48 15 63 62 63z" />
    <glyph glyph-name="exclam" unicode="!" horiz-adv-x="316" 
d="M248 445l-19 -222h-143l-19 222v250h181v-250zM137 170h42c47 0 62 -15 62 -63v-44c0 -48 -15 -63 -62 -63h-42c-47 0 -62 15 -62 63v44c0 48 15 63 62 63z" />
    <glyph glyph-name="exclamdown" unicode="&#xa1;" horiz-adv-x="299" 
d="M129 514h42c47 0 62 -15 62 -63v-44c0 -48 -15 -63 -62 -63h-42c-47 0 -62 15 -62 63v44c0 48 15 63 62 63zM240 69v-249h-181v249l19 222h143z" />
    <glyph glyph-name="numbersign" unicode="#" horiz-adv-x="726" 
d="M569 414l-21 -118h110l-20 -107h-108l-33 -189h-135l33 189h-116l-33 -189h-135l33 189h-118l21 107h115l21 118h-115l21 107h113l29 169h135l-29 -169h116l29 169h135l-29 -169h112l-20 -107h-111zM434 414h-116l-21 -118h116z" />
    <glyph glyph-name="period" unicode="." horiz-adv-x="253" 
d="M105 170h43c48 0 63 -15 63 -63v-44c0 -48 -15 -63 -63 -63h-43c-48 0 -63 15 -63 63v44c0 48 15 63 63 63z" />
    <glyph glyph-name="periodcentered" unicode="&#xb7;" horiz-adv-x="260" 
d="M108 343h44c48 0 63 -15 63 -63v-44c0 -47 -15 -63 -63 -63h-44c-48 0 -63 16 -63 63v44c0 48 15 63 63 63z" />
    <glyph glyph-name="question" unicode="?" horiz-adv-x="527" 
d="M281 712c149 0 221 -49 221 -155c0 -146 -165 -168 -181 -334h-144c-9 171 124 235 132 297c5 33 -16 47 -72 47c-102 0 -136 -1 -205 -2l-5 121c80 15 117 26 254 26zM228 170h41c48 0 63 -15 63 -63v-44c0 -48 -15 -63 -63 -63h-41c-48 0 -63 15 -63 63v44
c0 48 15 63 63 63z" />
    <glyph glyph-name="questiondown" unicode="&#xbf;" horiz-adv-x="522" 
d="M257 514h41c48 0 63 -15 63 -63v-44c0 -48 -15 -63 -63 -63h-41c-48 0 -63 15 -63 63v44c0 48 15 63 63 63zM205 290h143c9 -170 -123 -234 -132 -296c-5 -34 16 -47 73 -47c102 0 135 1 204 2l5 -121c-80 -15 -117 -26 -254 -26c-149 0 -221 49 -221 155
c0 146 165 168 182 333z" />
    <glyph glyph-name="quotedbl" unicode="&#x22;" horiz-adv-x="385" 
d="M160 465h-107l-10 225h128zM331 465h-106l-11 225h128z" />
    <glyph glyph-name="quotesingle" unicode="'" horiz-adv-x="214" 
d="M160 465h-107l-10 225h128z" />
    <glyph glyph-name="semicolon" unicode=";" horiz-adv-x="269" 
d="M114 457h43c48 0 63 -15 63 -63v-44c0 -48 -15 -63 -63 -63h-43c-48 0 -63 15 -63 63v44c0 48 15 63 63 63zM114 170h39c46 0 61 -15 62 -63v-64c0 -91 -22 -143 -60 -198l-70 22c13 44 16 87 17 133c-35 0 -52 20 -53 56l3 51c1 48 16 63 62 63z" />
    <glyph glyph-name="slash" unicode="/" horiz-adv-x="571" 
d="M161 -76h-144l393 766h144z" />
    <glyph glyph-name="underscore" unicode="_" horiz-adv-x="543" 
d="M495 -111h-448v111h448v-111z" />
    <glyph glyph-name="braceleft" unicode="{" horiz-adv-x="350" 
d="M318 768v-111c-53 0 -69 -5 -69 -49v-137c1 -85 -21 -130 -110 -143c89 -24 113 -69 114 -139v-197c0 -43 16 -46 69 -46v-111c-172 -25 -242 42 -242 143v230c0 45 -15 48 -52 63v114c39 13 48 13 48 67v173c0 101 70 168 242 143z" />
    <glyph glyph-name="braceright" unicode="}" horiz-adv-x="350" 
d="M33 657v111c171 25 242 -42 242 -143v-173c0 -54 8 -54 48 -67v-114c-37 -15 -52 -18 -52 -63v-230c0 -101 -71 -168 -242 -143v111c53 0 69 3 69 46v197c1 70 24 115 114 139c-89 13 -112 58 -110 143v137c0 44 -16 49 -69 49z" />
    <glyph glyph-name="bracketleft" unicode="[" horiz-adv-x="355" 
d="M327 656h-69c-12 0 -20 -8 -20 -20v-669c0 -12 8 -20 20 -20h69v-112h-169c-53 0 -90 20 -90 90v753c0 53 37 90 90 90h169v-112z" />
    <glyph glyph-name="bracketright" unicode="]" horiz-adv-x="355" 
d="M28 768h169c54 0 90 -37 90 -90v-753c0 -53 -36 -90 -90 -90h-169v112h69c12 0 21 8 21 20v669c0 12 -9 20 -21 20h-69v112z" />
    <glyph glyph-name="parenleft" unicode="(" horiz-adv-x="369" 
d="M336 790l21 -77c-110 -47 -150 -191 -150 -400c0 -205 40 -350 150 -401l-21 -77c-210 60 -305 210 -305 477c0 269 95 419 305 478z" />
    <glyph glyph-name="parenright" unicode=")" horiz-adv-x="369" 
d="M12 713l21 77c210 -59 305 -209 305 -478c0 -267 -95 -417 -305 -477l-21 77c110 51 150 196 150 401c0 209 -40 353 -150 400z" />
    <glyph glyph-name="emdash" unicode="&#x2014;" horiz-adv-x="836" 
d="M786 201h-736v110h736v-110z" />
    <glyph glyph-name="endash" unicode="&#x2013;" horiz-adv-x="543" 
d="M493 201h-443v110h443v-110z" />
    <glyph glyph-name="hyphen" unicode="-" horiz-adv-x="395" 
d="M344 201h-294v110h294v-110z" />
    <glyph glyph-name="softhyphen" unicode="&#xad;" horiz-adv-x="395" 
d="M344 201h-294v110h294v-110z" />
    <glyph glyph-name="guillemotleft" unicode="&#xab;" horiz-adv-x="537" 
d="M281 407l-95 -156l95 -162l-95 -60l-159 203v38l158 198zM503 407l-95 -156l95 -162l-95 -60l-159 203v38l159 198z" />
    <glyph glyph-name="guillemotright" unicode="&#xbb;" horiz-adv-x="537" 
d="M287 270v-38l-158 -203l-95 60l95 162l-95 156l95 61zM510 270v-38l-159 -203l-95 60l95 162l-95 156l96 61z" />
    <glyph glyph-name="guilsinglleft" unicode="&#x2039;" horiz-adv-x="314" 
d="M280 407l-94 -156l95 -162l-96 -60l-158 203v38l158 198z" />
    <glyph glyph-name="guilsinglright" unicode="&#x203a;" horiz-adv-x="315" 
d="M288 270v-38l-159 -203l-95 60l95 162l-95 156l95 61z" />
    <glyph glyph-name="quotedblbase" unicode="&#x201e;" horiz-adv-x="422" 
d="M99 144h34c42 0 56 -14 57 -57v-59c0 -82 -20 -130 -54 -180l-64 20c12 40 15 80 15 121c-31 0 -46 19 -47 51l2 47c1 43 15 57 57 57zM289 144h34c42 0 56 -14 57 -57v-59c0 -82 -20 -130 -54 -180l-64 20c12 40 15 80 16 121c-32 0 -47 19 -48 51l2 47
c1 43 15 57 57 57z" />
    <glyph glyph-name="quotedblleft" unicode="&#x201c;" horiz-adv-x="412" 
d="M130 420h-34c-42 0 -56 14 -57 57v58c0 83 20 130 54 180l64 -20c-12 -40 -15 -79 -16 -121c32 0 47 -18 48 -50l-2 -47c-1 -43 -15 -57 -57 -57zM320 420h-34c-42 0 -56 14 -57 57v58c0 83 20 130 54 180l64 -20c-12 -40 -15 -79 -15 -121c31 0 46 -18 47 -50l-2 -47
c-1 -43 -15 -57 -57 -57z" />
    <glyph glyph-name="quotedblright" unicode="&#x201d;" horiz-adv-x="409" 
d="M91 706h34c42 0 56 -13 57 -57v-58c0 -83 -20 -130 -54 -180l-64 20c12 40 15 79 15 121c-31 0 -46 18 -47 51l2 46c1 44 15 57 57 57zM281 706h34c42 0 56 -13 57 -57v-58c0 -83 -20 -130 -54 -180l-64 20c12 40 15 79 16 121c-32 0 -47 18 -48 51l2 46
c1 44 15 57 57 57z" />
    <glyph glyph-name="quoteleft" unicode="&#x2018;" horiz-adv-x="222" 
d="M130 420h-34c-42 0 -56 14 -57 57v58c0 83 20 130 54 180l64 -20c-12 -40 -15 -79 -16 -121c32 0 47 -18 48 -50l-2 -47c-1 -43 -15 -57 -57 -57z" />
    <glyph glyph-name="quoteright" unicode="&#x2019;" horiz-adv-x="219" 
d="M91 706h34c42 0 56 -13 57 -57v-58c0 -83 -20 -130 -54 -180l-64 20c12 40 15 79 15 121c-31 0 -46 18 -47 51l2 46c1 44 15 57 57 57z" />
    <glyph glyph-name="quotesinglbase" unicode="&#x201a;" horiz-adv-x="233" 
d="M99 166h35c42 0 56 -15 56 -61l1 -63c-1 -89 -21 -139 -54 -193l-64 21c12 43 15 86 15 130c-31 0 -47 20 -47 55l2 50c1 46 15 61 56 61z" />
    <glyph glyph-name="space" unicode=" " horiz-adv-x="213" 
 />
    <glyph glyph-name="uni00A0" unicode="&#xa0;" horiz-adv-x="213" 
 />
    <glyph glyph-name="florin" unicode="&#x192;" horiz-adv-x="497" 
d="M459 577h-64c-36 0 -50 -12 -54 -57l-10 -112h105l-10 -114h-105l-27 -308c-9 -93 -58 -158 -182 -158c-32 0 -105 3 -143 12l27 114h62c37 0 51 14 55 57l25 283h-93l8 109l95 5l12 137c9 93 60 158 184 158c32 0 104 -3 142 -12z" />
    <glyph glyph-name="cent" unicode="&#xa2;" horiz-adv-x="532" 
d="M482 232l16 -108c-46 -22 -104 -33 -163 -37l-10 -87h-135l11 93c-123 22 -170 97 -170 255c0 181 63 254 234 260l9 82h136l-11 -89c33 -6 65 -14 92 -26l-19 -107c-59 2 -108 2 -148 2c-88 0 -113 -24 -113 -122c0 -100 25 -124 113 -124c33 0 97 1 158 8z" />
    <glyph glyph-name="currency" unicode="&#xa4;" horiz-adv-x="579" 
d="M495 352c0 -38 -10 -73 -28 -104l71 -70l-75 -74l-70 70c-31 -18 -66 -28 -104 -28c-37 0 -72 10 -103 27l-68 -68l-80 80l70 69c-16 29 -25 63 -25 98c0 38 10 73 28 104l-68 68l75 74l68 -68c30 18 66 28 103 28c39 0 75 -11 106 -29l69 69l74 -74l-70 -70
c17 -30 27 -65 27 -102zM289 249c55 0 102 47 102 104s-47 104 -102 104s-102 -47 -102 -104s47 -104 102 -104z" />
    <glyph glyph-name="dollar" unicode="$" horiz-adv-x="587" 
d="M557 192c0 -147 -57 -199 -229 -204l-10 -102h-135l11 105c-43 4 -94 12 -150 26l11 134c119 -3 198 -5 236 -5c64 0 81 8 81 42c0 33 -14 43 -55 58l-134 55c-106 44 -145 103 -145 205c0 151 66 193 239 197l11 88h135l-12 -93c42 -5 86 -13 126 -26l-12 -123
c-57 1 -147 3 -226 3c-59 0 -78 -5 -78 -43c0 -32 16 -44 66 -61l123 -49c110 -45 147 -106 147 -207z" />
    <glyph glyph-name="Euro" unicode="&#x20ac;" horiz-adv-x="642" 
d="M503 364h-469v103h71c26 159 116 235 309 235c76 0 134 -11 180 -25l-16 -131c-24 3 -125 13 -179 3c-49 -7 -79 -31 -94 -82h209zM597 150l14 -131c-48 -18 -112 -31 -197 -31c-195 0 -284 78 -309 240h-72v103h459l-11 -103h-178c14 -56 43 -82 96 -87
c47 -6 138 -2 198 9z" />
    <glyph glyph-name="sterling" unicode="&#xa3;" horiz-adv-x="595" 
d="M561 147v-147h-517v147c70 33 82 85 76 148l-2 24h-76l-2 89h71l-8 104c-10 154 62 191 215 191c44 0 134 -3 221 -10l-9 -137c-39 1 -45 1 -182 1c-47 0 -65 -14 -61 -53l9 -96h164l-5 -89h-150l2 -24c7 -92 -31 -122 -74 -157c27 9 54 9 82 9h246z" />
    <glyph glyph-name="yen" unicode="&#xa5;" horiz-adv-x="686" 
d="M507 370h84v-103h-493l-1 103h82l-158 320h193l100 -221c13 -28 18 -63 24 -92h12c6 29 11 65 23 93l99 220h193zM97 237h494v-102h-153l-1 -135h-187v135h-152z" />
    <glyph glyph-name="approxequal" unicode="&#x2248;" horiz-adv-x="578" 
d="M182 474c47 -4 150 -41 198 -45c30 -3 28 10 28 40h111c25 -109 -21 -168 -125 -164c-49 2 -149 41 -199 46c-30 2 -28 -11 -28 -41h-111c-26 117 35 171 126 164zM182 274c47 -4 150 -41 198 -46c30 -3 28 11 28 41h111c25 -109 -21 -168 -125 -164
c-49 2 -149 41 -199 46c-30 2 -28 -10 -28 -42h-111c-26 118 35 172 126 165z" />
    <glyph glyph-name="asciitilde" unicode="~" horiz-adv-x="506" 
d="M136 370c51 -2 173 -41 207 -46c32 -6 33 7 33 41h78c18 -108 -24 -160 -83 -158c-55 2 -171 40 -209 46c-31 5 -31 -7 -31 -42h-78c-19 112 27 160 83 159z" />
    <glyph glyph-name="divide" unicode="&#xf7;" horiz-adv-x="543" 
d="M249 565h44c50 0 66 -16 66 -67v-25c0 -51 -16 -66 -66 -66h-44c-51 0 -66 15 -66 66v25c0 51 15 67 66 67zM507 229h-471v127h471v-127zM249 176h44c50 0 66 -16 66 -67v-24c0 -51 -16 -67 -66 -67h-44c-51 0 -66 16 -66 67v24c0 51 15 67 66 67z" />
    <glyph glyph-name="emptyset" unicode="&#x2205;" horiz-adv-x="685" 
d="M343 633c161 0 292 -131 292 -292c0 -162 -131 -293 -292 -293c-162 0 -293 131 -293 293c0 161 131 292 293 292zM343 545c-66 0 -83 -5 -122 -11l3 -45c40 6 58 9 119 9c42 0 66 -17 66 -46c0 -65 -97 -96 -97 -211h54c0 105 94 120 94 211c0 63 -41 93 -117 93z
M359 171h-39c-4 0 -7 -3 -7 -8v-37c0 -4 3 -7 7 -7h39c5 0 8 3 8 7v37c0 5 -3 8 -8 8z" />
    <glyph glyph-name="equal" unicode="=" horiz-adv-x="575" 
d="M523 343h-471v128h471v-128zM523 129h-471v127h471v-127z" />
    <glyph glyph-name="greater" unicode="&#x3e;" horiz-adv-x="509" 
d="M476 372v-140l-426 -161v142l273 89l-273 90v141z" />
    <glyph glyph-name="greaterequal" unicode="&#x2265;" horiz-adv-x="555" 
d="M499 456v-140l-435 -121v142l281 49l-281 49v142zM511 36h-446v137h446v-137z" />
    <glyph glyph-name="infinity" unicode="&#x221e;" horiz-adv-x="762" 
d="M574 456c80 0 152 -46 152 -148c0 -104 -75 -158 -166 -158c-72 0 -133 36 -178 76c-49 -40 -114 -76 -185 -76c-85 0 -162 54 -162 158c0 102 73 148 161 148c78 0 137 -37 186 -82c46 38 115 82 192 82zM167 304c0 -30 19 -44 56 -44s63 17 89 43c-23 26 -43 42 -90 42
c-36 0 -55 -13 -55 -41zM539 260c36 0 55 14 55 43s-18 42 -53 42c-47 0 -68 -20 -90 -47c19 -19 46 -38 88 -38z" />
    <glyph glyph-name="integral" unicode="&#x222b;" horiz-adv-x="356" 
d="M198 714c28 0 79 1 133 -4l-10 -131h-61c-21 0 -30 -6 -28 -34l51 -634c7 -90 -26 -133 -136 -133c-15 0 -103 1 -123 4l11 131h57c24 0 33 9 30 40l-49 628c-6 88 49 133 125 133z" />
    <glyph glyph-name="less" unicode="&#x3c;" horiz-adv-x="511" 
d="M461 392l-276 -90l276 -89v-142l-429 161v140l429 161v-141z" />
    <glyph glyph-name="lessequal" unicode="&#x2264;" horiz-adv-x="555" 
d="M491 435l-281 -49l281 -49v-142l-435 121v140l435 121v-142zM491 36h-446v137h446v-137z" />
    <glyph glyph-name="logicalnot" unicode="&#xac;" horiz-adv-x="576" 
d="M521 369v-232l-135 -1v107h-337v126h472z" />
    <glyph glyph-name="minus" unicode="&#x2212;" horiz-adv-x="575" 
d="M523 229h-471v127h471v-127z" />
    <glyph glyph-name="multiply" unicode="&#xd7;" horiz-adv-x="500" 
d="M350 292l128 -114l-85 -100l-142 126l-142 -126l-84 100l128 114l-128 114l84 101l142 -127l142 127l85 -101z" />
    <glyph glyph-name="notequal" unicode="&#x2260;" horiz-adv-x="614" 
d="M543 471v-128h-472v128h231l46 128l102 -37l-32 -91h125zM71 256h472v-127h-247l-47 -131l-104 36l34 95h-108v127z" />
    <glyph glyph-name="partialdiff" unicode="&#x2202;" horiz-adv-x="602" 
d="M110 583v121c330 11 471 -63 457 -366c-12 -268 -109 -350 -292 -350c-205 0 -250 141 -242 254c8 105 66 214 222 214c52 -1 93 -11 130 -41c-2 122 -49 168 -275 168zM284 127c73 0 85 65 96 186c-31 8 -53 11 -79 11c-63 0 -84 -40 -87 -86c-6 -71 14 -111 70 -111z
" />
    <glyph glyph-name="percent" unicode="%" horiz-adv-x="915" 
d="M204 704c132 0 178 -50 178 -206s-46 -206 -178 -206c-131 0 -176 50 -176 206s45 206 176 206zM315 0h-112l395 690h112zM204 607c-35 0 -43 -13 -43 -109c0 -97 8 -109 43 -109c36 0 44 12 44 109c0 96 -8 109 -44 109zM710 399c132 0 178 -50 178 -206
s-46 -206 -178 -206c-131 0 -176 50 -176 206s45 206 176 206zM710 301c-36 0 -44 -11 -43 -108c-1 -96 7 -109 43 -109c35 0 44 13 44 109c0 97 -9 108 -44 108z" />
    <glyph glyph-name="perthousand" unicode="&#x2030;" horiz-adv-x="1311" 
d="M204 704c132 0 178 -50 178 -206s-46 -206 -178 -206c-131 0 -176 50 -176 206s45 206 176 206zM315 0h-112l395 690h112zM204 607c-35 0 -43 -13 -43 -109c0 -97 8 -109 43 -109c36 0 44 12 44 109c0 96 -8 109 -44 109zM710 399c132 0 178 -50 178 -206
s-46 -206 -178 -206c-131 0 -176 50 -176 206s45 206 176 206zM1105 399c132 0 178 -50 178 -206s-46 -206 -178 -206c-131 0 -176 50 -176 206s45 206 176 206zM710 301c-36 0 -44 -11 -43 -108c-1 -96 7 -109 43 -109c35 0 44 13 44 109c0 97 -9 108 -44 108zM1105 301
c-35 0 -43 -11 -43 -108c0 -96 8 -109 43 -109c36 0 45 13 45 109c0 97 -9 108 -45 108z" />
    <glyph glyph-name="plus" unicode="+" horiz-adv-x="530" 
d="M497 235h-165v-162h-133v162h-166v134h165v163h134v-163h165v-134z" />
    <glyph glyph-name="plusminus" unicode="&#xb1;" horiz-adv-x="565" 
d="M514 448v-134h-165v-112h-133v112h-165v134h165v113h133v-113h165zM51 165h463v-134h-463v134z" />
    <glyph glyph-name="product" unicode="&#x220f;" horiz-adv-x="712" 
d="M684 559h-78v-652h-182v652h-137v-652h-181v652h-78v131h656v-131z" />
    <glyph glyph-name="radical" unicode="&#x221a;" horiz-adv-x="585" 
d="M582 876l-206 -868c-2 -5 -7 -8 -13 -8h-215c-6 0 -12 3 -13 8l-125 489h145l94 -382h13l173 761h147z" />
    <glyph glyph-name="summation" unicode="&#x2211;" horiz-adv-x="597" 
d="M555 562h-303l129 -235l-143 -350h327v-128h-529v128l143 350l-131 235v128h507v-128z" />
    <glyph glyph-name="lozenge" unicode="&#x25ca;" horiz-adv-x="571" 
d="M296 689l250 -333c5 -7 5 -13 0 -20l-250 -335c-6 -8 -14 -8 -20 0l-252 335c-4 7 -4 13 0 20l252 333c6 8 14 8 20 0zM165 346l121 -169l119 169l-119 167z" />
    <glyph glyph-name="ampersand" unicode="&#x26;" horiz-adv-x="763" 
d="M717 129l20 -119c-36 -16 -105 -23 -140 -23c-64 0 -109 24 -131 67c-52 -47 -108 -67 -211 -67c-151 0 -213 50 -213 189c0 105 36 170 137 179v6c-83 8 -115 58 -115 159c0 162 75 183 273 183c42 0 105 -1 165 -13l-22 -124c-38 1 -86 3 -148 3s-79 -12 -79 -78
c0 -61 15 -78 72 -78h132l11 97h154v-97h96v-118h-96v-123c0 -32 10 -43 40 -43h55zM241 214c0 -66 11 -83 70 -82c46 1 101 11 140 28v135h-137c-60 0 -73 -16 -73 -81z" />
    <glyph glyph-name="asciicircum" unicode="^" horiz-adv-x="481" 
d="M451 409l-70 -38l-135 161h-8l-138 -161l-70 38l146 232h132z" />
    <glyph glyph-name="at" unicode="@" horiz-adv-x="781" 
d="M387 610h158c120 0 187 -45 187 -179v-294h-133l-15 65c-31 -37 -87 -77 -164 -77c-82 0 -149 43 -149 127v46c0 71 51 114 138 114h156v19c0 38 -14 51 -58 51h-120c-154 -1 -174 -3 -174 -213c0 -220 24 -213 222 -213h297v-115c-98 -8 -198 -15 -296 -15
c-350 -1 -389 43 -389 343c0 297 34 341 340 341zM565 331l-93 -4c-28 -2 -40 -13 -40 -34v-15c0 -24 15 -36 42 -36c28 0 64 10 91 31v58z" />
    <glyph glyph-name="bar" unicode="|" horiz-adv-x="269" 
d="M198 -169h-127v950h127v-950z" />
    <glyph glyph-name="brokenbar" unicode="&#xa6;" horiz-adv-x="271" 
d="M199 381h-127v400h127v-400zM199 -169h-127v400h127v-400z" />
    <glyph glyph-name="copyright" unicode="&#xa9;" horiz-adv-x="795" 
d="M397 704c204 0 363 -150 363 -359s-159 -359 -363 -359c-203 0 -363 150 -363 359s160 359 363 359zM397 618c-149 0 -273 -115 -273 -273s124 -273 273 -273c151 0 274 115 274 273s-123 273 -274 273zM402 547c65 0 95 -5 138 -15l-11 -96c-43 0 -71 1 -128 1
c-47 0 -56 -17 -56 -91s9 -90 56 -90c61 0 96 0 138 3l10 -95c-43 -14 -82 -19 -147 -19c-143 0 -195 52 -195 201c0 148 52 201 195 201z" />
    <glyph glyph-name="dagger" unicode="&#x2020;" horiz-adv-x="479" 
d="M312 -110h-145l8 511l1 83l-9 207h145l-9 -207l1 -83zM26 368v129h129v-110zM453 497v-129l-129 19v110h129z" />
    <glyph glyph-name="daggerdbl" unicode="&#x2021;" horiz-adv-x="516" 
d="M322 496l-1 -401l10 -205h-146l9 205v401l-9 195h146zM174 387l-129 -19v129h129v-110zM471 368l-129 19v110h129v-129zM174 194v-110h-129v129zM471 84h-129v110l129 19v-129z" />
    <glyph glyph-name="degree" unicode="&#xb0;" horiz-adv-x="334" 
d="M167 704c75 0 139 -60 139 -136c0 -77 -63 -137 -139 -137s-140 60 -140 137c0 76 64 136 140 136zM167 621c-29 0 -52 -22 -52 -53s23 -55 52 -55c28 0 51 24 51 55s-23 53 -51 53z" />
    <glyph glyph-name="paragraph" unicode="&#xb6;" horiz-adv-x="613" 
d="M353 702c50 0 127 -4 182 -17v-685h-114v592l-49 2v-804h-114v411c-167 15 -234 86 -234 249c0 185 93 252 329 252z" />
    <glyph glyph-name="registered" unicode="&#xae;" horiz-adv-x="507" 
d="M254 703c123 0 222 -99 222 -222c0 -124 -99 -223 -222 -223c-124 0 -223 99 -223 223c0 123 99 222 223 222zM254 309c92 0 170 77 170 172s-78 172 -170 172c-94 0 -171 -77 -171 -172s77 -172 171 -172zM312 480v-2c15 -1 33 -6 40 -35l20 -67h-79l-15 64
c-5 12 -10 15 -23 15h-26v-79h-74v219c32 3 54 3 104 3c72 0 104 -15 104 -66c0 -25 -12 -48 -51 -52zM229 501h28c24 1 30 6 30 23c0 18 -6 21 -30 21h-28v-44z" />
    <glyph glyph-name="section" unicode="&#xa7;" horiz-adv-x="559" 
d="M277 704c48 -1 160 -5 232 -12l-13 -126c-51 3 -83 2 -163 2c-66 0 -95 -2 -98 -28c-5 -27 19 -41 47 -55l125 -62c119 -58 132 -133 91 -251h-126c2 75 -11 92 -79 129l-151 81c-42 23 -102 54 -102 164c0 126 81 158 237 158zM62 343h125c-1 -75 13 -92 80 -129
l151 -81c42 -23 102 -54 102 -164c0 -128 -83 -158 -237 -158c-48 0 -159 3 -232 12l13 126c52 -3 83 -3 163 -3c67 0 95 3 98 30c5 27 -20 40 -47 53l-125 63c-119 58 -132 132 -91 251z" />
    <glyph glyph-name="trademark" unicode="&#x2122;" horiz-adv-x="989" 
d="M398 696v-95h-112v-285h-124v285h-113v95h349zM937 316h-113l-12 287h-9l-38 -187c-4 -26 -21 -38 -47 -38h-70c-27 0 -44 13 -48 38l-38 187h-9l-10 -287h-114l13 337c1 28 14 43 43 43h113c25 0 42 -13 46 -38l29 -146c3 -18 4 -38 7 -56h6c2 18 4 38 7 57l27 145
c4 25 21 38 47 38h115c28 0 42 -15 43 -43z" />
    <glyph glyph-name="acute" unicode="&#xb4;" horiz-adv-x="374" 
d="M336 623l-241 -106l-51 76l218 149z" />
    <glyph glyph-name="breve" unicode="&#x2d8;" horiz-adv-x="403" 
d="M289 714l85 -12c13 -86 -55 -162 -172 -162s-186 76 -173 162l85 12c0 -43 26 -62 88 -62c61 0 87 19 87 62z" />
    <glyph glyph-name="caron" unicode="&#x2c7;" horiz-adv-x="464" 
d="M428 679l-158 -131h-73l-159 131l46 69l145 -78h8l146 78z" />
    <glyph glyph-name="cedilla" unicode="&#xb8;" horiz-adv-x="256" 
d="M59 -101l17 66c114 12 165 11 161 -65c-4 -109 -100 -158 -218 -142l20 72c45 0 83 10 87 54c1 16 -8 15 -67 15z" />
    <glyph glyph-name="circumflex" unicode="&#x2c6;" horiz-adv-x="464" 
d="M433 592l-45 -63l-151 94h-8l-153 -94l-46 68l138 133h131z" />
    <glyph glyph-name="brevecy" horiz-adv-x="403" 
d="M259 704h115c13 -84 -55 -164 -172 -164s-186 80 -173 164h115c-6 -60 16 -79 58 -79c41 0 63 19 57 79z" />
    <glyph glyph-name="dieresis" unicode="&#xa8;" horiz-adv-x="430" 
d="M93 714h59c25 0 36 -12 36 -36v-60c0 -25 -11 -37 -36 -37h-59c-24 0 -36 12 -36 37v60c0 24 12 36 36 36zM279 714h59c24 0 36 -12 36 -36v-60c0 -25 -12 -37 -36 -37h-59c-25 0 -37 12 -37 37v60c0 24 12 36 37 36z" />
    <glyph glyph-name="dotaccent" unicode="&#x2d9;" horiz-adv-x="244" 
d="M95 714h55c34 0 51 -16 51 -49v-50c0 -33 -17 -50 -51 -50h-55c-35 0 -52 17 -52 50v50c0 33 17 49 52 49z" />
    <glyph glyph-name="grave" unicode="`" horiz-adv-x="374" 
d="M327 593l-51 -76l-241 106l74 119z" />
    <glyph glyph-name="hungarumlaut" unicode="&#x2dd;" horiz-adv-x="526" 
d="M278 676l-162 -172l-72 58l119 190zM481 676l-162 -172l-72 58l119 190z" />
    <glyph glyph-name="macron" unicode="&#xaf;" horiz-adv-x="400" 
d="M355 594h-310v110h310v-110z" />
    <glyph glyph-name="ogonek" unicode="&#x2db;" horiz-adv-x="250" 
d="M140 2l71 -2c-19 -30 -37 -57 -53 -93c-18 -39 11 -44 54 -35l13 -64c-155 -59 -212 12 -188 84c11 33 42 72 103 110z" />
    <glyph glyph-name="ring" unicode="&#x2da;" horiz-adv-x="314" 
d="M157 770c67 0 124 -53 124 -120c0 -68 -56 -121 -124 -121s-124 53 -124 121c0 67 57 120 124 120zM157 698c-26 0 -47 -21 -47 -48c0 -28 21 -48 47 -48s47 20 47 48c0 27 -21 48 -47 48z" />
    <glyph glyph-name="tilde" unicode="&#x2dc;" horiz-adv-x="451" 
d="M130 718c67 -5 111 -35 165 -45c31 -5 33 8 33 40h76c18 -103 -23 -160 -83 -156c-68 5 -120 38 -166 46c-31 5 -32 -8 -32 -41h-76c-19 110 31 160 83 156z" />
    </font>
</defs>
</svg>
