<?xml version="1.0" encoding="UTF-8" standalone="no"?>
<svg style="display: block; height: 0; width: 0">
    <defs>
        <path id="path219" d="m71.1003,480.399859c-9.299996,-2.499999 -17.099993,-7.299996 -25.59999,-15.89999c-15.299994,-15.199991 -23.099991,-31.099981 -28.199989,-57.499965c-1.799999,-9.699994 -5.699998,-286.799828 -4.299998,-307.499816c2.099999,-29.599982 12.699995,-54.399967 30.699988,-71.599957c13.499995,-12.799992 25.69999,-17.599989 41.999983,-16.49999c30.199988,2.099999 423.599831,38.799977 428.699829,39.999976c32.999987,7.699995 58.799976,27.499983 67.299973,51.699969c2.199999,6.399996 2.599999,8.999995 2.499999,18.899989c0,6.299996 -4.099998,64.199961 -9.099996,128.499923c-9.999996,127.399924 -9.999996,127.699923 -17.199993,142.599914c-3.199999,6.499996 -5.699998,9.999994 -12.199995,16.39999c-9.299996,9.299994 -17.999993,14.199991 -31.399987,17.499989c-8.699997,2.199999 -425.09983,54.999967 -432.899827,54.899967c-2.699999,0 -7.299997,-0.7 -10.299996,-1.499999z"/>
    </defs>
</svg>